<?xml version="1.0" standalone="no"?>
 <!DOCTYPE svg PUBLIC "-//W3C//DTD SVG 1.1//EN" 
 "http://www.w3.org/Graphics/SVG/1.1/DTD/svg11.dtd"> 
<svg
  xmlns:svg="http://www.w3.org/2000/svg"
  xmlns="http://www.w3.org/2000/svg"
  xmlns:xlink="http://www.w3.org/1999/xlink"
  version="1.1"
  width="297.0022mm" height="210.0072mm" viewBox="0.0000 0.0000 297.0022 210.0072">
<title>SVG Image created as PROJECTE_EINES-B_Mask.svg date 2026/04/30 12:28:05 </title>
  <desc>Image generated by PCBNEW </desc>
<g style="fill:#000000; fill-opacity:1.0000;stroke:#000000; stroke-opacity:1.0000;
stroke-linecap:round; stroke-linejoin:round;"
 transform="translate(0 0) scale(1 1)">
</g>
<g style="fill:#000000; fill-opacity:1.0000; stroke:none;">
<circle cx="196.3247" cy="60.9300" r="2.0000" /> 
</g>
<g style="fill:#000000; fill-opacity:1.0000; stroke:none;">
<circle cx="196.3247" cy="35.9300" r="2.0000" /> 
<path style="fill:#000000; fill-opacity:1.0000; stroke:none;fill-rule:evenodd;"
d="M 194.2847,54.7700
192.6847,54.7700
192.6847,53.1700
194.2847,53.1700
Z" /> 
</g>
<g style="fill:#000000; fill-opacity:1.0000; stroke:none;">
<circle cx="193.4847" cy="51.2000" r="0.8000" /> 
</g>
<g style="fill:#000000; fill-opacity:1.0000; stroke:none;">
<circle cx="193.4847" cy="48.4300" r="0.8000" /> 
</g>
<g style="fill:#000000; fill-opacity:1.0000; stroke:none;">
<circle cx="193.4847" cy="45.6600" r="0.8000" /> 
</g>
<g style="fill:#000000; fill-opacity:1.0000; stroke:none;">
<circle cx="193.4847" cy="42.8900" r="0.8000" /> 
</g>
<g style="fill:#000000; fill-opacity:1.0000; stroke:none;">
<circle cx="196.3247" cy="52.5850" r="0.8000" /> 
</g>
<g style="fill:#000000; fill-opacity:1.0000; stroke:none;">
<circle cx="196.3247" cy="49.8150" r="0.8000" /> 
</g>
<g style="fill:#000000; fill-opacity:1.0000; stroke:none;">
<circle cx="196.3247" cy="47.0450" r="0.8000" /> 
</g>
<g style="fill:#000000; fill-opacity:1.0000; stroke:none;">
<circle cx="196.3247" cy="44.2750" r="0.8000" /> 
<path style="fill:#000000; fill-opacity:1.0000; stroke:none;fill-rule:evenodd;"
d="M 151.4900,89.8675
151.5090,89.7718
151.5632,89.6907
151.6443,89.6365
151.7400,89.6175
154.0400,89.6175
154.1357,89.6365
154.2168,89.6907
154.2710,89.7718
154.2900,89.8675
154.2900,92.1675
154.2710,92.2632
154.2168,92.3443
154.1357,92.3985
154.0400,92.4175
151.7400,92.4175
151.6443,92.3985
151.5632,92.3443
151.5090,92.2632
151.4900,92.1675
Z" /> 
</g>
<g style="fill:#000000; fill-opacity:1.0000; stroke:none;">
<circle cx="157.8900" cy="91.0175" r="1.4000" /> 
</g>
<g style="fill:#000000; fill-opacity:1.0000; stroke:none;">
<circle cx="196.2800" cy="93.1100" r="2.0000" /> 
</g>
<g style="fill:#000000; fill-opacity:1.0000; stroke:none;">
<circle cx="196.2800" cy="68.1100" r="2.0000" /> 
<path style="fill:#000000; fill-opacity:1.0000; stroke:none;fill-rule:evenodd;"
d="M 194.2400,86.9500
192.6400,86.9500
192.6400,85.3500
194.2400,85.3500
Z" /> 
</g>
<g style="fill:#000000; fill-opacity:1.0000; stroke:none;">
<circle cx="193.4400" cy="83.3800" r="0.8000" /> 
</g>
<g style="fill:#000000; fill-opacity:1.0000; stroke:none;">
<circle cx="193.4400" cy="80.6100" r="0.8000" /> 
</g>
<g style="fill:#000000; fill-opacity:1.0000; stroke:none;">
<circle cx="193.4400" cy="77.8400" r="0.8000" /> 
</g>
<g style="fill:#000000; fill-opacity:1.0000; stroke:none;">
<circle cx="193.4400" cy="75.0700" r="0.8000" /> 
</g>
<g style="fill:#000000; fill-opacity:1.0000; stroke:none;">
<circle cx="196.2800" cy="84.7650" r="0.8000" /> 
</g>
<g style="fill:#000000; fill-opacity:1.0000; stroke:none;">
<circle cx="196.2800" cy="81.9950" r="0.8000" /> 
</g>
<g style="fill:#000000; fill-opacity:1.0000; stroke:none;">
<circle cx="196.2800" cy="79.2250" r="0.8000" /> 
</g>
<g style="fill:#000000; fill-opacity:1.0000; stroke:none;">
<circle cx="196.2800" cy="76.4550" r="0.8000" /> 
<path style="fill:#000000; fill-opacity:1.0000; stroke:none;fill-rule:evenodd;"
d="M 94.7225,35.0250
94.8182,35.0440
94.8993,35.0982
94.9535,35.1793
94.9725,35.2750
94.9725,37.5750
94.9535,37.6707
94.8993,37.7518
94.8182,37.8060
94.7225,37.8250
92.4225,37.8250
92.3268,37.8060
92.2457,37.7518
92.1915,37.6707
92.1725,37.5750
92.1725,35.2750
92.1915,35.1793
92.2457,35.0982
92.3268,35.0440
92.4225,35.0250
Z" /> 
</g>
<g style="fill:#000000; fill-opacity:1.0000; stroke:none;">
<circle cx="93.5725" cy="41.4250" r="1.4000" /> 
<path style="fill:#000000; fill-opacity:1.0000; stroke:none;fill-rule:evenodd;"
d="M 158.2500,33.8600
159.9500,33.8600
159.9500,35.5600
158.2500,35.5600
Z" /> 
</g>
<g style="fill:#000000; fill-opacity:1.0000; stroke:none;">
<circle cx="156.5600" cy="34.7100" r="0.8500" /> 
</g>
<g style="fill:#000000; fill-opacity:1.0000; stroke:none;">
<circle cx="154.0200" cy="34.7100" r="0.8500" /> 
</g>
<g style="fill:#000000; fill-opacity:1.0000; stroke:none;">
<circle cx="151.4800" cy="34.7100" r="0.8500" /> 
</g>
<g style="fill:#000000; fill-opacity:1.0000; stroke:none;">
<circle cx="148.9400" cy="34.7100" r="0.8500" /> 
</g>
<g style="fill:#000000; fill-opacity:1.0000; stroke:none;">
<circle cx="85.0000" cy="100.4000" r="1.6000" /> 
<path style="fill:#000000; fill-opacity:1.0000; stroke:none;fill-rule:evenodd;"
d="M 174.3650,34.3000
173.5150,34.3000
173.5150,33.4500
174.3650,33.4500
Z" /> 
</g>
<g style="fill:#000000; fill-opacity:1.0000; stroke:none;">
<circle cx="174.9400" cy="33.8750" r="0.4250" /> 
</g>
<g style="fill:#000000; fill-opacity:1.0000; stroke:none;">
<circle cx="175.9400" cy="33.8750" r="0.4250" /> 
</g>
<g style="fill:#000000; fill-opacity:1.0000; stroke:none;">
<circle cx="176.9400" cy="33.8750" r="0.4250" /> 
</g>
<g style="fill:#000000; fill-opacity:1.0000; stroke:none;">
<circle cx="177.9400" cy="33.8750" r="0.4250" /> 
</g>
<g style="fill:#000000; fill-opacity:1.0000; stroke:none;">
<circle cx="178.9400" cy="33.8750" r="0.4250" /> 
</g>
<g style="fill:#000000; fill-opacity:1.0000; stroke:none;">
<circle cx="179.9400" cy="33.8750" r="0.4250" /> 
</g>
<g style="fill:#000000; fill-opacity:1.0000; stroke:none;">
<circle cx="180.9400" cy="33.8750" r="0.4250" /> 
</g>
<g style="fill:#000000; fill-opacity:1.0000; stroke:none;">
<circle cx="197.8000" cy="100.4000" r="1.6000" /> 
</g>
<g style="fill:#000000; fill-opacity:1.0000; stroke:none;">
<circle cx="197.8000" cy="27.0000" r="1.6000" /> 
<path style="fill:#000000; fill-opacity:1.0000; stroke:none;fill-rule:evenodd;"
d="M 95.3225,61.1021
95.4182,61.1211
95.4993,61.1753
95.5535,61.2564
95.5725,61.3521
95.5725,63.6521
95.5535,63.7478
95.4993,63.8289
95.4182,63.8831
95.3225,63.9021
93.0225,63.9021
92.9268,63.8831
92.8457,63.8289
92.7915,63.7478
92.7725,63.6521
92.7725,61.3521
92.7915,61.2564
92.8457,61.1753
92.9268,61.1211
93.0225,61.1021
Z" /> 
</g>
<g style="fill:#000000; fill-opacity:1.0000; stroke:none;">
<circle cx="94.1725" cy="67.5021" r="1.4000" /> 
</g>
<g style="fill:#000000; fill-opacity:1.0000; stroke:none;">
<circle cx="84.8000" cy="26.9000" r="1.6000" /> 
<path style="fill:#000000; fill-opacity:1.0000; stroke:none;fill-rule:evenodd;"
d="M 92.9250,91.7100
92.8293,91.6910
92.7482,91.6368
92.6940,91.5557
92.6750,91.4600
92.6750,89.1600
92.6940,89.0643
92.7482,88.9832
92.8293,88.9290
92.9250,88.9100
95.2250,88.9100
95.3207,88.9290
95.4018,88.9832
95.4560,89.0643
95.4750,89.1600
95.4750,91.4600
95.4560,91.5557
95.4018,91.6368
95.3207,91.6910
95.2250,91.7100
Z" /> 
</g>
<g style="fill:#000000; fill-opacity:1.0000; stroke:none;">
<circle cx="94.0750" cy="85.3100" r="1.4000" /> 
<path style="fill:#000000; fill-opacity:1.0000; stroke:none;fill-rule:evenodd;"
d="M 175.2400,90.8000
175.2590,90.7043
175.3132,90.6232
175.3943,90.5690
175.4900,90.5500
176.3900,90.5500
176.4857,90.5690
176.5668,90.6232
176.6210,90.7043
176.6400,90.8000
176.6400,91.7000
176.6210,91.7957
176.5668,91.8768
176.4857,91.9310
176.3900,91.9500
175.4900,91.9500
175.3943,91.9310
175.3132,91.8768
175.2590,91.7957
175.2400,91.7000
Z" /> 
</g>
<g style="fill:#000000; fill-opacity:1.0000; stroke:none;">
<circle cx="178.4400" cy="91.2500" r="0.7000" /> 
</g>
<g style="fill:#000000; fill-opacity:1.0000; stroke:none;">
<circle cx="180.9400" cy="91.2500" r="0.7000" /> 
</g>
<g style="fill:#000000; fill-opacity:1.0000; stroke:none;">
<circle cx="180.9400" cy="94.5500" r="0.7000" /> 
</g>
<g style="fill:#000000; fill-opacity:1.0000; stroke:none;">
<circle cx="178.4400" cy="94.5500" r="0.7000" /> 
</g>
<g style="fill:#000000; fill-opacity:1.0000; stroke:none;">
<circle cx="175.9400" cy="94.5500" r="0.7000" /> 
</g> 
</svg>
