<?xml version="1.0" standalone="no"?>
 <!DOCTYPE svg PUBLIC "-//W3C//DTD SVG 1.1//EN" 
 "http://www.w3.org/Graphics/SVG/1.1/DTD/svg11.dtd"> 
<svg
  xmlns:svg="http://www.w3.org/2000/svg"
  xmlns="http://www.w3.org/2000/svg"
  xmlns:xlink="http://www.w3.org/1999/xlink"
  version="1.1"
  width="297.0022mm" height="210.0072mm" viewBox="0.0000 0.0000 297.0022 210.0072">
<title>SVG Image created as PROJECTE_EINES-F_Paste.svg date 2026/04/30 12:28:05 </title>
  <desc>Image generated by PCBNEW </desc>
<g style="fill:#000000; fill-opacity:1.0000;stroke:#000000; stroke-opacity:1.0000;
stroke-linecap:round; stroke-linejoin:round;"
 transform="translate(0 0) scale(1 1)">
<path style="fill:#000000; fill-opacity:1.0000; stroke:none;fill-rule:evenodd;"
d="M 168.0675,87.8300
168.0865,87.7343
168.1407,87.6532
168.2218,87.5990
168.3175,87.5800
168.8425,87.5800
168.9382,87.5990
169.0193,87.6532
169.0735,87.7343
169.0925,87.8300
169.0925,88.7300
169.0735,88.8257
169.0193,88.9068
168.9382,88.9610
168.8425,88.9800
168.3175,88.9800
168.2218,88.9610
168.1407,88.9068
168.0865,88.8257
168.0675,88.7300
Z" /> 
<path style="fill:#000000; fill-opacity:1.0000; stroke:none;fill-rule:evenodd;"
d="M 169.8925,87.8300
169.9115,87.7343
169.9657,87.6532
170.0468,87.5990
170.1425,87.5800
170.6675,87.5800
170.7632,87.5990
170.8443,87.6532
170.8985,87.7343
170.9175,87.8300
170.9175,88.7300
170.8985,88.8257
170.8443,88.9068
170.7632,88.9610
170.6675,88.9800
170.1425,88.9800
170.0468,88.9610
169.9657,88.9068
169.9115,88.8257
169.8925,88.7300
Z" /> 
<path style="fill:#000000; fill-opacity:1.0000; stroke:none;fill-rule:evenodd;"
d="M 102.1900,62.8250
102.2857,62.8440
102.3668,62.8982
102.4210,62.9793
102.4400,63.0750
102.4400,63.7250
102.4210,63.8207
102.3668,63.9018
102.2857,63.9560
102.1900,63.9750
100.8900,63.9750
100.7943,63.9560
100.7132,63.9018
100.6590,63.8207
100.6400,63.7250
100.6400,63.0750
100.6590,62.9793
100.7132,62.8982
100.7943,62.8440
100.8900,62.8250
Z" /> 
<path style="fill:#000000; fill-opacity:1.0000; stroke:none;fill-rule:evenodd;"
d="M 102.1900,65.7750
102.2857,65.7940
102.3668,65.8482
102.4210,65.9293
102.4400,66.0250
102.4400,66.6750
102.4210,66.7707
102.3668,66.8518
102.2857,66.9060
102.1900,66.9250
100.8900,66.9250
100.7943,66.9060
100.7132,66.8518
100.6590,66.7707
100.6400,66.6750
100.6400,66.0250
100.6590,65.9293
100.7132,65.8482
100.7943,65.7940
100.8900,65.7750
Z" /> 
<path style="fill:#000000; fill-opacity:1.0000; stroke:none;fill-rule:evenodd;"
d="M 126.5900,48.2250
126.6857,48.2440
126.7668,48.2982
126.8210,48.3793
126.8400,48.4750
126.8400,49.1250
126.8210,49.2207
126.7668,49.3018
126.6857,49.3560
126.5900,49.3750
125.2900,49.3750
125.1943,49.3560
125.1132,49.3018
125.0590,49.2207
125.0400,49.1250
125.0400,48.4750
125.0590,48.3793
125.1132,48.2982
125.1943,48.2440
125.2900,48.2250
Z" /> 
<path style="fill:#000000; fill-opacity:1.0000; stroke:none;fill-rule:evenodd;"
d="M 126.5900,51.1750
126.6857,51.1940
126.7668,51.2482
126.8210,51.3293
126.8400,51.4250
126.8400,52.0750
126.8210,52.1707
126.7668,52.2518
126.6857,52.3060
126.5900,52.3250
125.2900,52.3250
125.1943,52.3060
125.1132,52.2518
125.0590,52.1707
125.0400,52.0750
125.0400,51.4250
125.0590,51.3293
125.1132,51.2482
125.1943,51.1940
125.2900,51.1750
Z" /> 
<path style="fill:#000000; fill-opacity:1.0000; stroke:none;fill-rule:evenodd;"
d="M 89.0000,47.2200
89.0000,46.2200
91.0000,46.2200
91.0000,47.2200
Z" /> 
<path style="fill:#000000; fill-opacity:1.0000; stroke:none;fill-rule:evenodd;"
d="M 93.0000,49.0000
93.0000,46.2000
95.0000,46.2000
95.0000,49.0000
Z" /> 
<path style="fill:#000000; fill-opacity:1.0000; stroke:none;fill-rule:evenodd;"
d="M 89.0000,48.9800
89.0000,47.9800
91.0000,47.9800
91.0000,48.9800
Z" /> 
<path style="fill:#000000; fill-opacity:1.0000; stroke:none;fill-rule:evenodd;"
d="M 137.5700,63.5425
137.6657,63.5615
137.7468,63.6157
137.8010,63.6968
137.8200,63.7925
137.8200,64.3175
137.8010,64.4132
137.7468,64.4943
137.6657,64.5485
137.5700,64.5675
136.6700,64.5675
136.5743,64.5485
136.4932,64.4943
136.4390,64.4132
136.4200,64.3175
136.4200,63.7925
136.4390,63.6968
136.4932,63.6157
136.5743,63.5615
136.6700,63.5425
Z" /> 
<path style="fill:#000000; fill-opacity:1.0000; stroke:none;fill-rule:evenodd;"
d="M 137.5700,65.3675
137.6657,65.3865
137.7468,65.4407
137.8010,65.5218
137.8200,65.6175
137.8200,66.1425
137.8010,66.2382
137.7468,66.3193
137.6657,66.3735
137.5700,66.3925
136.6700,66.3925
136.5743,66.3735
136.4932,66.3193
136.4390,66.2382
136.4200,66.1425
136.4200,65.6175
136.4390,65.5218
136.4932,65.4407
136.5743,65.3865
136.6700,65.3675
Z" /> 
<path style="fill:#000000; fill-opacity:1.0000; stroke:none;fill-rule:evenodd;"
d="M 128.7400,44.3750
125.1400,44.3750
125.1400,41.6750
128.7400,41.6750
Z" /> 
<path style="fill:#000000; fill-opacity:1.0000; stroke:none;fill-rule:evenodd;"
d="M 128.7400,36.0750
125.1400,36.0750
125.1400,33.3750
128.7400,33.3750
Z" /> 
<path style="fill:#000000; fill-opacity:1.0000; stroke:none;fill-rule:evenodd;"
d="M 165.0170,70.4215
165.0170,70.9041
163.5438,70.9041
163.5438,70.4215
Z" /> 
<path style="fill:#000000; fill-opacity:1.0000; stroke:none;fill-rule:evenodd;"
d="M 165.0170,69.6341
165.0170,70.1167
163.5438,70.1167
163.5438,69.6341
Z" /> 
<path style="fill:#000000; fill-opacity:1.0000; stroke:none;fill-rule:evenodd;"
d="M 165.0170,68.8213
165.0170,69.3039
163.5438,69.3039
163.5438,68.8213
Z" /> 
<path style="fill:#000000; fill-opacity:1.0000; stroke:none;fill-rule:evenodd;"
d="M 165.0170,68.0339
165.0170,68.5165
163.5438,68.5165
163.5438,68.0339
Z" /> 
<path style="fill:#000000; fill-opacity:1.0000; stroke:none;fill-rule:evenodd;"
d="M 165.0170,67.2211
165.0170,67.7037
163.5438,67.7037
163.5438,67.2211
Z" /> 
<path style="fill:#000000; fill-opacity:1.0000; stroke:none;fill-rule:evenodd;"
d="M 165.0170,66.4337
165.0170,66.9163
163.5438,66.9163
163.5438,66.4337
Z" /> 
<path style="fill:#000000; fill-opacity:1.0000; stroke:none;fill-rule:evenodd;"
d="M 165.0170,65.6463
165.0170,66.1289
163.5438,66.1289
163.5438,65.6463
Z" /> 
<path style="fill:#000000; fill-opacity:1.0000; stroke:none;fill-rule:evenodd;"
d="M 165.0170,64.8335
165.0170,65.3161
163.5438,65.3161
163.5438,64.8335
Z" /> 
<path style="fill:#000000; fill-opacity:1.0000; stroke:none;fill-rule:evenodd;"
d="M 165.0170,64.0461
165.0170,64.5287
163.5438,64.5287
163.5438,64.0461
Z" /> 
<path style="fill:#000000; fill-opacity:1.0000; stroke:none;fill-rule:evenodd;"
d="M 165.0170,63.2333
165.0170,63.7159
163.5438,63.7159
163.5438,63.2333
Z" /> 
<path style="fill:#000000; fill-opacity:1.0000; stroke:none;fill-rule:evenodd;"
d="M 165.0170,62.4459
165.0170,62.9285
163.5438,62.9285
163.5438,62.4459
Z" /> 
<path style="fill:#000000; fill-opacity:1.0000; stroke:none;fill-rule:evenodd;"
d="M 162.7691,60.1980
162.7691,61.6712
162.2865,61.6712
162.2865,60.1980
Z" /> 
<path style="fill:#000000; fill-opacity:1.0000; stroke:none;fill-rule:evenodd;"
d="M 161.9817,60.1980
161.9817,61.6712
161.4991,61.6712
161.4991,60.1980
Z" /> 
<path style="fill:#000000; fill-opacity:1.0000; stroke:none;fill-rule:evenodd;"
d="M 161.1689,60.1980
161.1689,61.6712
160.6863,61.6712
160.6863,60.1980
Z" /> 
<path style="fill:#000000; fill-opacity:1.0000; stroke:none;fill-rule:evenodd;"
d="M 160.3815,60.1980
160.3815,61.6712
159.8989,61.6712
159.8989,60.1980
Z" /> 
<path style="fill:#000000; fill-opacity:1.0000; stroke:none;fill-rule:evenodd;"
d="M 159.5687,60.1980
159.5687,61.6712
159.0861,61.6712
159.0861,60.1980
Z" /> 
<path style="fill:#000000; fill-opacity:1.0000; stroke:none;fill-rule:evenodd;"
d="M 158.7813,60.1980
158.7813,61.6712
158.2987,61.6712
158.2987,60.1980
Z" /> 
<path style="fill:#000000; fill-opacity:1.0000; stroke:none;fill-rule:evenodd;"
d="M 157.9939,60.1980
157.9939,61.6712
157.5113,61.6712
157.5113,60.1980
Z" /> 
<path style="fill:#000000; fill-opacity:1.0000; stroke:none;fill-rule:evenodd;"
d="M 157.1811,60.1980
157.1811,61.6712
156.6985,61.6712
156.6985,60.1980
Z" /> 
<path style="fill:#000000; fill-opacity:1.0000; stroke:none;fill-rule:evenodd;"
d="M 156.3937,60.1980
156.3937,61.6712
155.9111,61.6712
155.9111,60.1980
Z" /> 
<path style="fill:#000000; fill-opacity:1.0000; stroke:none;fill-rule:evenodd;"
d="M 155.5809,60.1980
155.5809,61.6712
155.0983,61.6712
155.0983,60.1980
Z" /> 
<path style="fill:#000000; fill-opacity:1.0000; stroke:none;fill-rule:evenodd;"
d="M 154.7935,60.1980
154.7935,61.6712
154.3109,61.6712
154.3109,60.1980
Z" /> 
<path style="fill:#000000; fill-opacity:1.0000; stroke:none;fill-rule:evenodd;"
d="M 153.5362,62.4459
153.5362,62.9285
152.0630,62.9285
152.0630,62.4459
Z" /> 
<path style="fill:#000000; fill-opacity:1.0000; stroke:none;fill-rule:evenodd;"
d="M 153.5362,63.2333
153.5362,63.7159
152.0630,63.7159
152.0630,63.2333
Z" /> 
<path style="fill:#000000; fill-opacity:1.0000; stroke:none;fill-rule:evenodd;"
d="M 153.5362,64.0461
153.5362,64.5287
152.0630,64.5287
152.0630,64.0461
Z" /> 
<path style="fill:#000000; fill-opacity:1.0000; stroke:none;fill-rule:evenodd;"
d="M 153.5362,64.8335
153.5362,65.3161
152.0630,65.3161
152.0630,64.8335
Z" /> 
<path style="fill:#000000; fill-opacity:1.0000; stroke:none;fill-rule:evenodd;"
d="M 153.5362,65.6463
153.5362,66.1289
152.0630,66.1289
152.0630,65.6463
Z" /> 
<path style="fill:#000000; fill-opacity:1.0000; stroke:none;fill-rule:evenodd;"
d="M 153.5362,66.4337
153.5362,66.9163
152.0630,66.9163
152.0630,66.4337
Z" /> 
<path style="fill:#000000; fill-opacity:1.0000; stroke:none;fill-rule:evenodd;"
d="M 153.5362,67.2211
153.5362,67.7037
152.0630,67.7037
152.0630,67.2211
Z" /> 
<path style="fill:#000000; fill-opacity:1.0000; stroke:none;fill-rule:evenodd;"
d="M 153.5362,68.0339
153.5362,68.5165
152.0630,68.5165
152.0630,68.0339
Z" /> 
<path style="fill:#000000; fill-opacity:1.0000; stroke:none;fill-rule:evenodd;"
d="M 153.5362,68.8213
153.5362,69.3039
152.0630,69.3039
152.0630,68.8213
Z" /> 
<path style="fill:#000000; fill-opacity:1.0000; stroke:none;fill-rule:evenodd;"
d="M 153.5362,69.6341
153.5362,70.1167
152.0630,70.1167
152.0630,69.6341
Z" /> 
<path style="fill:#000000; fill-opacity:1.0000; stroke:none;fill-rule:evenodd;"
d="M 153.5362,70.4215
153.5362,70.9041
152.0630,70.9041
152.0630,70.4215
Z" /> 
<path style="fill:#000000; fill-opacity:1.0000; stroke:none;fill-rule:evenodd;"
d="M 154.7935,71.6788
154.7935,73.1520
154.3109,73.1520
154.3109,71.6788
Z" /> 
<path style="fill:#000000; fill-opacity:1.0000; stroke:none;fill-rule:evenodd;"
d="M 155.5809,71.6788
155.5809,73.1520
155.0983,73.1520
155.0983,71.6788
Z" /> 
<path style="fill:#000000; fill-opacity:1.0000; stroke:none;fill-rule:evenodd;"
d="M 156.3937,71.6788
156.3937,73.1520
155.9111,73.1520
155.9111,71.6788
Z" /> 
<path style="fill:#000000; fill-opacity:1.0000; stroke:none;fill-rule:evenodd;"
d="M 157.1811,71.6788
157.1811,73.1520
156.6985,73.1520
156.6985,71.6788
Z" /> 
<path style="fill:#000000; fill-opacity:1.0000; stroke:none;fill-rule:evenodd;"
d="M 157.9939,71.6788
157.9939,73.1520
157.5113,73.1520
157.5113,71.6788
Z" /> 
<path style="fill:#000000; fill-opacity:1.0000; stroke:none;fill-rule:evenodd;"
d="M 158.7813,71.6788
158.7813,73.1520
158.2987,73.1520
158.2987,71.6788
Z" /> 
<path style="fill:#000000; fill-opacity:1.0000; stroke:none;fill-rule:evenodd;"
d="M 159.5687,71.6788
159.5687,73.1520
159.0861,73.1520
159.0861,71.6788
Z" /> 
<path style="fill:#000000; fill-opacity:1.0000; stroke:none;fill-rule:evenodd;"
d="M 160.3815,71.6788
160.3815,73.1520
159.8989,73.1520
159.8989,71.6788
Z" /> 
<path style="fill:#000000; fill-opacity:1.0000; stroke:none;fill-rule:evenodd;"
d="M 161.1689,71.6788
161.1689,73.1520
160.6863,73.1520
160.6863,71.6788
Z" /> 
<path style="fill:#000000; fill-opacity:1.0000; stroke:none;fill-rule:evenodd;"
d="M 161.9817,71.6788
161.9817,73.1520
161.4991,73.1520
161.4991,71.6788
Z" /> 
<path style="fill:#000000; fill-opacity:1.0000; stroke:none;fill-rule:evenodd;"
d="M 162.7691,71.6788
162.7691,73.1520
162.2865,73.1520
162.2865,71.6788
Z" /> 
<path style="fill:#000000; fill-opacity:1.0000; stroke:none;fill-rule:evenodd;"
d="M 144.8200,70.1200
144.8029,70.2061
144.7541,70.2791
144.6811,70.3279
144.5950,70.3450
144.1450,70.3450
144.0589,70.3279
143.9859,70.2791
143.9371,70.2061
143.9200,70.1200
143.9200,69.6200
143.9371,69.5339
143.9859,69.4609
144.0589,69.4121
144.1450,69.3950
144.5950,69.3950
144.6811,69.4121
144.7541,69.4609
144.8029,69.5339
144.8200,69.6200
Z" /> 
<path style="fill:#000000; fill-opacity:1.0000; stroke:none;fill-rule:evenodd;"
d="M 143.2700,70.1200
143.2529,70.2061
143.2041,70.2791
143.1311,70.3279
143.0450,70.3450
142.5950,70.3450
142.5089,70.3279
142.4359,70.2791
142.3871,70.2061
142.3700,70.1200
142.3700,69.6200
142.3871,69.5339
142.4359,69.4609
142.5089,69.4121
142.5950,69.3950
143.0450,69.3950
143.1311,69.4121
143.2041,69.4609
143.2529,69.5339
143.2700,69.6200
Z" /> 
<path style="fill:#000000; fill-opacity:1.0000; stroke:none;fill-rule:evenodd;"
d="M 123.8650,72.4050
122.5150,72.4050
122.5150,71.7450
123.8650,71.7450
Z" /> 
<path style="fill:#000000; fill-opacity:1.0000; stroke:none;fill-rule:evenodd;"
d="M 123.8650,71.4050
122.5150,71.4050
122.5150,70.7450
123.8650,70.7450
Z" /> 
<path style="fill:#000000; fill-opacity:1.0000; stroke:none;fill-rule:evenodd;"
d="M 123.8650,70.4050
122.5150,70.4050
122.5150,69.7450
123.8650,69.7450
Z" /> 
<path style="fill:#000000; fill-opacity:1.0000; stroke:none;fill-rule:evenodd;"
d="M 123.8650,69.4050
122.5150,69.4050
122.5150,68.7450
123.8650,68.7450
Z" /> 
<path style="fill:#000000; fill-opacity:1.0000; stroke:none;fill-rule:evenodd;"
d="M 123.8650,68.4050
122.5150,68.4050
122.5150,67.7450
123.8650,67.7450
Z" /> 
<path style="fill:#000000; fill-opacity:1.0000; stroke:none;fill-rule:evenodd;"
d="M 123.8650,67.4050
122.5150,67.4050
122.5150,66.7450
123.8650,66.7450
Z" /> 
<path style="fill:#000000; fill-opacity:1.0000; stroke:none;fill-rule:evenodd;"
d="M 123.8650,66.4050
122.5150,66.4050
122.5150,65.7450
123.8650,65.7450
Z" /> 
<path style="fill:#000000; fill-opacity:1.0000; stroke:none;fill-rule:evenodd;"
d="M 123.8650,65.4050
122.5150,65.4050
122.5150,64.7450
123.8650,64.7450
Z" /> 
<path style="fill:#000000; fill-opacity:1.0000; stroke:none;fill-rule:evenodd;"
d="M 123.8650,64.4050
122.5150,64.4050
122.5150,63.7450
123.8650,63.7450
Z" /> 
<path style="fill:#000000; fill-opacity:1.0000; stroke:none;fill-rule:evenodd;"
d="M 123.8650,63.4050
122.5150,63.4050
122.5150,62.7450
123.8650,62.7450
Z" /> 
<path style="fill:#000000; fill-opacity:1.0000; stroke:none;fill-rule:evenodd;"
d="M 123.8650,62.4050
122.5150,62.4050
122.5150,61.7450
123.8650,61.7450
Z" /> 
<path style="fill:#000000; fill-opacity:1.0000; stroke:none;fill-rule:evenodd;"
d="M 123.8650,61.4050
122.5150,61.4050
122.5150,60.7450
123.8650,60.7450
Z" /> 
<path style="fill:#000000; fill-opacity:1.0000; stroke:none;fill-rule:evenodd;"
d="M 123.8650,60.4050
122.5150,60.4050
122.5150,59.7450
123.8650,59.7450
Z" /> 
<path style="fill:#000000; fill-opacity:1.0000; stroke:none;fill-rule:evenodd;"
d="M 123.8650,59.4050
122.5150,59.4050
122.5150,58.7450
123.8650,58.7450
Z" /> 
<path style="fill:#000000; fill-opacity:1.0000; stroke:none;fill-rule:evenodd;"
d="M 123.8650,58.4050
122.5150,58.4050
122.5150,57.7450
123.8650,57.7450
Z" /> 
<path style="fill:#000000; fill-opacity:1.0000; stroke:none;fill-rule:evenodd;"
d="M 105.6150,58.4050
104.2650,58.4050
104.2650,57.7450
105.6150,57.7450
Z" /> 
<path style="fill:#000000; fill-opacity:1.0000; stroke:none;fill-rule:evenodd;"
d="M 105.6150,59.4050
104.2650,59.4050
104.2650,58.7450
105.6150,58.7450
Z" /> 
<path style="fill:#000000; fill-opacity:1.0000; stroke:none;fill-rule:evenodd;"
d="M 105.6150,60.4050
104.2650,60.4050
104.2650,59.7450
105.6150,59.7450
Z" /> 
<path style="fill:#000000; fill-opacity:1.0000; stroke:none;fill-rule:evenodd;"
d="M 105.6150,61.4050
104.2650,61.4050
104.2650,60.7450
105.6150,60.7450
Z" /> 
<path style="fill:#000000; fill-opacity:1.0000; stroke:none;fill-rule:evenodd;"
d="M 105.6150,62.4050
104.2650,62.4050
104.2650,61.7450
105.6150,61.7450
Z" /> 
<path style="fill:#000000; fill-opacity:1.0000; stroke:none;fill-rule:evenodd;"
d="M 105.6150,63.4050
104.2650,63.4050
104.2650,62.7450
105.6150,62.7450
Z" /> 
<path style="fill:#000000; fill-opacity:1.0000; stroke:none;fill-rule:evenodd;"
d="M 105.6150,64.4050
104.2650,64.4050
104.2650,63.7450
105.6150,63.7450
Z" /> 
<path style="fill:#000000; fill-opacity:1.0000; stroke:none;fill-rule:evenodd;"
d="M 105.6150,65.4050
104.2650,65.4050
104.2650,64.7450
105.6150,64.7450
Z" /> 
<path style="fill:#000000; fill-opacity:1.0000; stroke:none;fill-rule:evenodd;"
d="M 105.6150,66.4050
104.2650,66.4050
104.2650,65.7450
105.6150,65.7450
Z" /> 
<path style="fill:#000000; fill-opacity:1.0000; stroke:none;fill-rule:evenodd;"
d="M 105.6150,67.4050
104.2650,67.4050
104.2650,66.7450
105.6150,66.7450
Z" /> 
<path style="fill:#000000; fill-opacity:1.0000; stroke:none;fill-rule:evenodd;"
d="M 105.6150,68.4050
104.2650,68.4050
104.2650,67.7450
105.6150,67.7450
Z" /> 
<path style="fill:#000000; fill-opacity:1.0000; stroke:none;fill-rule:evenodd;"
d="M 105.6150,69.4050
104.2650,69.4050
104.2650,68.7450
105.6150,68.7450
Z" /> 
<path style="fill:#000000; fill-opacity:1.0000; stroke:none;fill-rule:evenodd;"
d="M 105.6150,70.4050
104.2650,70.4050
104.2650,69.7450
105.6150,69.7450
Z" /> 
<path style="fill:#000000; fill-opacity:1.0000; stroke:none;fill-rule:evenodd;"
d="M 105.6150,71.4050
104.2650,71.4050
104.2650,70.7450
105.6150,70.7450
Z" /> 
<path style="fill:#000000; fill-opacity:1.0000; stroke:none;fill-rule:evenodd;"
d="M 105.6150,72.4050
104.2650,72.4050
104.2650,71.7450
105.6150,71.7450
Z" /> 
<path style="fill:#000000; fill-opacity:1.0000; stroke:none;fill-rule:evenodd;"
d="M 119.7400,59.9250
119.7400,70.2250
114.4900,70.2250
114.4900,59.9250
Z" /> 
<path style="fill:#000000; fill-opacity:1.0000; stroke:none;fill-rule:evenodd;"
d="M 113.6400,57.7950
113.6400,64.0250
108.3900,64.0250
108.3900,57.7950
Z" /> 
<path style="fill:#000000; fill-opacity:1.0000; stroke:none;fill-rule:evenodd;"
d="M 113.6400,66.1250
113.6400,72.3550
108.3900,72.3550
108.3900,66.1250
Z" /> 
<path style="fill:#000000; fill-opacity:1.0000; stroke:none;fill-rule:evenodd;"
d="M 113.4650,43.8500
113.4460,43.9457
113.3918,44.0268
113.3107,44.0810
113.2150,44.1000
109.1650,44.1000
109.0693,44.0810
108.9882,44.0268
108.9340,43.9457
108.9150,43.8500
108.9150,39.1000
108.9340,39.0043
108.9882,38.9232
109.0693,38.8690
109.1650,38.8500
113.2150,38.8500
113.3107,38.8690
113.3918,38.9232
113.4460,39.0043
113.4650,39.1000
Z" /> 
<path style="fill:#000000; fill-opacity:1.0000; stroke:none;fill-rule:evenodd;"
d="M 113.4650,38.3000
113.4460,38.3957
113.3918,38.4768
113.3107,38.5310
113.2150,38.5500
109.1650,38.5500
109.0693,38.5310
108.9882,38.4768
108.9340,38.3957
108.9150,38.3000
108.9150,33.5500
108.9340,33.4543
108.9882,33.3732
109.0693,33.3190
109.1650,33.3000
113.2150,33.3000
113.3107,33.3190
113.3918,33.3732
113.4460,33.4543
113.4650,33.5500
Z" /> 
<path style="fill:#000000; fill-opacity:1.0000; stroke:none;fill-rule:evenodd;"
d="M 108.6150,43.8500
108.5960,43.9457
108.5418,44.0268
108.4607,44.0810
108.3650,44.1000
104.3150,44.1000
104.2193,44.0810
104.1382,44.0268
104.0840,43.9457
104.0650,43.8500
104.0650,39.1000
104.0840,39.0043
104.1382,38.9232
104.2193,38.8690
104.3150,38.8500
108.3650,38.8500
108.4607,38.8690
108.5418,38.9232
108.5960,39.0043
108.6150,39.1000
Z" /> 
<path style="fill:#000000; fill-opacity:1.0000; stroke:none;fill-rule:evenodd;"
d="M 108.6150,38.3000
108.5960,38.3957
108.5418,38.4768
108.4607,38.5310
108.3650,38.5500
104.3150,38.5500
104.2193,38.5310
104.1382,38.4768
104.0840,38.3957
104.0650,38.3000
104.0650,33.5500
104.0840,33.4543
104.1382,33.3732
104.2193,33.3190
104.3150,33.3000
108.3650,33.3000
108.4607,33.3190
108.5418,33.3732
108.5960,33.4543
108.6150,33.5500
Z" /> 
<path style="fill:#000000; fill-opacity:1.0000; stroke:none;fill-rule:evenodd;"
d="M 120.2150,42.4000
120.1960,42.4957
120.1418,42.5768
120.0607,42.6310
119.9650,42.6500
115.8650,42.6500
115.7693,42.6310
115.6882,42.5768
115.6340,42.4957
115.6150,42.4000
115.6150,41.8000
115.6340,41.7043
115.6882,41.6232
115.7693,41.5690
115.8650,41.5500
119.9650,41.5500
120.0607,41.5690
120.1418,41.6232
120.1960,41.7043
120.2150,41.8000
Z" /> 
<path style="fill:#000000; fill-opacity:1.0000; stroke:none;fill-rule:evenodd;"
d="M 120.2150,40.7000
120.1960,40.7957
120.1418,40.8768
120.0607,40.9310
119.9650,40.9500
115.8650,40.9500
115.7693,40.9310
115.6882,40.8768
115.6340,40.7957
115.6150,40.7000
115.6150,40.1000
115.6340,40.0043
115.6882,39.9232
115.7693,39.8690
115.8650,39.8500
119.9650,39.8500
120.0607,39.8690
120.1418,39.9232
120.1960,40.0043
120.2150,40.1000
Z" /> 
<path style="fill:#000000; fill-opacity:1.0000; stroke:none;fill-rule:evenodd;"
d="M 120.2150,39.0000
120.1960,39.0957
120.1418,39.1768
120.0607,39.2310
119.9650,39.2500
115.8650,39.2500
115.7693,39.2310
115.6882,39.1768
115.6340,39.0957
115.6150,39.0000
115.6150,38.4000
115.6340,38.3043
115.6882,38.2232
115.7693,38.1690
115.8650,38.1500
119.9650,38.1500
120.0607,38.1690
120.1418,38.2232
120.1960,38.3043
120.2150,38.4000
Z" /> 
<path style="fill:#000000; fill-opacity:1.0000; stroke:none;fill-rule:evenodd;"
d="M 120.2150,37.3000
120.1960,37.3957
120.1418,37.4768
120.0607,37.5310
119.9650,37.5500
115.8650,37.5500
115.7693,37.5310
115.6882,37.4768
115.6340,37.3957
115.6150,37.3000
115.6150,36.7000
115.6340,36.6043
115.6882,36.5232
115.7693,36.4690
115.8650,36.4500
119.9650,36.4500
120.0607,36.4690
120.1418,36.5232
120.1960,36.6043
120.2150,36.7000
Z" /> 
<path style="fill:#000000; fill-opacity:1.0000; stroke:none;fill-rule:evenodd;"
d="M 120.2150,35.6000
120.1960,35.6957
120.1418,35.7768
120.0607,35.8310
119.9650,35.8500
115.8650,35.8500
115.7693,35.8310
115.6882,35.7768
115.6340,35.6957
115.6150,35.6000
115.6150,35.0000
115.6340,34.9043
115.6882,34.8232
115.7693,34.7690
115.8650,34.7500
119.9650,34.7500
120.0607,34.7690
120.1418,34.8232
120.1960,34.9043
120.2150,35.0000
Z" /> 
<path style="fill:#000000; fill-opacity:1.0000; stroke:none;fill-rule:evenodd;"
d="M 166.9900,65.3950
167.0090,65.2993
167.0632,65.2182
167.1443,65.1640
167.2400,65.1450
167.7400,65.1450
167.8357,65.1640
167.9168,65.2182
167.9710,65.2993
167.9900,65.3950
167.9900,66.3450
167.9710,66.4407
167.9168,66.5218
167.8357,66.5760
167.7400,66.5950
167.2400,66.5950
167.1443,66.5760
167.0632,66.5218
167.0090,66.4407
166.9900,66.3450
Z" /> 
<path style="fill:#000000; fill-opacity:1.0000; stroke:none;fill-rule:evenodd;"
d="M 168.8900,65.3950
168.9090,65.2993
168.9632,65.2182
169.0443,65.1640
169.1400,65.1450
169.6400,65.1450
169.7357,65.1640
169.8168,65.2182
169.8710,65.2993
169.8900,65.3950
169.8900,66.3450
169.8710,66.4407
169.8168,66.5218
169.7357,66.5760
169.6400,66.5950
169.1400,66.5950
169.0443,66.5760
168.9632,66.5218
168.9090,66.4407
168.8900,66.3450
Z" /> 
<path style="fill:#000000; fill-opacity:1.0000; stroke:none;fill-rule:evenodd;"
d="M 134.8400,52.6525
134.8210,52.7482
134.7668,52.8293
134.6857,52.8835
134.5900,52.9025
132.0400,52.9025
131.9443,52.8835
131.8632,52.8293
131.8090,52.7482
131.7900,52.6525
131.7900,50.4025
131.8090,50.3068
131.8632,50.2257
131.9443,50.1715
132.0400,50.1525
134.5900,50.1525
134.6857,50.1715
134.7668,50.2257
134.8210,50.3068
134.8400,50.4025
Z" /> 
<path style="fill:#000000; fill-opacity:1.0000; stroke:none;fill-rule:evenodd;"
d="M 134.8400,49.6025
134.8210,49.6982
134.7668,49.7793
134.6857,49.8335
134.5900,49.8525
132.0400,49.8525
131.9443,49.8335
131.8632,49.7793
131.8090,49.6982
131.7900,49.6025
131.7900,47.3525
131.8090,47.2568
131.8632,47.1757
131.9443,47.1215
132.0400,47.1025
134.5900,47.1025
134.6857,47.1215
134.7668,47.1757
134.8210,47.2568
134.8400,47.3525
Z" /> 
<path style="fill:#000000; fill-opacity:1.0000; stroke:none;fill-rule:evenodd;"
d="M 131.4900,52.6525
131.4710,52.7482
131.4168,52.8293
131.3357,52.8835
131.2400,52.9025
128.6900,52.9025
128.5943,52.8835
128.5132,52.8293
128.4590,52.7482
128.4400,52.6525
128.4400,50.4025
128.4590,50.3068
128.5132,50.2257
128.5943,50.1715
128.6900,50.1525
131.2400,50.1525
131.3357,50.1715
131.4168,50.2257
131.4710,50.3068
131.4900,50.4025
Z" /> 
<path style="fill:#000000; fill-opacity:1.0000; stroke:none;fill-rule:evenodd;"
d="M 131.4900,49.6025
131.4710,49.6982
131.4168,49.7793
131.3357,49.8335
131.2400,49.8525
128.6900,49.8525
128.5943,49.8335
128.5132,49.7793
128.4590,49.6982
128.4400,49.6025
128.4400,47.3525
128.4590,47.2568
128.5132,47.1757
128.5943,47.1215
128.6900,47.1025
131.2400,47.1025
131.3357,47.1215
131.4168,47.1757
131.4710,47.2568
131.4900,47.3525
Z" /> 
<path style="fill:#000000; fill-opacity:1.0000; stroke:none;fill-rule:evenodd;"
d="M 139.0400,52.6325
139.0210,52.7282
138.9668,52.8093
138.8857,52.8635
138.7900,52.8825
137.0900,52.8825
136.9943,52.8635
136.9132,52.8093
136.8590,52.7282
136.8400,52.6325
136.8400,51.9325
136.8590,51.8368
136.9132,51.7557
136.9943,51.7015
137.0900,51.6825
138.7900,51.6825
138.8857,51.7015
138.9668,51.7557
139.0210,51.8368
139.0400,51.9325
Z" /> 
<path style="fill:#000000; fill-opacity:1.0000; stroke:none;fill-rule:evenodd;"
d="M 139.0400,50.3525
139.0210,50.4482
138.9668,50.5293
138.8857,50.5835
138.7900,50.6025
137.0900,50.6025
136.9943,50.5835
136.9132,50.5293
136.8590,50.4482
136.8400,50.3525
136.8400,49.6525
136.8590,49.5568
136.9132,49.4757
136.9943,49.4215
137.0900,49.4025
138.7900,49.4025
138.8857,49.4215
138.9668,49.4757
139.0210,49.5568
139.0400,49.6525
Z" /> 
<path style="fill:#000000; fill-opacity:1.0000; stroke:none;fill-rule:evenodd;"
d="M 139.0400,48.0725
139.0210,48.1682
138.9668,48.2493
138.8857,48.3035
138.7900,48.3225
137.0900,48.3225
136.9943,48.3035
136.9132,48.2493
136.8590,48.1682
136.8400,48.0725
136.8400,47.3725
136.8590,47.2768
136.9132,47.1957
136.9943,47.1415
137.0900,47.1225
138.7900,47.1225
138.8857,47.1415
138.9668,47.1957
139.0210,47.2768
139.0400,47.3725
Z" /> 
<path style="fill:#000000; fill-opacity:1.0000; stroke:none;fill-rule:evenodd;"
d="M 101.8150,86.0250
101.9107,86.0440
101.9918,86.0982
102.0460,86.1793
102.0650,86.2750
102.0650,86.7750
102.0460,86.8707
101.9918,86.9518
101.9107,87.0060
101.8150,87.0250
100.8650,87.0250
100.7693,87.0060
100.6882,86.9518
100.6340,86.8707
100.6150,86.7750
100.6150,86.2750
100.6340,86.1793
100.6882,86.0982
100.7693,86.0440
100.8650,86.0250
Z" /> 
<path style="fill:#000000; fill-opacity:1.0000; stroke:none;fill-rule:evenodd;"
d="M 101.8150,87.9250
101.9107,87.9440
101.9918,87.9982
102.0460,88.0793
102.0650,88.1750
102.0650,88.6750
102.0460,88.7707
101.9918,88.8518
101.9107,88.9060
101.8150,88.9250
100.8650,88.9250
100.7693,88.9060
100.6882,88.8518
100.6340,88.7707
100.6150,88.6750
100.6150,88.1750
100.6340,88.0793
100.6882,87.9982
100.7693,87.9440
100.8650,87.9250
Z" /> 
<path style="fill:#000000; fill-opacity:1.0000; stroke:none;fill-rule:evenodd;"
d="M 137.0900,86.5525
137.1857,86.5715
137.2668,86.6257
137.3210,86.7068
137.3400,86.8025
137.3400,87.3275
137.3210,87.4232
137.2668,87.5043
137.1857,87.5585
137.0900,87.5775
136.1900,87.5775
136.0943,87.5585
136.0132,87.5043
135.9590,87.4232
135.9400,87.3275
135.9400,86.8025
135.9590,86.7068
136.0132,86.6257
136.0943,86.5715
136.1900,86.5525
Z" /> 
<path style="fill:#000000; fill-opacity:1.0000; stroke:none;fill-rule:evenodd;"
d="M 137.0900,88.3775
137.1857,88.3965
137.2668,88.4507
137.3210,88.5318
137.3400,88.6275
137.3400,89.1525
137.3210,89.2482
137.2668,89.3293
137.1857,89.3835
137.0900,89.4025
136.1900,89.4025
136.0943,89.3835
136.0132,89.3293
135.9590,89.2482
135.9400,89.1525
135.9400,88.6275
135.9590,88.5318
136.0132,88.4507
136.0943,88.3965
136.1900,88.3775
Z" /> 
<path style="fill:#000000; fill-opacity:1.0000; stroke:none;fill-rule:evenodd;"
d="M 180.4100,36.1750
180.4290,36.0793
180.4832,35.9982
180.5643,35.9440
180.6600,35.9250
181.1600,35.9250
181.2557,35.9440
181.3368,35.9982
181.3910,36.0793
181.4100,36.1750
181.4100,37.1250
181.3910,37.2207
181.3368,37.3018
181.2557,37.3560
181.1600,37.3750
180.6600,37.3750
180.5643,37.3560
180.4832,37.3018
180.4290,37.2207
180.4100,37.1250
Z" /> 
<path style="fill:#000000; fill-opacity:1.0000; stroke:none;fill-rule:evenodd;"
d="M 182.3100,36.1750
182.3290,36.0793
182.3832,35.9982
182.4643,35.9440
182.5600,35.9250
183.0600,35.9250
183.1557,35.9440
183.2368,35.9982
183.2910,36.0793
183.3100,36.1750
183.3100,37.1250
183.2910,37.2207
183.2368,37.3018
183.1557,37.3560
183.0600,37.3750
182.5600,37.3750
182.4643,37.3560
182.3832,37.3018
182.3290,37.2207
182.3100,37.1250
Z" /> 
<path style="fill:#000000; fill-opacity:1.0000; stroke:none;fill-rule:evenodd;"
d="M 128.2913,65.8231
128.3870,65.8421
128.4681,65.8963
128.5223,65.9774
128.5413,66.0731
128.5413,66.5981
128.5223,66.6938
128.4681,66.7749
128.3870,66.8291
128.2913,66.8481
127.3913,66.8481
127.2956,66.8291
127.2145,66.7749
127.1603,66.6938
127.1413,66.5981
127.1413,66.0731
127.1603,65.9774
127.2145,65.8963
127.2956,65.8421
127.3913,65.8231
Z" /> 
<path style="fill:#000000; fill-opacity:1.0000; stroke:none;fill-rule:evenodd;"
d="M 128.2913,67.6481
128.3870,67.6671
128.4681,67.7213
128.5223,67.8024
128.5413,67.8981
128.5413,68.4231
128.5223,68.5188
128.4681,68.5999
128.3870,68.6541
128.2913,68.6731
127.3913,68.6731
127.2956,68.6541
127.2145,68.5999
127.1603,68.5188
127.1413,68.4231
127.1413,67.8981
127.1603,67.8024
127.2145,67.7213
127.2956,67.6671
127.3913,67.6481
Z" /> 
<path style="fill:#000000; fill-opacity:1.0000; stroke:none;fill-rule:evenodd;"
d="M 147.2000,66.9900
147.2957,67.0090
147.3768,67.0632
147.4310,67.1443
147.4500,67.2400
147.4500,68.1400
147.4310,68.2357
147.3768,68.3168
147.2957,68.3710
147.2000,68.3900
146.5000,68.3900
146.4043,68.3710
146.3232,68.3168
146.2690,68.2357
146.2500,68.1400
146.2500,67.2400
146.2690,67.1443
146.3232,67.0632
146.4043,67.0090
146.5000,66.9900
Z" /> 
<path style="fill:#000000; fill-opacity:1.0000; stroke:none;fill-rule:evenodd;"
d="M 147.2000,69.1900
147.2957,69.2090
147.3768,69.2632
147.4310,69.3443
147.4500,69.4400
147.4500,70.3400
147.4310,70.4357
147.3768,70.5168
147.2957,70.5710
147.2000,70.5900
146.5000,70.5900
146.4043,70.5710
146.3232,70.5168
146.2690,70.4357
146.2500,70.3400
146.2500,69.4400
146.2690,69.3443
146.3232,69.2632
146.4043,69.2090
146.5000,69.1900
Z" /> 
<path style="fill:#000000; fill-opacity:1.0000; stroke:none;fill-rule:evenodd;"
d="M 148.9000,69.1900
148.9957,69.2090
149.0768,69.2632
149.1310,69.3443
149.1500,69.4400
149.1500,70.3400
149.1310,70.4357
149.0768,70.5168
148.9957,70.5710
148.9000,70.5900
148.2000,70.5900
148.1043,70.5710
148.0232,70.5168
147.9690,70.4357
147.9500,70.3400
147.9500,69.4400
147.9690,69.3443
148.0232,69.2632
148.1043,69.2090
148.2000,69.1900
Z" /> 
<path style="fill:#000000; fill-opacity:1.0000; stroke:none;fill-rule:evenodd;"
d="M 148.9000,66.9900
148.9957,67.0090
149.0768,67.0632
149.1310,67.1443
149.1500,67.2400
149.1500,68.1400
149.1310,68.2357
149.0768,68.3168
148.9957,68.3710
148.9000,68.3900
148.2000,68.3900
148.1043,68.3710
148.0232,68.3168
147.9690,68.2357
147.9500,68.1400
147.9500,67.2400
147.9690,67.1443
148.0232,67.0632
148.1043,67.0090
148.2000,66.9900
Z" /> 
<path style="fill:#000000; fill-opacity:1.0000; stroke:none;fill-rule:evenodd;"
d="M 158.6650,58.5650
158.5693,58.5460
158.4882,58.4918
158.4340,58.4107
158.4150,58.3150
158.4150,57.8150
158.4340,57.7193
158.4882,57.6382
158.5693,57.5840
158.6650,57.5650
159.6150,57.5650
159.7107,57.5840
159.7918,57.6382
159.8460,57.7193
159.8650,57.8150
159.8650,58.3150
159.8460,58.4107
159.7918,58.4918
159.7107,58.5460
159.6150,58.5650
Z" /> 
<path style="fill:#000000; fill-opacity:1.0000; stroke:none;fill-rule:evenodd;"
d="M 158.6650,56.6650
158.5693,56.6460
158.4882,56.5918
158.4340,56.5107
158.4150,56.4150
158.4150,55.9150
158.4340,55.8193
158.4882,55.7382
158.5693,55.6840
158.6650,55.6650
159.6150,55.6650
159.7107,55.6840
159.7918,55.7382
159.8460,55.8193
159.8650,55.9150
159.8650,56.4150
159.8460,56.5107
159.7918,56.5918
159.7107,56.6460
159.6150,56.6650
Z" /> 
<path style="fill:#000000; fill-opacity:1.0000; stroke:none;fill-rule:evenodd;"
d="M 138.2900,33.6250
138.3090,33.5293
138.3632,33.4482
138.4443,33.3940
138.5400,33.3750
139.1900,33.3750
139.2857,33.3940
139.3668,33.4482
139.4210,33.5293
139.4400,33.6250
139.4400,34.9250
139.4210,35.0207
139.3668,35.1018
139.2857,35.1560
139.1900,35.1750
138.5400,35.1750
138.4443,35.1560
138.3632,35.1018
138.3090,35.0207
138.2900,34.9250
Z" /> 
<path style="fill:#000000; fill-opacity:1.0000; stroke:none;fill-rule:evenodd;"
d="M 141.2400,33.6250
141.2590,33.5293
141.3132,33.4482
141.3943,33.3940
141.4900,33.3750
142.1400,33.3750
142.2357,33.3940
142.3168,33.4482
142.3710,33.5293
142.3900,33.6250
142.3900,34.9250
142.3710,35.0207
142.3168,35.1018
142.2357,35.1560
142.1400,35.1750
141.4900,35.1750
141.3943,35.1560
141.3132,35.1018
141.2590,35.0207
141.2400,34.9250
Z" /> 
<path style="fill:#000000; fill-opacity:1.0000; stroke:none;fill-rule:evenodd;"
d="M 98.8900,47.8000
98.9090,47.7043
98.9632,47.6232
99.0443,47.5690
99.1400,47.5500
99.6400,47.5500
99.7357,47.5690
99.8168,47.6232
99.8710,47.7043
99.8900,47.8000
99.8900,48.7500
99.8710,48.8457
99.8168,48.9268
99.7357,48.9810
99.6400,49.0000
99.1400,49.0000
99.0443,48.9810
98.9632,48.9268
98.9090,48.8457
98.8900,48.7500
Z" /> 
<path style="fill:#000000; fill-opacity:1.0000; stroke:none;fill-rule:evenodd;"
d="M 100.7900,47.8000
100.8090,47.7043
100.8632,47.6232
100.9443,47.5690
101.0400,47.5500
101.5400,47.5500
101.6357,47.5690
101.7168,47.6232
101.7710,47.7043
101.7900,47.8000
101.7900,48.7500
101.7710,48.8457
101.7168,48.9268
101.6357,48.9810
101.5400,49.0000
101.0400,49.0000
100.9443,48.9810
100.8632,48.9268
100.8090,48.8457
100.7900,48.7500
Z" /> 
<path style="fill:#000000; fill-opacity:1.0000; stroke:none;fill-rule:evenodd;"
d="M 136.9900,34.7500
136.9710,34.8457
136.9168,34.9268
136.8357,34.9810
136.7400,35.0000
136.2400,35.0000
136.1443,34.9810
136.0632,34.9268
136.0090,34.8457
135.9900,34.7500
135.9900,33.8000
136.0090,33.7043
136.0632,33.6232
136.1443,33.5690
136.2400,33.5500
136.7400,33.5500
136.8357,33.5690
136.9168,33.6232
136.9710,33.7043
136.9900,33.8000
Z" /> 
<path style="fill:#000000; fill-opacity:1.0000; stroke:none;fill-rule:evenodd;"
d="M 135.0900,34.7500
135.0710,34.8457
135.0168,34.9268
134.9357,34.9810
134.8400,35.0000
134.3400,35.0000
134.2443,34.9810
134.1632,34.9268
134.1090,34.8457
134.0900,34.7500
134.0900,33.8000
134.1090,33.7043
134.1632,33.6232
134.2443,33.5690
134.3400,33.5500
134.8400,33.5500
134.9357,33.5690
135.0168,33.6232
135.0710,33.7043
135.0900,33.8000
Z" /> 
<path style="fill:#000000; fill-opacity:1.0000; stroke:none;fill-rule:evenodd;"
d="M 171.0600,37.4200
171.0600,38.4200
169.3600,38.4200
169.3600,37.4200
Z" /> 
<path style="fill:#000000; fill-opacity:1.0000; stroke:none;fill-rule:evenodd;"
d="M 164.7600,37.4200
164.7600,38.4200
163.0600,38.4200
163.0600,37.4200
Z" /> 
<path style="fill:#000000; fill-opacity:1.0000; stroke:none;fill-rule:evenodd;"
d="M 171.0600,33.6200
171.0600,34.6200
169.3600,34.6200
169.3600,33.6200
Z" /> 
<path style="fill:#000000; fill-opacity:1.0000; stroke:none;fill-rule:evenodd;"
d="M 164.7600,33.6200
164.7600,34.6200
163.0600,34.6200
163.0600,33.6200
Z" /> 
<path style="fill:#000000; fill-opacity:1.0000; stroke:none;fill-rule:evenodd;"
d="M 164.0400,92.6500
164.0400,91.0500
165.0400,91.0500
165.0400,92.6500
Z" /> 
<path style="fill:#000000; fill-opacity:1.0000; stroke:none;fill-rule:evenodd;"
d="M 166.5400,92.6500
166.5400,91.0500
167.5400,91.0500
167.5400,92.6500
Z" /> 
<path style="fill:#000000; fill-opacity:1.0000; stroke:none;fill-rule:evenodd;"
d="M 169.0400,92.6500
169.0400,91.0500
170.0400,91.0500
170.0400,92.6500
Z" /> 
<path style="fill:#000000; fill-opacity:1.0000; stroke:none;fill-rule:evenodd;"
d="M 164.0400,95.0500
164.0400,93.4500
165.0400,93.4500
165.0400,95.0500
Z" /> 
<path style="fill:#000000; fill-opacity:1.0000; stroke:none;fill-rule:evenodd;"
d="M 166.5400,95.0500
166.5400,93.4500
167.5400,93.4500
167.5400,95.0500
Z" /> 
<path style="fill:#000000; fill-opacity:1.0000; stroke:none;fill-rule:evenodd;"
d="M 169.0400,95.0500
169.0400,93.4500
170.0400,93.4500
170.0400,95.0500
Z" /> 
<path style="fill:#000000; fill-opacity:1.0000; stroke:none;fill-rule:evenodd;"
d="M 129.4850,60.1950
129.4660,60.2907
129.4118,60.3718
129.3307,60.4260
129.2350,60.4450
128.7350,60.4450
128.6393,60.4260
128.5582,60.3718
128.5040,60.2907
128.4850,60.1950
128.4850,59.2450
128.5040,59.1493
128.5582,59.0682
128.6393,59.0140
128.7350,58.9950
129.2350,58.9950
129.3307,59.0140
129.4118,59.0682
129.4660,59.1493
129.4850,59.2450
Z" /> 
<path style="fill:#000000; fill-opacity:1.0000; stroke:none;fill-rule:evenodd;"
d="M 127.5850,60.1950
127.5660,60.2907
127.5118,60.3718
127.4307,60.4260
127.3350,60.4450
126.8350,60.4450
126.7393,60.4260
126.6582,60.3718
126.6040,60.2907
126.5850,60.1950
126.5850,59.2450
126.6040,59.1493
126.6582,59.0682
126.7393,59.0140
126.8350,58.9950
127.3350,58.9950
127.4307,59.0140
127.5118,59.0682
127.5660,59.1493
127.5850,59.2450
Z" /> 
<path style="fill:#000000; fill-opacity:1.0000; stroke:none;fill-rule:evenodd;"
d="M 159.3250,75.7500
159.4207,75.7690
159.5018,75.8232
159.5560,75.9043
159.5750,76.0000
159.5750,76.5000
159.5560,76.5957
159.5018,76.6768
159.4207,76.7310
159.3250,76.7500
158.3750,76.7500
158.2793,76.7310
158.1982,76.6768
158.1440,76.5957
158.1250,76.5000
158.1250,76.0000
158.1440,75.9043
158.1982,75.8232
158.2793,75.7690
158.3750,75.7500
Z" /> 
<path style="fill:#000000; fill-opacity:1.0000; stroke:none;fill-rule:evenodd;"
d="M 159.3250,77.6500
159.4207,77.6690
159.5018,77.7232
159.5560,77.8043
159.5750,77.9000
159.5750,78.4000
159.5560,78.4957
159.5018,78.5768
159.4207,78.6310
159.3250,78.6500
158.3750,78.6500
158.2793,78.6310
158.1982,78.5768
158.1440,78.4957
158.1250,78.4000
158.1250,77.9000
158.1440,77.8043
158.1982,77.7232
158.2793,77.6690
158.3750,77.6500
Z" /> 
<path style="fill:#000000; fill-opacity:1.0000; stroke:none;fill-rule:evenodd;"
d="M 173.5050,48.6200
173.6007,48.6390
173.6818,48.6932
173.7360,48.7743
173.7550,48.8700
173.7550,49.3700
173.7360,49.4657
173.6818,49.5468
173.6007,49.6010
173.5050,49.6200
172.5550,49.6200
172.4593,49.6010
172.3782,49.5468
172.3240,49.4657
172.3050,49.3700
172.3050,48.8700
172.3240,48.7743
172.3782,48.6932
172.4593,48.6390
172.5550,48.6200
Z" /> 
<path style="fill:#000000; fill-opacity:1.0000; stroke:none;fill-rule:evenodd;"
d="M 173.5050,50.5200
173.6007,50.5390
173.6818,50.5932
173.7360,50.6743
173.7550,50.7700
173.7550,51.2700
173.7360,51.3657
173.6818,51.4468
173.6007,51.5010
173.5050,51.5200
172.5550,51.5200
172.4593,51.5010
172.3782,51.4468
172.3240,51.3657
172.3050,51.2700
172.3050,50.7700
172.3240,50.6743
172.3782,50.5932
172.4593,50.5390
172.5550,50.5200
Z" /> 
<path style="fill:#000000; fill-opacity:1.0000; stroke:none;fill-rule:evenodd;"
d="M 137.4300,73.1725
137.5257,73.1915
137.6068,73.2457
137.6610,73.3268
137.6800,73.4225
137.6800,73.9475
137.6610,74.0432
137.6068,74.1243
137.5257,74.1785
137.4300,74.1975
136.5300,74.1975
136.4343,74.1785
136.3532,74.1243
136.2990,74.0432
136.2800,73.9475
136.2800,73.4225
136.2990,73.3268
136.3532,73.2457
136.4343,73.1915
136.5300,73.1725
Z" /> 
<path style="fill:#000000; fill-opacity:1.0000; stroke:none;fill-rule:evenodd;"
d="M 137.4300,74.9975
137.5257,75.0165
137.6068,75.0707
137.6610,75.1518
137.6800,75.2475
137.6800,75.7725
137.6610,75.8682
137.6068,75.9493
137.5257,76.0035
137.4300,76.0225
136.5300,76.0225
136.4343,76.0035
136.3532,75.9493
136.2990,75.8682
136.2800,75.7725
136.2800,75.2475
136.2990,75.1518
136.3532,75.0707
136.4343,75.0165
136.5300,74.9975
Z" /> 
<path style="fill:#000000; fill-opacity:1.0000; stroke:none;fill-rule:evenodd;"
d="M 133.4250,93.1400
133.4440,93.0443
133.4982,92.9632
133.5793,92.9090
133.6750,92.8900
134.2000,92.8900
134.2957,92.9090
134.3768,92.9632
134.4310,93.0443
134.4500,93.1400
134.4500,94.0400
134.4310,94.1357
134.3768,94.2168
134.2957,94.2710
134.2000,94.2900
133.6750,94.2900
133.5793,94.2710
133.4982,94.2168
133.4440,94.1357
133.4250,94.0400
Z" /> 
<path style="fill:#000000; fill-opacity:1.0000; stroke:none;fill-rule:evenodd;"
d="M 135.2500,93.1400
135.2690,93.0443
135.3232,92.9632
135.4043,92.9090
135.5000,92.8900
136.0250,92.8900
136.1207,92.9090
136.2018,92.9632
136.2560,93.0443
136.2750,93.1400
136.2750,94.0400
136.2560,94.1357
136.2018,94.2168
136.1207,94.2710
136.0250,94.2900
135.5000,94.2900
135.4043,94.2710
135.3232,94.2168
135.2690,94.1357
135.2500,94.0400
Z" /> 
<path style="fill:#000000; fill-opacity:1.0000; stroke:none;fill-rule:evenodd;"
d="M 122.4150,49.0250
122.5107,49.0440
122.5918,49.0982
122.6460,49.1793
122.6650,49.2750
122.6650,49.7750
122.6460,49.8707
122.5918,49.9518
122.5107,50.0060
122.4150,50.0250
121.4650,50.0250
121.3693,50.0060
121.2882,49.9518
121.2340,49.8707
121.2150,49.7750
121.2150,49.2750
121.2340,49.1793
121.2882,49.0982
121.3693,49.0440
121.4650,49.0250
Z" /> 
<path style="fill:#000000; fill-opacity:1.0000; stroke:none;fill-rule:evenodd;"
d="M 122.4150,50.9250
122.5107,50.9440
122.5918,50.9982
122.6460,51.0793
122.6650,51.1750
122.6650,51.6750
122.6460,51.7707
122.5918,51.8518
122.5107,51.9060
122.4150,51.9250
121.4650,51.9250
121.3693,51.9060
121.2882,51.8518
121.2340,51.7707
121.2150,51.6750
121.2150,51.1750
121.2340,51.0793
121.2882,50.9982
121.3693,50.9440
121.4650,50.9250
Z" /> 
<path style="fill:#000000; fill-opacity:1.0000; stroke:none;fill-rule:evenodd;"
d="M 117.3200,46.2750
118.3200,46.2750
118.3200,48.2750
117.3200,48.2750
Z" /> 
<path style="fill:#000000; fill-opacity:1.0000; stroke:none;fill-rule:evenodd;"
d="M 115.5400,50.2750
118.3400,50.2750
118.3400,52.2750
115.5400,52.2750
Z" /> 
<path style="fill:#000000; fill-opacity:1.0000; stroke:none;fill-rule:evenodd;"
d="M 115.5600,46.2750
116.5600,46.2750
116.5600,48.2750
115.5600,48.2750
Z" /> 
<path style="fill:#000000; fill-opacity:1.0000; stroke:none;fill-rule:evenodd;"
d="M 146.6400,63.0650
146.6210,63.1607
146.5668,63.2418
146.4857,63.2960
146.3900,63.3150
145.8900,63.3150
145.7943,63.2960
145.7132,63.2418
145.6590,63.1607
145.6400,63.0650
145.6400,62.1150
145.6590,62.0193
145.7132,61.9382
145.7943,61.8840
145.8900,61.8650
146.3900,61.8650
146.4857,61.8840
146.5668,61.9382
146.6210,62.0193
146.6400,62.1150
Z" /> 
<path style="fill:#000000; fill-opacity:1.0000; stroke:none;fill-rule:evenodd;"
d="M 144.7400,63.0650
144.7210,63.1607
144.6668,63.2418
144.5857,63.2960
144.4900,63.3150
143.9900,63.3150
143.8943,63.2960
143.8132,63.2418
143.7590,63.1607
143.7400,63.0650
143.7400,62.1150
143.7590,62.0193
143.8132,61.9382
143.8943,61.8840
143.9900,61.8650
144.4900,61.8650
144.5857,61.8840
144.6668,61.9382
144.7210,62.0193
144.7400,62.1150
Z" /> 
<path style="fill:#000000; fill-opacity:1.0000; stroke:none;fill-rule:evenodd;"
d="M 133.3400,39.2750
133.3590,39.1793
133.4132,39.0982
133.4943,39.0440
133.5900,39.0250
136.5900,39.0250
136.6857,39.0440
136.7668,39.0982
136.8210,39.1793
136.8400,39.2750
136.8400,41.2750
136.8210,41.3707
136.7668,41.4518
136.6857,41.5060
136.5900,41.5250
133.5900,41.5250
133.4943,41.5060
133.4132,41.4518
133.3590,41.3707
133.3400,41.2750
Z" /> 
<path style="fill:#000000; fill-opacity:1.0000; stroke:none;fill-rule:evenodd;"
d="M 139.8400,39.2750
139.8590,39.1793
139.9132,39.0982
139.9943,39.0440
140.0900,39.0250
143.0900,39.0250
143.1857,39.0440
143.2668,39.0982
143.3210,39.1793
143.3400,39.2750
143.3400,41.2750
143.3210,41.3707
143.2668,41.4518
143.1857,41.5060
143.0900,41.5250
140.0900,41.5250
139.9943,41.5060
139.9132,41.4518
139.8590,41.3707
139.8400,41.2750
Z" /> 
<path style="fill:#000000; fill-opacity:1.0000; stroke:none;fill-rule:evenodd;"
d="M 113.3400,50.4750
113.3210,50.5707
113.2668,50.6518
113.1857,50.7060
113.0900,50.7250
110.0900,50.7250
109.9943,50.7060
109.9132,50.6518
109.8590,50.5707
109.8400,50.4750
109.8400,48.4750
109.8590,48.3793
109.9132,48.2982
109.9943,48.2440
110.0900,48.2250
113.0900,48.2250
113.1857,48.2440
113.2668,48.2982
113.3210,48.3793
113.3400,48.4750
Z" /> 
<path style="fill:#000000; fill-opacity:1.0000; stroke:none;fill-rule:evenodd;"
d="M 106.8400,50.4750
106.8210,50.5707
106.7668,50.6518
106.6857,50.7060
106.5900,50.7250
103.5900,50.7250
103.4943,50.7060
103.4132,50.6518
103.3590,50.5707
103.3400,50.4750
103.3400,48.4750
103.3590,48.3793
103.4132,48.2982
103.4943,48.2440
103.5900,48.2250
106.5900,48.2250
106.6857,48.2440
106.7668,48.2982
106.8210,48.3793
106.8400,48.4750
Z" /> 
<path style="fill:#000000; fill-opacity:1.0000; stroke:none;fill-rule:evenodd;"
d="M 175.5200,48.0775
175.5314,48.0201
175.5639,47.9714
175.6126,47.9389
175.6700,47.9275
177.3200,47.9275
177.3774,47.9389
177.4261,47.9714
177.4586,48.0201
177.4700,48.0775
177.4700,48.3775
177.4586,48.4349
177.4261,48.4836
177.3774,48.5161
177.3200,48.5275
175.6700,48.5275
175.6126,48.5161
175.5639,48.4836
175.5314,48.4349
175.5200,48.3775
Z" /> 
<path style="fill:#000000; fill-opacity:1.0000; stroke:none;fill-rule:evenodd;"
d="M 175.5200,49.3475
175.5314,49.2901
175.5639,49.2414
175.6126,49.2089
175.6700,49.1975
177.3200,49.1975
177.3774,49.2089
177.4261,49.2414
177.4586,49.2901
177.4700,49.3475
177.4700,49.6475
177.4586,49.7049
177.4261,49.7536
177.3774,49.7861
177.3200,49.7975
175.6700,49.7975
175.6126,49.7861
175.5639,49.7536
175.5314,49.7049
175.5200,49.6475
Z" /> 
<path style="fill:#000000; fill-opacity:1.0000; stroke:none;fill-rule:evenodd;"
d="M 175.5200,50.6175
175.5314,50.5601
175.5639,50.5114
175.6126,50.4789
175.6700,50.4675
177.3200,50.4675
177.3774,50.4789
177.4261,50.5114
177.4586,50.5601
177.4700,50.6175
177.4700,50.9175
177.4586,50.9749
177.4261,51.0236
177.3774,51.0561
177.3200,51.0675
175.6700,51.0675
175.6126,51.0561
175.5639,51.0236
175.5314,50.9749
175.5200,50.9175
Z" /> 
<path style="fill:#000000; fill-opacity:1.0000; stroke:none;fill-rule:evenodd;"
d="M 175.5200,51.8875
175.5314,51.8301
175.5639,51.7814
175.6126,51.7489
175.6700,51.7375
177.3200,51.7375
177.3774,51.7489
177.4261,51.7814
177.4586,51.8301
177.4700,51.8875
177.4700,52.1875
177.4586,52.2449
177.4261,52.2936
177.3774,52.3261
177.3200,52.3375
175.6700,52.3375
175.6126,52.3261
175.5639,52.2936
175.5314,52.2449
175.5200,52.1875
Z" /> 
<path style="fill:#000000; fill-opacity:1.0000; stroke:none;fill-rule:evenodd;"
d="M 180.4700,51.8875
180.4814,51.8301
180.5139,51.7814
180.5626,51.7489
180.6200,51.7375
182.2700,51.7375
182.3274,51.7489
182.3761,51.7814
182.4086,51.8301
182.4200,51.8875
182.4200,52.1875
182.4086,52.2449
182.3761,52.2936
182.3274,52.3261
182.2700,52.3375
180.6200,52.3375
180.5626,52.3261
180.5139,52.2936
180.4814,52.2449
180.4700,52.1875
Z" /> 
<path style="fill:#000000; fill-opacity:1.0000; stroke:none;fill-rule:evenodd;"
d="M 180.4700,50.6175
180.4814,50.5601
180.5139,50.5114
180.5626,50.4789
180.6200,50.4675
182.2700,50.4675
182.3274,50.4789
182.3761,50.5114
182.4086,50.5601
182.4200,50.6175
182.4200,50.9175
182.4086,50.9749
182.3761,51.0236
182.3274,51.0561
182.2700,51.0675
180.6200,51.0675
180.5626,51.0561
180.5139,51.0236
180.4814,50.9749
180.4700,50.9175
Z" /> 
<path style="fill:#000000; fill-opacity:1.0000; stroke:none;fill-rule:evenodd;"
d="M 180.4700,49.3475
180.4814,49.2901
180.5139,49.2414
180.5626,49.2089
180.6200,49.1975
182.2700,49.1975
182.3274,49.2089
182.3761,49.2414
182.4086,49.2901
182.4200,49.3475
182.4200,49.6475
182.4086,49.7049
182.3761,49.7536
182.3274,49.7861
182.2700,49.7975
180.6200,49.7975
180.5626,49.7861
180.5139,49.7536
180.4814,49.7049
180.4700,49.6475
Z" /> 
<path style="fill:#000000; fill-opacity:1.0000; stroke:none;fill-rule:evenodd;"
d="M 180.4700,48.0775
180.4814,48.0201
180.5139,47.9714
180.5626,47.9389
180.6200,47.9275
182.2700,47.9275
182.3274,47.9389
182.3761,47.9714
182.4086,48.0201
182.4200,48.0775
182.4200,48.3775
182.4086,48.4349
182.3761,48.4836
182.3274,48.5161
182.2700,48.5275
180.6200,48.5275
180.5626,48.5161
180.5139,48.4836
180.4814,48.4349
180.4700,48.3775
Z" /> 
<path style="fill:#000000; fill-opacity:1.0000; stroke:none;fill-rule:evenodd;"
d="M 121.4000,76.9750
121.3810,77.0707
121.3268,77.1518
121.2457,77.2060
121.1500,77.2250
120.6500,77.2250
120.5543,77.2060
120.4732,77.1518
120.4190,77.0707
120.4000,76.9750
120.4000,76.0250
120.4190,75.9293
120.4732,75.8482
120.5543,75.7940
120.6500,75.7750
121.1500,75.7750
121.2457,75.7940
121.3268,75.8482
121.3810,75.9293
121.4000,76.0250
Z" /> 
<path style="fill:#000000; fill-opacity:1.0000; stroke:none;fill-rule:evenodd;"
d="M 119.5000,76.9750
119.4810,77.0707
119.4268,77.1518
119.3457,77.2060
119.2500,77.2250
118.7500,77.2250
118.6543,77.2060
118.5732,77.1518
118.5190,77.0707
118.5000,76.9750
118.5000,76.0250
118.5190,75.9293
118.5732,75.8482
118.6543,75.7940
118.7500,75.7750
119.2500,75.7750
119.3457,75.7940
119.4268,75.8482
119.4810,75.9293
119.5000,76.0250
Z" /> 
<path style="fill:#000000; fill-opacity:1.0000; stroke:none;fill-rule:evenodd;"
d="M 187.1800,48.7425
187.2757,48.7615
187.3568,48.8157
187.4110,48.8968
187.4300,48.9925
187.4300,49.5175
187.4110,49.6132
187.3568,49.6943
187.2757,49.7485
187.1800,49.7675
186.2800,49.7675
186.1843,49.7485
186.1032,49.6943
186.0490,49.6132
186.0300,49.5175
186.0300,48.9925
186.0490,48.8968
186.1032,48.8157
186.1843,48.7615
186.2800,48.7425
Z" /> 
<path style="fill:#000000; fill-opacity:1.0000; stroke:none;fill-rule:evenodd;"
d="M 187.1800,50.5675
187.2757,50.5865
187.3568,50.6407
187.4110,50.7218
187.4300,50.8175
187.4300,51.3425
187.4110,51.4382
187.3568,51.5193
187.2757,51.5735
187.1800,51.5925
186.2800,51.5925
186.1843,51.5735
186.1032,51.5193
186.0490,51.4382
186.0300,51.3425
186.0300,50.8175
186.0490,50.7218
186.1032,50.6407
186.1843,50.5865
186.2800,50.5675
Z" /> 
<path style="fill:#000000; fill-opacity:1.0000; stroke:none;fill-rule:evenodd;"
d="M 137.1800,81.2425
137.2757,81.2615
137.3568,81.3157
137.4110,81.3968
137.4300,81.4925
137.4300,82.0175
137.4110,82.1132
137.3568,82.1943
137.2757,82.2485
137.1800,82.2675
136.2800,82.2675
136.1843,82.2485
136.1032,82.1943
136.0490,82.1132
136.0300,82.0175
136.0300,81.4925
136.0490,81.3968
136.1032,81.3157
136.1843,81.2615
136.2800,81.2425
Z" /> 
<path style="fill:#000000; fill-opacity:1.0000; stroke:none;fill-rule:evenodd;"
d="M 137.1800,83.0675
137.2757,83.0865
137.3568,83.1407
137.4110,83.2218
137.4300,83.3175
137.4300,83.8425
137.4110,83.9382
137.3568,84.0193
137.2757,84.0735
137.1800,84.0925
136.2800,84.0925
136.1843,84.0735
136.1032,84.0193
136.0490,83.9382
136.0300,83.8425
136.0300,83.3175
136.0490,83.2218
136.1032,83.1407
136.1843,83.0865
136.2800,83.0675
Z" /> 
<path style="fill:#000000; fill-opacity:1.0000; stroke:none;fill-rule:evenodd;"
d="M 130.2500,79.3950
130.2310,79.4907
130.1768,79.5718
130.0957,79.6260
130.0000,79.6450
129.5000,79.6450
129.4043,79.6260
129.3232,79.5718
129.2690,79.4907
129.2500,79.3950
129.2500,78.4450
129.2690,78.3493
129.3232,78.2682
129.4043,78.2140
129.5000,78.1950
130.0000,78.1950
130.0957,78.2140
130.1768,78.2682
130.2310,78.3493
130.2500,78.4450
Z" /> 
<path style="fill:#000000; fill-opacity:1.0000; stroke:none;fill-rule:evenodd;"
d="M 128.3500,79.3950
128.3310,79.4907
128.2768,79.5718
128.1957,79.6260
128.1000,79.6450
127.6000,79.6450
127.5043,79.6260
127.4232,79.5718
127.3690,79.4907
127.3500,79.3950
127.3500,78.4450
127.3690,78.3493
127.4232,78.2682
127.5043,78.2140
127.6000,78.1950
128.1000,78.1950
128.1957,78.2140
128.2768,78.2682
128.3310,78.3493
128.3500,78.4450
Z" /> 
<path style="fill:#000000; fill-opacity:1.0000; stroke:none;fill-rule:evenodd;"
d="M 182.0025,46.0200
181.9835,46.1157
181.9293,46.1968
181.8482,46.2510
181.7525,46.2700
181.2275,46.2700
181.1318,46.2510
181.0507,46.1968
180.9965,46.1157
180.9775,46.0200
180.9775,45.1200
180.9965,45.0243
181.0507,44.9432
181.1318,44.8890
181.2275,44.8700
181.7525,44.8700
181.8482,44.8890
181.9293,44.9432
181.9835,45.0243
182.0025,45.1200
Z" /> 
<path style="fill:#000000; fill-opacity:1.0000; stroke:none;fill-rule:evenodd;"
d="M 180.1775,46.0200
180.1585,46.1157
180.1043,46.1968
180.0232,46.2510
179.9275,46.2700
179.4025,46.2700
179.3068,46.2510
179.2257,46.1968
179.1715,46.1157
179.1525,46.0200
179.1525,45.1200
179.1715,45.0243
179.2257,44.9432
179.3068,44.8890
179.4025,44.8700
179.9275,44.8700
180.0232,44.8890
180.1043,44.9432
180.1585,45.0243
180.1775,45.1200
Z" /> 
<path style="fill:#000000; fill-opacity:1.0000; stroke:none;fill-rule:evenodd;"
d="M 155.3000,85.2750
155.2810,85.3707
155.2268,85.4518
155.1457,85.5060
155.0500,85.5250
154.5500,85.5250
154.4543,85.5060
154.3732,85.4518
154.3190,85.3707
154.3000,85.2750
154.3000,84.3250
154.3190,84.2293
154.3732,84.1482
154.4543,84.0940
154.5500,84.0750
155.0500,84.0750
155.1457,84.0940
155.2268,84.1482
155.2810,84.2293
155.3000,84.3250
Z" /> 
<path style="fill:#000000; fill-opacity:1.0000; stroke:none;fill-rule:evenodd;"
d="M 153.4000,85.2750
153.3810,85.3707
153.3268,85.4518
153.2457,85.5060
153.1500,85.5250
152.6500,85.5250
152.5543,85.5060
152.4732,85.4518
152.4190,85.3707
152.4000,85.2750
152.4000,84.3250
152.4190,84.2293
152.4732,84.1482
152.5543,84.0940
152.6500,84.0750
153.1500,84.0750
153.2457,84.0940
153.3268,84.1482
153.3810,84.2293
153.4000,84.3250
Z" /> 
<path style="fill:#000000; fill-opacity:1.0000; stroke:none;fill-rule:evenodd;"
d="M 166.1450,41.7400
166.1260,41.8357
166.0718,41.9168
165.9907,41.9710
165.8950,41.9900
165.3700,41.9900
165.2743,41.9710
165.1932,41.9168
165.1390,41.8357
165.1200,41.7400
165.1200,40.8400
165.1390,40.7443
165.1932,40.6632
165.2743,40.6090
165.3700,40.5900
165.8950,40.5900
165.9907,40.6090
166.0718,40.6632
166.1260,40.7443
166.1450,40.8400
Z" /> 
<path style="fill:#000000; fill-opacity:1.0000; stroke:none;fill-rule:evenodd;"
d="M 164.3200,41.7400
164.3010,41.8357
164.2468,41.9168
164.1657,41.9710
164.0700,41.9900
163.5450,41.9900
163.4493,41.9710
163.3682,41.9168
163.3140,41.8357
163.2950,41.7400
163.2950,40.8400
163.3140,40.7443
163.3682,40.6632
163.4493,40.6090
163.5450,40.5900
164.0700,40.5900
164.1657,40.6090
164.2468,40.6632
164.3010,40.7443
164.3200,40.8400
Z" /> 
<path style="fill:#000000; fill-opacity:1.0000; stroke:none;fill-rule:evenodd;"
d="M 144.8450,67.9800
144.8279,68.0661
144.7791,68.1391
144.7061,68.1879
144.6200,68.2050
144.1700,68.2050
144.0839,68.1879
144.0109,68.1391
143.9621,68.0661
143.9450,67.9800
143.9450,67.4800
143.9621,67.3939
144.0109,67.3209
144.0839,67.2721
144.1700,67.2550
144.6200,67.2550
144.7061,67.2721
144.7791,67.3209
144.8279,67.3939
144.8450,67.4800
Z" /> 
<path style="fill:#000000; fill-opacity:1.0000; stroke:none;fill-rule:evenodd;"
d="M 143.2950,67.9800
143.2779,68.0661
143.2291,68.1391
143.1561,68.1879
143.0700,68.2050
142.6200,68.2050
142.5339,68.1879
142.4609,68.1391
142.4121,68.0661
142.3950,67.9800
142.3950,67.4800
142.4121,67.3939
142.4609,67.3209
142.5339,67.2721
142.6200,67.2550
143.0700,67.2550
143.1561,67.2721
143.2291,67.3209
143.2779,67.3939
143.2950,67.4800
Z" /> 
<path style="fill:#000000; fill-opacity:1.0000; stroke:none;fill-rule:evenodd;"
d="M 163.2750,87.8400
163.2940,87.7443
163.3482,87.6632
163.4293,87.6090
163.5250,87.5900
164.0500,87.5900
164.1457,87.6090
164.2268,87.6632
164.2810,87.7443
164.3000,87.8400
164.3000,88.7400
164.2810,88.8357
164.2268,88.9168
164.1457,88.9710
164.0500,88.9900
163.5250,88.9900
163.4293,88.9710
163.3482,88.9168
163.2940,88.8357
163.2750,88.7400
Z" /> 
<path style="fill:#000000; fill-opacity:1.0000; stroke:none;fill-rule:evenodd;"
d="M 165.1000,87.8400
165.1190,87.7443
165.1732,87.6632
165.2543,87.6090
165.3500,87.5900
165.8750,87.5900
165.9707,87.6090
166.0518,87.6632
166.1060,87.7443
166.1250,87.8400
166.1250,88.7400
166.1060,88.8357
166.0518,88.9168
165.9707,88.9710
165.8750,88.9900
165.3500,88.9900
165.2543,88.9710
165.1732,88.9168
165.1190,88.8357
165.1000,88.7400
Z" /> 
<path style="fill:#000000; fill-opacity:1.0000; stroke:none;fill-rule:evenodd;"
d="M 105.1950,75.8000
105.2140,75.7043
105.2682,75.6232
105.3493,75.5690
105.4450,75.5500
106.0950,75.5500
106.1907,75.5690
106.2718,75.6232
106.3260,75.7043
106.3450,75.8000
106.3450,77.1000
106.3260,77.1957
106.2718,77.2768
106.1907,77.3310
106.0950,77.3500
105.4450,77.3500
105.3493,77.3310
105.2682,77.2768
105.2140,77.1957
105.1950,77.1000
Z" /> 
<path style="fill:#000000; fill-opacity:1.0000; stroke:none;fill-rule:evenodd;"
d="M 108.1450,75.8000
108.1640,75.7043
108.2182,75.6232
108.2993,75.5690
108.3950,75.5500
109.0450,75.5500
109.1407,75.5690
109.2218,75.6232
109.2760,75.7043
109.2950,75.8000
109.2950,77.1000
109.2760,77.1957
109.2218,77.2768
109.1407,77.3310
109.0450,77.3500
108.3950,77.3500
108.2993,77.3310
108.2182,77.2768
108.1640,77.1957
108.1450,77.1000
Z" /> 
<path style="fill:#000000; fill-opacity:1.0000; stroke:none;fill-rule:evenodd;"
d="M 100.3600,45.6750
99.3600,45.6750
99.3600,43.6750
100.3600,43.6750
Z" /> 
<path style="fill:#000000; fill-opacity:1.0000; stroke:none;fill-rule:evenodd;"
d="M 102.1400,41.6750
99.3400,41.6750
99.3400,39.6750
102.1400,39.6750
Z" /> 
<path style="fill:#000000; fill-opacity:1.0000; stroke:none;fill-rule:evenodd;"
d="M 102.1200,45.6750
101.1200,45.6750
101.1200,43.6750
102.1200,43.6750
Z" /> 
<path style="fill:#000000; fill-opacity:1.0000; stroke:none;fill-rule:evenodd;"
d="M 102.1900,32.9750
102.2857,32.9940
102.3668,33.0482
102.4210,33.1293
102.4400,33.2250
102.4400,33.8500
102.4210,33.9457
102.3668,34.0268
102.2857,34.0810
102.1900,34.1000
99.2900,34.1000
99.1943,34.0810
99.1132,34.0268
99.0590,33.9457
99.0400,33.8500
99.0400,33.2250
99.0590,33.1293
99.1132,33.0482
99.1943,32.9940
99.2900,32.9750
Z" /> 
<path style="fill:#000000; fill-opacity:1.0000; stroke:none;fill-rule:evenodd;"
d="M 102.1900,37.2500
102.2857,37.2690
102.3668,37.3232
102.4210,37.4043
102.4400,37.5000
102.4400,38.1250
102.4210,38.2207
102.3668,38.3018
102.2857,38.3560
102.1900,38.3750
99.2900,38.3750
99.1943,38.3560
99.1132,38.3018
99.0590,38.2207
99.0400,38.1250
99.0400,37.5000
99.0590,37.4043
99.1132,37.3232
99.1943,37.2690
99.2900,37.2500
Z" /> 
<path style="fill:#000000; fill-opacity:1.0000; stroke:none;fill-rule:evenodd;"
d="M 176.1125,87.8800
176.1315,87.7843
176.1857,87.7032
176.2668,87.6490
176.3625,87.6300
176.8875,87.6300
176.9832,87.6490
177.0643,87.7032
177.1185,87.7843
177.1375,87.8800
177.1375,88.7800
177.1185,88.8757
177.0643,88.9568
176.9832,89.0110
176.8875,89.0300
176.3625,89.0300
176.2668,89.0110
176.1857,88.9568
176.1315,88.8757
176.1125,88.7800
Z" /> 
<path style="fill:#000000; fill-opacity:1.0000; stroke:none;fill-rule:evenodd;"
d="M 177.9375,87.8800
177.9565,87.7843
178.0107,87.7032
178.0918,87.6490
178.1875,87.6300
178.7125,87.6300
178.8082,87.6490
178.8893,87.7032
178.9435,87.7843
178.9625,87.8800
178.9625,88.7800
178.9435,88.8757
178.8893,88.9568
178.8082,89.0110
178.7125,89.0300
178.1875,89.0300
178.0918,89.0110
178.0107,88.9568
177.9565,88.8757
177.9375,88.7800
Z" /> 
<path style="fill:#000000; fill-opacity:1.0000; stroke:none;fill-rule:evenodd;"
d="M 159.4500,85.9250
159.3543,85.9060
159.2732,85.8518
159.2190,85.7707
159.2000,85.6750
159.2000,85.1500
159.2190,85.0543
159.2732,84.9732
159.3543,84.9190
159.4500,84.9000
160.3500,84.9000
160.4457,84.9190
160.5268,84.9732
160.5810,85.0543
160.6000,85.1500
160.6000,85.6750
160.5810,85.7707
160.5268,85.8518
160.4457,85.9060
160.3500,85.9250
Z" /> 
<path style="fill:#000000; fill-opacity:1.0000; stroke:none;fill-rule:evenodd;"
d="M 159.4500,84.1000
159.3543,84.0810
159.2732,84.0268
159.2190,83.9457
159.2000,83.8500
159.2000,83.3250
159.2190,83.2293
159.2732,83.1482
159.3543,83.0940
159.4500,83.0750
160.3500,83.0750
160.4457,83.0940
160.5268,83.1482
160.5810,83.2293
160.6000,83.3250
160.6000,83.8500
160.5810,83.9457
160.5268,84.0268
160.4457,84.0810
160.3500,84.1000
Z" /> 
<path style="fill:#000000; fill-opacity:1.0000; stroke:none;fill-rule:evenodd;"
d="M 123.8650,94.4050
122.5150,94.4050
122.5150,93.7450
123.8650,93.7450
Z" /> 
<path style="fill:#000000; fill-opacity:1.0000; stroke:none;fill-rule:evenodd;"
d="M 123.8650,93.4050
122.5150,93.4050
122.5150,92.7450
123.8650,92.7450
Z" /> 
<path style="fill:#000000; fill-opacity:1.0000; stroke:none;fill-rule:evenodd;"
d="M 123.8650,92.4050
122.5150,92.4050
122.5150,91.7450
123.8650,91.7450
Z" /> 
<path style="fill:#000000; fill-opacity:1.0000; stroke:none;fill-rule:evenodd;"
d="M 123.8650,91.4050
122.5150,91.4050
122.5150,90.7450
123.8650,90.7450
Z" /> 
<path style="fill:#000000; fill-opacity:1.0000; stroke:none;fill-rule:evenodd;"
d="M 123.8650,90.4050
122.5150,90.4050
122.5150,89.7450
123.8650,89.7450
Z" /> 
<path style="fill:#000000; fill-opacity:1.0000; stroke:none;fill-rule:evenodd;"
d="M 123.8650,89.4050
122.5150,89.4050
122.5150,88.7450
123.8650,88.7450
Z" /> 
<path style="fill:#000000; fill-opacity:1.0000; stroke:none;fill-rule:evenodd;"
d="M 123.8650,88.4050
122.5150,88.4050
122.5150,87.7450
123.8650,87.7450
Z" /> 
<path style="fill:#000000; fill-opacity:1.0000; stroke:none;fill-rule:evenodd;"
d="M 123.8650,87.4050
122.5150,87.4050
122.5150,86.7450
123.8650,86.7450
Z" /> 
<path style="fill:#000000; fill-opacity:1.0000; stroke:none;fill-rule:evenodd;"
d="M 123.8650,86.4050
122.5150,86.4050
122.5150,85.7450
123.8650,85.7450
Z" /> 
<path style="fill:#000000; fill-opacity:1.0000; stroke:none;fill-rule:evenodd;"
d="M 123.8650,85.4050
122.5150,85.4050
122.5150,84.7450
123.8650,84.7450
Z" /> 
<path style="fill:#000000; fill-opacity:1.0000; stroke:none;fill-rule:evenodd;"
d="M 123.8650,84.4050
122.5150,84.4050
122.5150,83.7450
123.8650,83.7450
Z" /> 
<path style="fill:#000000; fill-opacity:1.0000; stroke:none;fill-rule:evenodd;"
d="M 123.8650,83.4050
122.5150,83.4050
122.5150,82.7450
123.8650,82.7450
Z" /> 
<path style="fill:#000000; fill-opacity:1.0000; stroke:none;fill-rule:evenodd;"
d="M 123.8650,82.4050
122.5150,82.4050
122.5150,81.7450
123.8650,81.7450
Z" /> 
<path style="fill:#000000; fill-opacity:1.0000; stroke:none;fill-rule:evenodd;"
d="M 123.8650,81.4050
122.5150,81.4050
122.5150,80.7450
123.8650,80.7450
Z" /> 
<path style="fill:#000000; fill-opacity:1.0000; stroke:none;fill-rule:evenodd;"
d="M 123.8650,80.4050
122.5150,80.4050
122.5150,79.7450
123.8650,79.7450
Z" /> 
<path style="fill:#000000; fill-opacity:1.0000; stroke:none;fill-rule:evenodd;"
d="M 105.6150,80.4050
104.2650,80.4050
104.2650,79.7450
105.6150,79.7450
Z" /> 
<path style="fill:#000000; fill-opacity:1.0000; stroke:none;fill-rule:evenodd;"
d="M 105.6150,81.4050
104.2650,81.4050
104.2650,80.7450
105.6150,80.7450
Z" /> 
<path style="fill:#000000; fill-opacity:1.0000; stroke:none;fill-rule:evenodd;"
d="M 105.6150,82.4050
104.2650,82.4050
104.2650,81.7450
105.6150,81.7450
Z" /> 
<path style="fill:#000000; fill-opacity:1.0000; stroke:none;fill-rule:evenodd;"
d="M 105.6150,83.4050
104.2650,83.4050
104.2650,82.7450
105.6150,82.7450
Z" /> 
<path style="fill:#000000; fill-opacity:1.0000; stroke:none;fill-rule:evenodd;"
d="M 105.6150,84.4050
104.2650,84.4050
104.2650,83.7450
105.6150,83.7450
Z" /> 
<path style="fill:#000000; fill-opacity:1.0000; stroke:none;fill-rule:evenodd;"
d="M 105.6150,85.4050
104.2650,85.4050
104.2650,84.7450
105.6150,84.7450
Z" /> 
<path style="fill:#000000; fill-opacity:1.0000; stroke:none;fill-rule:evenodd;"
d="M 105.6150,86.4050
104.2650,86.4050
104.2650,85.7450
105.6150,85.7450
Z" /> 
<path style="fill:#000000; fill-opacity:1.0000; stroke:none;fill-rule:evenodd;"
d="M 105.6150,87.4050
104.2650,87.4050
104.2650,86.7450
105.6150,86.7450
Z" /> 
<path style="fill:#000000; fill-opacity:1.0000; stroke:none;fill-rule:evenodd;"
d="M 105.6150,88.4050
104.2650,88.4050
104.2650,87.7450
105.6150,87.7450
Z" /> 
<path style="fill:#000000; fill-opacity:1.0000; stroke:none;fill-rule:evenodd;"
d="M 105.6150,89.4050
104.2650,89.4050
104.2650,88.7450
105.6150,88.7450
Z" /> 
<path style="fill:#000000; fill-opacity:1.0000; stroke:none;fill-rule:evenodd;"
d="M 105.6150,90.4050
104.2650,90.4050
104.2650,89.7450
105.6150,89.7450
Z" /> 
<path style="fill:#000000; fill-opacity:1.0000; stroke:none;fill-rule:evenodd;"
d="M 105.6150,91.4050
104.2650,91.4050
104.2650,90.7450
105.6150,90.7450
Z" /> 
<path style="fill:#000000; fill-opacity:1.0000; stroke:none;fill-rule:evenodd;"
d="M 105.6150,92.4050
104.2650,92.4050
104.2650,91.7450
105.6150,91.7450
Z" /> 
<path style="fill:#000000; fill-opacity:1.0000; stroke:none;fill-rule:evenodd;"
d="M 105.6150,93.4050
104.2650,93.4050
104.2650,92.7450
105.6150,92.7450
Z" /> 
<path style="fill:#000000; fill-opacity:1.0000; stroke:none;fill-rule:evenodd;"
d="M 105.6150,94.4050
104.2650,94.4050
104.2650,93.7450
105.6150,93.7450
Z" /> 
<path style="fill:#000000; fill-opacity:1.0000; stroke:none;fill-rule:evenodd;"
d="M 119.7400,81.9250
119.7400,92.2250
114.4900,92.2250
114.4900,81.9250
Z" /> 
<path style="fill:#000000; fill-opacity:1.0000; stroke:none;fill-rule:evenodd;"
d="M 113.6400,79.7950
113.6400,86.0250
108.3900,86.0250
108.3900,79.7950
Z" /> 
<path style="fill:#000000; fill-opacity:1.0000; stroke:none;fill-rule:evenodd;"
d="M 113.6400,88.1250
113.6400,94.3550
108.3900,94.3550
108.3900,88.1250
Z" /> 
</g> 
</svg>
