<?xml version="1.0" standalone="no"?>
 <!DOCTYPE svg PUBLIC "-//W3C//DTD SVG 1.1//EN" 
 "http://www.w3.org/Graphics/SVG/1.1/DTD/svg11.dtd"> 
<svg
  xmlns:svg="http://www.w3.org/2000/svg"
  xmlns="http://www.w3.org/2000/svg"
  xmlns:xlink="http://www.w3.org/1999/xlink"
  version="1.1"
  width="297.0022mm" height="210.0072mm" viewBox="0.0000 0.0000 297.0022 210.0072">
<title>SVG Image created as PROJECTE_EINES-B_Cu.svg date 2026/04/30 12:28:05 </title>
  <desc>Image generated by PCBNEW </desc>
<g style="fill:#000000; fill-opacity:1.0000;stroke:#000000; stroke-opacity:1.0000;
stroke-linecap:round; stroke-linejoin:round;"
 transform="translate(0 0) scale(1 1)">
</g>
<g style="fill:#000000; fill-opacity:1.0000; stroke:none;">
<circle cx="196.3247" cy="60.9300" r="2.0000" /> 
</g>
<g style="fill:#000000; fill-opacity:1.0000; stroke:none;">
<circle cx="196.3247" cy="35.9300" r="2.0000" /> 
<path style="fill:#000000; fill-opacity:1.0000; stroke:none;fill-rule:evenodd;"
d="M 194.2847,54.7700
192.6847,54.7700
192.6847,53.1700
194.2847,53.1700
Z" /> 
</g>
<g style="fill:#000000; fill-opacity:1.0000; stroke:none;">
<circle cx="193.4847" cy="51.2000" r="0.8000" /> 
</g>
<g style="fill:#000000; fill-opacity:1.0000; stroke:none;">
<circle cx="193.4847" cy="48.4300" r="0.8000" /> 
</g>
<g style="fill:#000000; fill-opacity:1.0000; stroke:none;">
<circle cx="193.4847" cy="45.6600" r="0.8000" /> 
</g>
<g style="fill:#000000; fill-opacity:1.0000; stroke:none;">
<circle cx="193.4847" cy="42.8900" r="0.8000" /> 
</g>
<g style="fill:#000000; fill-opacity:1.0000; stroke:none;">
<circle cx="196.3247" cy="52.5850" r="0.8000" /> 
</g>
<g style="fill:#000000; fill-opacity:1.0000; stroke:none;">
<circle cx="196.3247" cy="49.8150" r="0.8000" /> 
</g>
<g style="fill:#000000; fill-opacity:1.0000; stroke:none;">
<circle cx="196.3247" cy="47.0450" r="0.8000" /> 
</g>
<g style="fill:#000000; fill-opacity:1.0000; stroke:none;">
<circle cx="196.3247" cy="44.2750" r="0.8000" /> 
<path style="fill:#000000; fill-opacity:1.0000; stroke:none;fill-rule:evenodd;"
d="M 151.4900,89.8675
151.5090,89.7718
151.5632,89.6907
151.6443,89.6365
151.7400,89.6175
154.0400,89.6175
154.1357,89.6365
154.2168,89.6907
154.2710,89.7718
154.2900,89.8675
154.2900,92.1675
154.2710,92.2632
154.2168,92.3443
154.1357,92.3985
154.0400,92.4175
151.7400,92.4175
151.6443,92.3985
151.5632,92.3443
151.5090,92.2632
151.4900,92.1675
Z" /> 
</g>
<g style="fill:#000000; fill-opacity:1.0000; stroke:none;">
<circle cx="157.8900" cy="91.0175" r="1.4000" /> 
</g>
<g style="fill:#000000; fill-opacity:1.0000; stroke:none;">
<circle cx="196.2800" cy="93.1100" r="2.0000" /> 
</g>
<g style="fill:#000000; fill-opacity:1.0000; stroke:none;">
<circle cx="196.2800" cy="68.1100" r="2.0000" /> 
<path style="fill:#000000; fill-opacity:1.0000; stroke:none;fill-rule:evenodd;"
d="M 194.2400,86.9500
192.6400,86.9500
192.6400,85.3500
194.2400,85.3500
Z" /> 
</g>
<g style="fill:#000000; fill-opacity:1.0000; stroke:none;">
<circle cx="193.4400" cy="83.3800" r="0.8000" /> 
</g>
<g style="fill:#000000; fill-opacity:1.0000; stroke:none;">
<circle cx="193.4400" cy="80.6100" r="0.8000" /> 
</g>
<g style="fill:#000000; fill-opacity:1.0000; stroke:none;">
<circle cx="193.4400" cy="77.8400" r="0.8000" /> 
</g>
<g style="fill:#000000; fill-opacity:1.0000; stroke:none;">
<circle cx="193.4400" cy="75.0700" r="0.8000" /> 
</g>
<g style="fill:#000000; fill-opacity:1.0000; stroke:none;">
<circle cx="196.2800" cy="84.7650" r="0.8000" /> 
</g>
<g style="fill:#000000; fill-opacity:1.0000; stroke:none;">
<circle cx="196.2800" cy="81.9950" r="0.8000" /> 
</g>
<g style="fill:#000000; fill-opacity:1.0000; stroke:none;">
<circle cx="196.2800" cy="79.2250" r="0.8000" /> 
</g>
<g style="fill:#000000; fill-opacity:1.0000; stroke:none;">
<circle cx="196.2800" cy="76.4550" r="0.8000" /> 
<path style="fill:#000000; fill-opacity:1.0000; stroke:none;fill-rule:evenodd;"
d="M 94.7225,35.0250
94.8182,35.0440
94.8993,35.0982
94.9535,35.1793
94.9725,35.2750
94.9725,37.5750
94.9535,37.6707
94.8993,37.7518
94.8182,37.8060
94.7225,37.8250
92.4225,37.8250
92.3268,37.8060
92.2457,37.7518
92.1915,37.6707
92.1725,37.5750
92.1725,35.2750
92.1915,35.1793
92.2457,35.0982
92.3268,35.0440
92.4225,35.0250
Z" /> 
</g>
<g style="fill:#000000; fill-opacity:1.0000; stroke:none;">
<circle cx="93.5725" cy="41.4250" r="1.4000" /> 
<path style="fill:#000000; fill-opacity:1.0000; stroke:none;fill-rule:evenodd;"
d="M 158.2500,33.8600
159.9500,33.8600
159.9500,35.5600
158.2500,35.5600
Z" /> 
</g>
<g style="fill:#000000; fill-opacity:1.0000; stroke:none;">
<circle cx="156.5600" cy="34.7100" r="0.8500" /> 
</g>
<g style="fill:#000000; fill-opacity:1.0000; stroke:none;">
<circle cx="154.0200" cy="34.7100" r="0.8500" /> 
</g>
<g style="fill:#000000; fill-opacity:1.0000; stroke:none;">
<circle cx="151.4800" cy="34.7100" r="0.8500" /> 
</g>
<g style="fill:#000000; fill-opacity:1.0000; stroke:none;">
<circle cx="148.9400" cy="34.7100" r="0.8500" /> 
<path style="fill:#000000; fill-opacity:1.0000; stroke:none;fill-rule:evenodd;"
d="M 174.3650,34.3000
173.5150,34.3000
173.5150,33.4500
174.3650,33.4500
Z" /> 
</g>
<g style="fill:#000000; fill-opacity:1.0000; stroke:none;">
<circle cx="174.9400" cy="33.8750" r="0.4250" /> 
</g>
<g style="fill:#000000; fill-opacity:1.0000; stroke:none;">
<circle cx="175.9400" cy="33.8750" r="0.4250" /> 
</g>
<g style="fill:#000000; fill-opacity:1.0000; stroke:none;">
<circle cx="176.9400" cy="33.8750" r="0.4250" /> 
</g>
<g style="fill:#000000; fill-opacity:1.0000; stroke:none;">
<circle cx="177.9400" cy="33.8750" r="0.4250" /> 
</g>
<g style="fill:#000000; fill-opacity:1.0000; stroke:none;">
<circle cx="178.9400" cy="33.8750" r="0.4250" /> 
</g>
<g style="fill:#000000; fill-opacity:1.0000; stroke:none;">
<circle cx="179.9400" cy="33.8750" r="0.4250" /> 
</g>
<g style="fill:#000000; fill-opacity:1.0000; stroke:none;">
<circle cx="180.9400" cy="33.8750" r="0.4250" /> 
<path style="fill:#000000; fill-opacity:1.0000; stroke:none;fill-rule:evenodd;"
d="M 95.3225,61.1021
95.4182,61.1211
95.4993,61.1753
95.5535,61.2564
95.5725,61.3521
95.5725,63.6521
95.5535,63.7478
95.4993,63.8289
95.4182,63.8831
95.3225,63.9021
93.0225,63.9021
92.9268,63.8831
92.8457,63.8289
92.7915,63.7478
92.7725,63.6521
92.7725,61.3521
92.7915,61.2564
92.8457,61.1753
92.9268,61.1211
93.0225,61.1021
Z" /> 
</g>
<g style="fill:#000000; fill-opacity:1.0000; stroke:none;">
<circle cx="94.1725" cy="67.5021" r="1.4000" /> 
<path style="fill:#000000; fill-opacity:1.0000; stroke:none;fill-rule:evenodd;"
d="M 92.9250,91.7100
92.8293,91.6910
92.7482,91.6368
92.6940,91.5557
92.6750,91.4600
92.6750,89.1600
92.6940,89.0643
92.7482,88.9832
92.8293,88.9290
92.9250,88.9100
95.2250,88.9100
95.3207,88.9290
95.4018,88.9832
95.4560,89.0643
95.4750,89.1600
95.4750,91.4600
95.4560,91.5557
95.4018,91.6368
95.3207,91.6910
95.2250,91.7100
Z" /> 
</g>
<g style="fill:#000000; fill-opacity:1.0000; stroke:none;">
<circle cx="94.0750" cy="85.3100" r="1.4000" /> 
<path style="fill:#000000; fill-opacity:1.0000; stroke:none;fill-rule:evenodd;"
d="M 175.2400,90.8000
175.2590,90.7043
175.3132,90.6232
175.3943,90.5690
175.4900,90.5500
176.3900,90.5500
176.4857,90.5690
176.5668,90.6232
176.6210,90.7043
176.6400,90.8000
176.6400,91.7000
176.6210,91.7957
176.5668,91.8768
176.4857,91.9310
176.3900,91.9500
175.4900,91.9500
175.3943,91.9310
175.3132,91.8768
175.2590,91.7957
175.2400,91.7000
Z" /> 
</g>
<g style="fill:#000000; fill-opacity:1.0000; stroke:none;">
<circle cx="178.4400" cy="91.2500" r="0.7000" /> 
</g>
<g style="fill:#000000; fill-opacity:1.0000; stroke:none;">
<circle cx="180.9400" cy="91.2500" r="0.7000" /> 
</g>
<g style="fill:#000000; fill-opacity:1.0000; stroke:none;">
<circle cx="180.9400" cy="94.5500" r="0.7000" /> 
</g>
<g style="fill:#000000; fill-opacity:1.0000; stroke:none;">
<circle cx="178.4400" cy="94.5500" r="0.7000" /> 
</g>
<g style="fill:#000000; fill-opacity:1.0000; stroke:none;">
<circle cx="175.9400" cy="94.5500" r="0.7000" /> 
</g>
<g style="fill:#000000; fill-opacity:1.0000; stroke:none;">
<circle cx="125.2000" cy="65.8000" r="0.3000" /> 
</g>
<g style="fill:#000000; fill-opacity:1.0000; stroke:none;">
<circle cx="87.4000" cy="75.2000" r="0.3000" /> 
</g>
<g style="fill:#000000; fill-opacity:1.0000; stroke:none;">
<circle cx="125.4000" cy="89.1400" r="0.3000" /> 
</g>
<g style="fill:#000000; fill-opacity:1.0000; stroke:none;">
<circle cx="165.7500" cy="43.0000" r="0.3000" /> 
</g>
<g style="fill:#000000; fill-opacity:1.0000; stroke:none;">
<circle cx="173.0000" cy="52.5000" r="0.3000" /> 
</g>
<g style="fill:#000000; fill-opacity:1.0000; stroke:none;">
<circle cx="167.0000" cy="41.5000" r="0.3000" /> 
</g>
<g style="fill:#000000; fill-opacity:1.0000; stroke:none;">
<circle cx="135.3000" cy="83.6750" r="0.3000" /> 
</g>
<g style="fill:#000000; fill-opacity:1.0000; stroke:none;">
<circle cx="135.2000" cy="89.4000" r="0.3000" /> 
</g>
<g style="fill:#000000; fill-opacity:1.0000; stroke:none;">
<circle cx="135.5750" cy="65.9750" r="0.3000" /> 
</g>
<g style="fill:#000000; fill-opacity:1.0000; stroke:none;">
<circle cx="151.1814" cy="66.5185" r="0.3000" /> 
</g>
<g style="fill:#000000; fill-opacity:1.0000; stroke:none;">
<circle cx="147.1750" cy="62.6750" r="0.3000" /> 
</g>
<g style="fill:#000000; fill-opacity:1.0000; stroke:none;">
<circle cx="135.3000" cy="75.6500" r="0.3000" /> 
</g>
<g style="fill:#000000; fill-opacity:1.0000; stroke:none;">
<circle cx="131.0500" cy="59.6700" r="0.4000" /> 
</g>
<g style="fill:#000000; fill-opacity:1.0000; stroke:none;">
<circle cx="141.8150" cy="32.7650" r="0.4000" /> 
</g>
<g style="fill:#000000; fill-opacity:1.0000; stroke:none;">
<circle cx="99.3900" cy="66.3500" r="0.4000" /> 
</g>
<g style="fill:#000000; fill-opacity:1.0000; stroke:none;">
<circle cx="140.2675" cy="52.2825" r="0.4000" /> 
</g>
<g style="fill:#000000; fill-opacity:1.0000; stroke:none;">
<circle cx="124.2000" cy="51.7500" r="0.4000" /> 
</g>
<g style="fill:#000000; fill-opacity:1.0000; stroke:none;">
<circle cx="129.0000" cy="57.6600" r="0.4000" /> 
</g>
<g style="fill:#000000; fill-opacity:1.0000; stroke:none;">
<circle cx="131.4200" cy="78.8800" r="0.4000" /> 
</g>
<g style="fill:#000000; fill-opacity:1.0000; stroke:none;">
<circle cx="110.5500" cy="76.4500" r="0.4000" /> 
</g>
<g style="fill:#000000; fill-opacity:1.0000; stroke:none;">
<circle cx="129.8200" cy="76.9600" r="0.4000" /> 
</g>
<g style="fill:#000000; fill-opacity:1.0000; stroke:none;">
<circle cx="120.0200" cy="51.4600" r="0.4000" /> 
</g>
<g style="fill:#000000; fill-opacity:1.0000; stroke:none;">
<circle cx="129.3600" cy="68.1600" r="0.4000" /> 
</g>
<g style="fill:#000000; fill-opacity:1.0000; stroke:none;">
<circle cx="143.1200" cy="37.4800" r="0.4000" /> 
</g>
<g style="fill:#000000; fill-opacity:1.0000; stroke:none;">
<circle cx="134.5900" cy="32.6100" r="0.4000" /> 
</g>
<g style="fill:#000000; fill-opacity:1.0000; stroke:none;">
<circle cx="101.3050" cy="50.3850" r="0.4000" /> 
</g>
<g style="fill:#000000; fill-opacity:1.0000; stroke:none;">
<circle cx="101.5400" cy="67.9400" r="0.4000" /> 
</g>
<g style="fill:#000000; fill-opacity:1.0000; stroke:none;">
<circle cx="116.9300" cy="53.5300" r="0.4000" /> 
</g>
<g style="fill:#000000; fill-opacity:1.0000; stroke:none;">
<circle cx="101.3400" cy="90.0100" r="0.4000" /> 
</g>
<g style="fill:#000000; fill-opacity:1.0000; stroke:none;">
<circle cx="121.9400" cy="52.9400" r="0.4000" /> 
</g>
<g style="fill:#000000; fill-opacity:1.0000; stroke:none;">
<circle cx="104.7500" cy="54.5000" r="0.4000" /> 
</g>
<g style="fill:#000000; fill-opacity:1.0000; stroke:none;">
<circle cx="132.9250" cy="34.2750" r="0.4000" /> 
</g>
<g style="fill:#000000; fill-opacity:1.0000; stroke:none;">
<circle cx="102.7100" cy="83.1200" r="0.4000" /> 
</g>
<g style="fill:#000000; fill-opacity:1.0000; stroke:none;">
<circle cx="117.3200" cy="76.5000" r="0.4000" /> 
</g>
<g style="fill:#000000; fill-opacity:1.0000; stroke:none;">
<circle cx="101.2900" cy="46.7200" r="0.4000" /> 
</g>
<g style="fill:#000000; fill-opacity:1.0000; stroke:none;">
<circle cx="137.9500" cy="54.0000" r="0.4000" /> 
</g>
<g style="fill:#000000; fill-opacity:1.0000; stroke:none;">
<circle cx="102.5400" cy="61.0900" r="0.4000" /> 
</g>
<g style="fill:#000000; fill-opacity:1.0000; stroke:none;">
<circle cx="131.9500" cy="93.5000" r="0.4000" /> 
</g>
<g style="fill:#000000; fill-opacity:1.0000; stroke:none;">
<circle cx="99.5200" cy="88.4300" r="0.4000" /> 
</g>
<g style="fill:#000000; fill-opacity:1.0000; stroke:none;">
<circle cx="103.1300" cy="91.1200" r="0.4000" /> 
</g>
<g style="fill:#000000; fill-opacity:1.0000; stroke:none;">
<circle cx="143.2600" cy="34.2900" r="0.4000" /> 
</g>
<g style="fill:#000000; fill-opacity:1.0000; stroke:none;">
<circle cx="125.9400" cy="53.2200" r="0.4000" /> 
</g>
<g style="fill:#000000; fill-opacity:1.0000; stroke:none;">
<circle cx="127.8100" cy="69.5800" r="0.4000" /> 
</g>
<g style="fill:#000000; fill-opacity:1.0000; stroke:none;">
<circle cx="102.9000" cy="69.1500" r="0.4000" /> 
</g>
<g style="fill:#000000; fill-opacity:1.0000; stroke:none;">
<circle cx="102.9800" cy="88.4400" r="0.4000" /> 
</g>
<g style="fill:#000000; fill-opacity:1.0000; stroke:none;">
<circle cx="143.2400" cy="42.8600" r="0.4000" /> 
</g>
<g style="fill:#000000; fill-opacity:1.0000; stroke:none;">
<circle cx="171.2500" cy="65.8750" r="0.3000" /> 
</g>
<g style="fill:#000000; fill-opacity:1.0000; stroke:none;">
<circle cx="169.3500" cy="67.5750" r="0.3000" /> 
</g>
<g style="fill:#000000; fill-opacity:1.0000; stroke:none;">
<circle cx="158.5000" cy="74.0000" r="0.3000" /> 
</g>
<g style="fill:#000000; fill-opacity:1.0000; stroke:none;">
<circle cx="165.5500" cy="89.7750" r="0.3000" /> 
</g>
<g style="fill:#000000; fill-opacity:1.0000; stroke:none;">
<circle cx="167.0000" cy="88.2500" r="0.3000" /> 
</g>
<g style="fill:#000000; fill-opacity:1.0000; stroke:none;">
<circle cx="144.2000" cy="61.1750" r="0.3000" /> 
</g>
<g style="fill:#000000; fill-opacity:1.0000; stroke:none;">
<circle cx="178.2750" cy="45.6000" r="0.3000" /> 
</g>
<g style="fill:#000000; fill-opacity:1.0000; stroke:none;">
<circle cx="170.5000" cy="89.8750" r="0.3000" /> 
</g>
<g style="fill:#000000; fill-opacity:1.0000; stroke:none;">
<circle cx="169.4250" cy="64.1250" r="0.3000" /> 
</g>
<g style="fill:#000000; fill-opacity:1.0000; stroke:none;">
<circle cx="142.9500" cy="68.8000" r="0.3000" /> 
</g>
<g style="fill:#000000; fill-opacity:1.0000; stroke:none;">
<circle cx="164.0000" cy="32.5000" r="0.3000" /> 
</g>
<g style="fill:#000000; fill-opacity:1.0000; stroke:none;">
<circle cx="174.6000" cy="49.1250" r="0.3000" /> 
</g>
<g style="fill:#000000; fill-opacity:1.0000; stroke:none;">
<circle cx="165.5750" cy="86.7000" r="0.3000" /> 
</g>
<g style="fill:#000000; fill-opacity:1.0000; stroke:none;">
<circle cx="167.0000" cy="90.1500" r="0.3000" /> 
</g>
<g style="fill:#000000; fill-opacity:1.0000; stroke:none;">
<circle cx="162.0000" cy="34.0000" r="0.3000" /> 
</g>
<g style="fill:#000000; fill-opacity:1.0000; stroke:none;">
<circle cx="184.4750" cy="36.5750" r="0.3000" /> 
</g>
<g style="fill:#000000; fill-opacity:1.0000; stroke:none;">
<circle cx="171.6000" cy="49.1250" r="0.3000" /> 
</g>
<g style="fill:#000000; fill-opacity:1.0000; stroke:none;">
<circle cx="170.0000" cy="32.5000" r="0.3000" /> 
</g>
<g style="fill:#000000; fill-opacity:1.0000; stroke:none;">
<circle cx="137.8000" cy="93.4500" r="0.3000" /> 
</g>
<g style="fill:#000000; fill-opacity:1.0000; stroke:none;">
<circle cx="179.6250" cy="43.8750" r="0.3000" /> 
</g>
<g style="fill:#000000; fill-opacity:1.0000; stroke:none;">
<circle cx="179.6250" cy="46.9000" r="0.3000" /> 
</g>
<g style="fill:#000000; fill-opacity:1.0000; stroke:none;">
<circle cx="182.9000" cy="34.9500" r="0.3000" /> 
</g>
<g style="fill:#000000; fill-opacity:1.0000; stroke:none;">
<circle cx="171.7250" cy="88.2500" r="0.3000" /> 
</g>
<g style="fill:#000000; fill-opacity:1.0000; stroke:none;">
<circle cx="165.7500" cy="66.7500" r="0.3000" /> 
</g>
<g style="fill:#000000; fill-opacity:1.0000; stroke:none;">
<circle cx="157.1000" cy="78.1500" r="0.3000" /> 
</g>
<g style="fill:#000000; fill-opacity:1.0000; stroke:none;">
<circle cx="182.8000" cy="38.6500" r="0.3000" /> 
</g>
<g style="fill:#000000; fill-opacity:1.0000; stroke:none;">
<circle cx="172.0000" cy="34.2500" r="0.3000" /> 
</g>
<g style="fill:#000000; fill-opacity:1.0000; stroke:none;">
<circle cx="158.8500" cy="79.6000" r="0.3000" /> 
</g>
<g style="fill:#000000; fill-opacity:1.0000; stroke:none;">
<circle cx="159.0600" cy="54.2800" r="0.3000" /> 
</g>
<g style="fill:#000000; fill-opacity:1.0000; stroke:none;">
<circle cx="142.7500" cy="62.6250" r="0.3000" /> 
</g>
<g style="fill:#000000; fill-opacity:1.0000; stroke:none;">
<circle cx="125.5401" cy="69.3099" r="0.3000" /> 
</g>
<g style="fill:#000000; fill-opacity:1.0000; stroke:none;">
<circle cx="121.8500" cy="98.6000" r="0.3000" /> 
</g>
<g style="fill:#000000; fill-opacity:1.0000; stroke:none;">
<circle cx="141.8000" cy="27.4500" r="0.3000" /> 
</g>
<g style="fill:#000000; fill-opacity:1.0000; stroke:none;">
<circle cx="148.3500" cy="28.6000" r="0.3000" /> 
</g>
<g style="fill:#000000; fill-opacity:1.0000; stroke:none;">
<circle cx="156.8000" cy="28.6000" r="0.3000" /> 
</g>
<g style="fill:none; 
stroke:#000000; stroke-width:0.2000; stroke-opacity:1; 
stroke-linecap:round; stroke-linejoin:round;">
<path d="M125.2000 65.8000
L115.8000 75.2000
" />
<path d="M115.8000 75.2000
L87.4000 75.2000
" />
<path d="M150.8358 66.3358
L147.5000 63.0000
" />
<path d="M135.2500 75.6000
L135.2500 66.3000
" />
<path d="M147.1750 62.6750
L144.3000 65.5500
" />
<path d="M138.5185 92.7185
L174.4715 92.7185
" />
<path d="M163.5000 47.0000
L169.0000 52.5000
" />
<path d="M135.3000 75.6500
L135.3000 83.6750
" />
<path d="M134.9400 89.1400
L135.2000 89.4000
" />
<path d="M151.1814 66.5185
L150.9987 66.3358
" />
<path d="M163.5000 47.0000
L165.7500 44.7500
" />
<path d="M125.4000 89.1400
L134.9400 89.1400
" />
<path d="M135.2500 66.3000
L135.5750 65.9750
" />
<path d="M144.3000 65.5500
L136.0000 65.5500
" />
<path d="M135.3000 83.6750
L135.2000 83.7750
" />
<path d="M169.0000 52.5000
L173.0000 52.5000
" />
<path d="M165.7500 44.7500
L165.7500 43.0000
" />
<path d="M165.7500 43.0000
L165.7500 42.7500
" />
<path d="M165.7500 42.7500
L167.0000 41.5000
" />
<path d="M150.9987 66.3358
L150.8358 66.3358
" />
<path d="M147.5000 63.0000
L147.1750 62.6750
" />
<path d="M135.3000 75.6500
L135.2500 75.6000
" />
<path d="M135.2000 89.4000
L138.5185 92.7185
" />
<path d="M174.4715 92.7185
L175.9400 91.2500
" />
<path d="M136.0000 65.5500
L135.5750 65.9750
" />
<path d="M135.2000 83.7750
L135.2000 89.4000
" />
<path d="M147.5000 63.0000
L163.5000 47.0000
" />
<path d="M121.8000 73.0500
L121.8000 98.5500
" />
<path d="M125.5401 69.3099
L121.8000 73.0500
" />
<path d="M121.8000 98.5500
L121.8500 98.6000
" />
<path d="M148.9400 34.7100
L141.8000 27.5700
" />
<path d="M141.8000 27.5700
L141.8000 27.4500
" />
<path d="M151.4800 34.7100
L148.3500 31.5800
" />
<path d="M148.3500 31.5800
L148.3500 28.6000
" />
<path d="M154.0200 34.7100
L156.8000 31.9300
" />
<path d="M156.8000 31.9300
L156.8000 28.6000
" />
<path d="M156.8000 28.6000
L156.8000 28.5500
" />
<path style="fill:#000000; fill-opacity:1.0000; stroke:none;fill-rule:evenodd;"
d="M 143.6677,31.6897
143.7134,31.7425
143.7246,31.7939
143.7538,57.3714
143.7342,57.4385
143.6814,57.4843
143.6320,57.4955
134.7635,57.6524
134.6593,57.6652
134.6093,57.6766
134.6093,57.6766
134.5100,57.7107
134.5100,57.7107
134.3894,57.7891
134.3894,57.7891
134.3368,57.8352
134.2432,57.9444
134.1842,58.0756
134.1842,58.0757
134.1649,58.1428
134.1649,58.1428
134.1452,58.2853
134.1452,58.2853
134.1852,65.4524
134.1852,65.4524
134.1899,65.5184
134.1899,65.5184
134.1899,65.5185
134.1929,65.5401
134.1943,65.5506
134.1943,65.5506
134.2076,65.6154
134.2076,65.6154
134.2650,65.7473
134.2650,65.7473
134.3006,65.8050
134.3014,65.8064
134.3017,65.8068
134.3940,65.9172
134.3940,65.9172
134.3940,65.9172
134.5136,65.9971
134.5767,66.0273
134.5767,66.0273
134.5767,66.0273
134.5782,66.0278
134.5787,66.0281
134.5808,66.0289
134.5806,66.0293
134.6363,66.0666
134.6642,66.1307
134.6649,66.1541
134.6641,66.1663
134.6495,66.2209
134.6495,66.3791
134.6495,66.3791
134.6495,66.3931
134.6495,75.1451
134.6298,75.2121
134.6286,75.2140
134.5906,75.2708
134.5906,75.2708
134.5303,75.4165
134.5303,75.4165
134.4995,75.5712
134.4995,75.7288
134.5303,75.8835
134.5303,75.8835
134.5906,76.0292
134.5906,76.0292
134.6696,76.1474
134.6712,76.1498
134.6786,76.1609
134.6995,76.2276
134.6995,76.2298
134.6995,83.0952
134.6798,83.1623
134.6786,83.1641
134.5906,83.2958
134.5906,83.2958
134.5303,83.4415
134.5303,83.4415
134.4995,83.5962
134.4995,83.7538
134.5303,83.9085
134.5303,83.9085
134.5901,84.0529
134.5995,84.1003
134.5995,88.4155
134.5798,88.4825
134.5270,88.5283
134.4755,88.5395
125.9798,88.5395
125.9127,88.5198
125.9109,88.5186
125.7792,88.4306
125.7792,88.4306
125.6335,88.3703
125.6335,88.3703
125.4788,88.3395
125.4788,88.3395
125.3212,88.3395
125.3212,88.3395
125.1665,88.3703
125.1665,88.3703
125.0208,88.4306
125.0208,88.4306
124.8897,88.5182
124.8897,88.5182
124.7782,88.6297
124.7782,88.6297
124.6906,88.7608
124.6906,88.7608
124.6303,88.9065
124.6303,88.9065
124.5995,89.0612
124.5995,89.2188
124.6303,89.3735
124.6303,89.3735
124.6906,89.5192
124.6906,89.5192
124.7782,89.6503
124.7782,89.6503
124.8897,89.7618
124.8897,89.7618
125.0208,89.8494
125.0208,89.8494
125.1665,89.9097
125.1665,89.9097
125.3212,89.9405
125.3212,89.9405
125.3212,89.9405
125.4788,89.9405
125.4788,89.9405
125.6335,89.9097
125.7792,89.8494
125.8337,89.8130
125.9109,89.7614
125.9776,89.7405
125.9798,89.7405
134.3370,89.7405
134.4040,89.7602
134.4498,89.8130
134.4597,89.8821
134.4458,89.9240
134.4396,89.9354
134.4218,89.9561
134.3926,90.0210
134.3903,90.0253
134.3903,90.0253
134.3596,90.0841
134.3596,90.0841
134.3514,90.1251
134.3514,90.1251
134.3497,90.1340
134.3493,90.1339
134.3434,90.1545
134.3434,90.1545
134.3385,90.1900
134.3378,90.1936
134.3378,90.1936
134.3315,90.2252
134.3315,90.2252
134.3304,90.2454
134.3295,90.2557
134.3237,90.2970
134.3237,90.2970
134.3538,95.6887
134.3593,95.7369
134.3473,95.8057
134.3000,95.8571
134.2370,95.8749
122.5254,95.9581
122.4582,95.9389
122.4121,95.8865
122.4005,95.8342
122.4005,73.3501
122.4202,73.2831
122.4368,73.2624
123.1298,72.5695
125.5547,70.1445
125.6160,70.1110
125.6182,70.1106
125.6189,70.1104
125.6189,70.1104
125.7736,70.0797
125.9192,70.0193
126.0503,69.9317
126.1618,69.8202
126.2495,69.6891
126.3098,69.5434
126.3406,69.3888
126.3406,69.2311
126.3406,69.2311
126.3406,69.2311
126.3364,69.2103
126.3098,69.0764
126.2508,68.9340
126.2495,68.9308
126.2494,68.9308
126.1618,68.7997
126.1618,68.7996
126.0503,68.6882
126.0503,68.6882
125.9192,68.6006
125.9192,68.6005
125.7736,68.5402
125.7735,68.5402
125.6189,68.5094
125.6189,68.5094
125.4612,68.5094
125.4612,68.5094
125.3066,68.5402
125.3066,68.5402
125.1609,68.6005
125.1609,68.6006
125.0298,68.6882
125.0298,68.6882
124.9183,68.7996
124.9183,68.7997
124.8307,68.9308
124.8307,68.9308
124.7703,69.0764
124.7703,69.0764
124.7394,69.2318
124.7070,69.2937
124.7055,69.2953
121.4313,72.5695
121.3195,72.6813
121.3195,72.6813
121.2694,72.7681
121.2694,72.7681
121.2404,72.8182
121.2404,72.8182
121.2404,72.8182
121.1995,72.9709
121.1995,72.9709
121.1995,73.1390
121.1995,73.1391
121.1995,95.8445
121.1798,95.9115
121.1270,95.9573
121.0764,95.9685
88.6442,96.1991
88.5770,96.1799
88.5309,96.1274
88.5193,96.0758
88.5188,95.9685
88.4826,89.1100
92.1745,89.1100
92.1745,91.5100
92.1850,91.6128
92.1850,91.6128
92.1926,91.6356
92.2402,91.7793
92.2402,91.7793
92.3323,91.9287
92.3323,91.9287
92.4563,92.0527
92.4563,92.0527
92.6057,92.1448
92.6057,92.1448
92.6057,92.1448
92.7722,92.2000
92.8750,92.2105
92.8750,92.2105
95.2750,92.2105
95.2750,92.2105
95.3778,92.2000
95.5443,92.1448
95.6937,92.0527
95.8177,91.9287
95.9098,91.7793
95.9650,91.6128
95.9755,91.5100
95.9755,89.1100
95.9650,89.0072
95.9098,88.8407
95.8606,88.7608
95.8177,88.6913
95.8177,88.6913
95.6937,88.5673
95.6937,88.5673
95.5443,88.4752
95.5443,88.4752
95.4611,88.4476
95.3778,88.4200
95.3778,88.4200
95.2750,88.4095
95.2750,88.4095
92.8750,88.4095
92.8750,88.4095
92.7722,88.4200
92.7722,88.4200
92.6057,88.4752
92.6057,88.4752
92.4563,88.5673
92.4563,88.5673
92.3323,88.6913
92.3323,88.6913
92.2402,88.8407
92.2402,88.8407
92.1850,89.0072
92.1850,89.0072
92.1745,89.1100
88.4826,89.1100
88.4646,85.6816
88.4620,85.1854
92.1745,85.1854
92.1745,85.4346
92.1745,85.4346
92.2070,85.6816
92.2715,85.9222
92.3668,86.1524
92.3668,86.1524
92.4914,86.3681
92.6431,86.5658
92.6431,86.5658
92.8192,86.7419
92.8192,86.7419
93.0169,86.8936
93.2326,87.0182
93.2326,87.0182
93.3318,87.0593
93.4628,87.1135
93.7034,87.1780
93.9504,87.2105
93.9504,87.2105
94.1996,87.2105
94.1996,87.2105
94.4466,87.1780
94.6872,87.1135
94.9174,87.0182
95.1331,86.8936
95.3308,86.7419
95.5069,86.5658
95.6586,86.3681
95.7832,86.1524
95.8785,85.9222
95.9430,85.6816
95.9755,85.4346
95.9755,85.1854
95.9430,84.9384
95.8785,84.6978
95.7832,84.4676
95.7787,84.4598
95.6586,84.2519
95.5069,84.0542
95.5069,84.0542
95.3308,83.8781
95.3308,83.8781
95.1331,83.7264
94.9174,83.6018
94.9174,83.6018
94.6872,83.5065
94.4466,83.4420
94.1996,83.4095
94.1996,83.4095
94.1996,83.4095
93.9504,83.4095
93.9504,83.4095
93.9504,83.4095
93.7034,83.4420
93.4628,83.5065
93.2326,83.6018
93.2326,83.6018
93.0169,83.7264
92.8192,83.8781
92.8192,83.8781
92.6431,84.0542
92.6431,84.0542
92.4914,84.2519
92.3668,84.4676
92.3668,84.4676
92.2715,84.6978
92.2070,84.9384
92.1745,85.1854
92.1745,85.1854
88.4620,85.1854
88.4619,85.1820
88.4132,75.9252
88.4325,75.8580
88.4851,75.8120
88.5372,75.8005
115.7133,75.8005
115.7133,75.8005
115.7209,75.8005
115.8791,75.8005
115.8791,75.8005
116.0318,75.7596
116.1034,75.7182
116.1034,75.7182
116.1687,75.6805
116.1687,75.6805
116.1687,75.6805
116.2805,75.5687
116.2805,75.5687
116.2907,75.5585
116.2907,75.5585
125.2147,66.6346
125.2760,66.6011
125.2781,66.6006
125.3361,66.5891
125.4335,66.5697
125.5792,66.5094
125.7103,66.4218
125.8218,66.3103
125.9094,66.1792
125.9697,66.0335
126.0005,65.8788
126.0005,65.7212
126.0005,65.7212
126.0005,65.7212
125.9697,65.5665
125.9631,65.5506
125.9094,65.4208
125.9094,65.4208
125.8218,65.2897
125.8218,65.2897
125.7103,65.1782
125.7103,65.1782
125.5792,65.0906
125.5792,65.0906
125.4335,65.0303
125.4335,65.0303
125.2788,64.9995
125.2788,64.9995
125.1212,64.9995
125.1212,64.9995
124.9665,65.0303
124.9665,65.0303
124.8208,65.0906
124.8208,65.0906
124.6897,65.1782
124.6897,65.1782
124.5782,65.2897
124.5782,65.2897
124.4906,65.4208
124.4906,65.4208
124.4303,65.5665
124.4303,65.5665
124.3994,65.7219
124.3670,65.7838
124.3654,65.7853
115.5876,74.5632
115.5263,74.5967
115.4999,74.5995
88.5295,74.5995
88.4625,74.5798
88.4167,74.5270
88.4055,74.4762
88.3681,67.3775
92.2720,67.3775
92.2720,67.6267
92.2720,67.6267
92.3045,67.8737
92.3690,68.1143
92.4643,68.3445
92.4643,68.3445
92.5889,68.5602
92.7406,68.7579
92.7406,68.7579
92.9167,68.9340
92.9167,68.9340
93.1144,69.0857
93.3301,69.2103
93.3301,69.2103
93.3804,69.2311
93.5603,69.3056
93.8009,69.3701
94.0479,69.4026
94.0479,69.4026
94.2971,69.4026
94.2971,69.4026
94.5441,69.3701
94.7847,69.3056
95.0149,69.2103
95.2306,69.0857
95.4283,68.9340
95.6044,68.7579
95.7561,68.5602
95.8807,68.3445
95.9760,68.1143
96.0405,67.8737
96.0730,67.6267
96.0730,67.3775
96.0405,67.1305
95.9760,66.8899
95.8807,66.6597
95.8798,66.6583
95.7561,66.4440
95.6044,66.2463
95.6044,66.2463
95.4283,66.0702
95.4283,66.0702
95.2306,65.9185
95.0149,65.7939
95.0149,65.7939
94.7847,65.6986
94.5441,65.6341
94.2971,65.6016
94.2971,65.6016
94.2971,65.6016
94.0479,65.6016
94.0479,65.6016
94.0479,65.6016
93.8009,65.6341
93.5603,65.6986
93.3301,65.7939
93.3301,65.7939
93.1144,65.9185
92.9167,66.0702
92.9167,66.0702
92.7406,66.2463
92.7406,66.2463
92.5889,66.4440
92.4643,66.6597
92.4643,66.6597
92.3690,66.8899
92.3045,67.1305
92.2720,67.3775
92.2720,67.3775
88.3681,67.3775
88.3681,67.3741
88.3361,61.3021
92.2720,61.3021
92.2720,63.7021
92.2825,63.8049
92.2825,63.8049
92.3377,63.9714
92.3377,63.9714
92.4298,64.1208
92.4298,64.1208
92.5538,64.2448
92.5538,64.2448
92.7032,64.3369
92.7032,64.3369
92.7032,64.3369
92.8697,64.3921
92.9725,64.4026
92.9725,64.4026
95.3725,64.4026
95.3725,64.4026
95.4753,64.3921
95.6418,64.3369
95.7912,64.2448
95.9152,64.1208
96.0073,63.9714
96.0625,63.8049
96.0730,63.7021
96.0730,61.3021
96.0625,61.1993
96.0073,61.0328
95.9152,60.8834
95.7912,60.7594
95.7912,60.7594
95.6418,60.6673
95.6418,60.6673
95.5459,60.6355
95.4753,60.6121
95.4753,60.6121
95.3725,60.6016
95.3725,60.6016
92.9725,60.6016
92.9725,60.6016
92.8697,60.6121
92.8697,60.6121
92.7032,60.6673
92.7032,60.6673
92.5538,60.7594
92.5538,60.7594
92.4298,60.8834
92.4298,60.8834
92.3377,61.0328
92.3377,61.0328
92.2825,61.1993
92.2825,61.1993
92.2720,61.3021
88.3361,61.3021
88.3361,61.2996
88.2391,42.8863
88.2307,41.3005
91.6725,41.3005
91.6725,41.5495
91.7050,41.7965
91.7695,42.0370
91.8648,42.2671
91.8648,42.2672
91.9893,42.4828
91.9893,42.4828
92.0639,42.5800
92.9715,41.6725
92.9965,41.7329
93.0676,41.8394
93.1581,41.9299
93.2646,42.0010
93.3250,42.0260
92.4175,42.9336
92.5146,43.0082
92.5147,43.0082
92.7303,43.1327
92.7304,43.1327
92.9604,43.2280
93.2010,43.2925
93.4480,43.3250
93.6970,43.3250
93.9440,43.2925
94.1845,43.2280
94.4146,43.1327
94.4147,43.1327
94.6304,43.0082
94.7275,42.9336
94.7275,42.9336
93.8200,42.0260
93.8804,42.0010
93.9869,41.9299
94.0774,41.8394
94.1485,41.7329
94.1735,41.6725
95.0811,42.5800
95.0811,42.5800
95.1557,42.4829
95.2802,42.2672
95.2802,42.2671
95.3755,42.0370
95.4400,41.7965
95.4725,41.5495
95.4725,41.3005
95.4400,41.0535
95.3755,40.8130
95.2802,40.5829
95.2802,40.5828
95.1557,40.3672
95.1557,40.3671
95.0811,40.2700
94.1735,41.1775
94.1485,41.1171
94.0774,41.0106
93.9869,40.9201
93.8804,40.8490
93.8200,40.8240
94.7275,39.9164
94.6303,39.8418
94.6303,39.8418
94.4147,39.7173
94.4146,39.7173
94.1845,39.6220
93.9440,39.5575
93.6970,39.5250
93.4480,39.5250
93.2010,39.5575
92.9604,39.6220
92.7304,39.7173
92.7303,39.7173
92.5146,39.8418
92.4175,39.9164
92.4175,39.9164
93.3250,40.8240
93.2646,40.8490
93.1581,40.9201
93.0676,41.0106
92.9965,41.1171
92.9715,41.1775
92.0639,40.2700
92.0639,40.2700
91.9893,40.3671
91.8648,40.5828
91.8648,40.5829
91.7695,40.8130
91.7050,41.0535
91.6725,41.3005
88.2307,41.3005
88.2307,41.2971
88.2237,39.9650
88.1987,35.2250
91.6720,35.2250
91.6720,37.6250
91.6825,37.7278
91.6825,37.7278
91.7377,37.8943
91.7377,37.8943
91.8298,38.0437
91.8298,38.0437
91.9538,38.1677
91.9538,38.1677
92.1032,38.2598
92.1032,38.2598
92.1032,38.2598
92.2697,38.3150
92.3725,38.3255
92.3725,38.3255
94.7725,38.3255
94.7725,38.3255
94.8753,38.3150
95.0418,38.2598
95.1912,38.1677
95.3152,38.0437
95.4073,37.8943
95.4625,37.7278
95.4730,37.6250
95.4730,35.2250
95.4625,35.1222
95.4073,34.9557
95.4043,34.9508
95.3152,34.8063
95.3152,34.8063
95.1912,34.6823
95.1912,34.6823
95.0418,34.5902
95.0418,34.5902
94.9279,34.5524
94.8753,34.5350
94.8753,34.5350
94.7725,34.5245
94.7725,34.5245
92.3725,34.5245
92.3725,34.5245
92.2697,34.5350
92.2697,34.5350
92.1032,34.5902
92.1032,34.5902
91.9538,34.6823
91.9538,34.6823
91.8298,34.8063
91.8298,34.8063
91.7377,34.9557
91.7377,34.9557
91.6825,35.1222
91.6825,35.1222
91.6720,35.2250
88.1987,35.2250
88.1987,35.2225
88.1807,31.7947
88.2000,31.7275
88.2525,31.6815
88.3047,31.6700
143.6006,31.6700
Z" /> 
<path style="fill:#000000; fill-opacity:1.0000; stroke:none;fill-rule:evenodd;"
d="M 198.9470,31.2651
198.9932,31.3176
199.0048,31.3702
198.9987,35.3081
198.9789,35.3751
198.9260,35.4207
198.8568,35.4306
198.7933,35.4014
198.7556,35.3426
198.7538,35.3355
198.7312,35.2367
198.7312,35.2367
198.6576,35.0262
198.6385,34.9716
198.5166,34.7186
198.3672,34.4808
198.1921,34.2612
197.9935,34.0626
197.9852,34.0560
197.8726,33.9662
197.7739,33.8875
197.5593,33.7526
197.5361,33.7381
197.2831,33.6162
197.0180,33.5234
197.0180,33.5234
196.7442,33.4609
196.7442,33.4609
196.4651,33.4295
196.4651,33.4295
196.1842,33.4295
196.1842,33.4295
195.9052,33.4609
195.9052,33.4609
195.6314,33.5234
195.6313,33.5234
195.3663,33.6162
195.1132,33.7381
194.8754,33.8875
194.6558,34.0626
194.4573,34.2612
194.2821,34.4808
194.1327,34.7186
194.0109,34.9716
193.9181,35.2367
193.9181,35.2367
193.8556,35.5105
193.8556,35.5105
193.8242,35.7896
193.8242,36.0704
193.8556,36.3495
193.8556,36.3495
193.9181,36.6233
193.9181,36.6233
194.0109,36.8884
194.1327,37.1414
194.1327,37.1414
194.2821,37.3792
194.4573,37.5988
194.6558,37.7974
194.8754,37.9725
195.1132,38.1219
195.3663,38.2438
195.5653,38.3135
195.6313,38.3366
195.6314,38.3366
195.9052,38.3991
195.9052,38.3991
195.9052,38.3991
196.0912,38.4200
196.1842,38.4305
196.1842,38.4305
196.1842,38.4305
196.4651,38.4305
196.4651,38.4305
196.6077,38.4144
196.7442,38.3991
196.7442,38.3991
196.7442,38.3991
197.0180,38.3366
197.2831,38.2438
197.5361,38.1219
197.7739,37.9725
197.9935,37.7974
198.1921,37.5988
198.3672,37.3792
198.5166,37.1414
198.6385,36.8884
198.7312,36.6233
198.7518,36.5331
198.7859,36.4721
198.8476,36.4393
198.9172,36.4450
198.9727,36.4874
198.9965,36.5531
198.9967,36.5609
198.9599,60.1606
198.9401,60.2276
198.8872,60.2733
198.8181,60.2831
198.7546,60.2540
198.7189,60.2014
198.7046,60.1606
198.6385,59.9716
198.5166,59.7186
198.3672,59.4808
198.1921,59.2612
197.9935,59.0626
197.7739,58.8875
197.5361,58.7381
197.5361,58.7381
197.2831,58.6162
197.0180,58.5234
197.0180,58.5234
196.7442,58.4609
196.7442,58.4609
196.4651,58.4295
196.4651,58.4295
196.1842,58.4295
196.1842,58.4295
195.9052,58.4609
195.9052,58.4609
195.6314,58.5234
195.6313,58.5234
195.3663,58.6162
195.1132,58.7381
194.8754,58.8875
194.6558,59.0626
194.4573,59.2612
194.2821,59.4808
194.1327,59.7186
194.0109,59.9716
193.9181,60.2367
193.9181,60.2367
193.8556,60.5105
193.8556,60.5105
193.8242,60.7896
193.8242,61.0704
193.8556,61.3495
193.8556,61.3495
193.9181,61.6233
193.9181,61.6233
194.0109,61.8884
194.1327,62.1414
194.1473,62.1647
194.2821,62.3792
194.4573,62.5988
194.6558,62.7974
194.8754,62.9725
195.1132,63.1219
195.3663,63.2438
195.5653,63.3135
195.6313,63.3366
195.6314,63.3366
195.9052,63.3991
195.9052,63.3991
195.9052,63.3991
196.0912,63.4200
196.1842,63.4305
196.1842,63.4305
196.1842,63.4305
196.4651,63.4305
196.4651,63.4305
196.6077,63.4144
196.7442,63.3991
196.7442,63.3991
196.7442,63.3991
197.0180,63.3366
197.2831,63.2438
197.5361,63.1219
197.7739,62.9725
197.9935,62.7974
198.1921,62.5988
198.3672,62.3792
198.5166,62.1414
198.6385,61.8884
198.7165,61.6655
198.7572,61.6088
198.8221,61.5830
198.8907,61.5965
198.9411,61.6448
198.9575,61.7067
198.9485,67.4641
198.9287,67.5311
198.8759,67.5768
198.8067,67.5866
198.7432,67.5575
198.7055,67.4986
198.7036,67.4915
198.6974,67.4641
198.6866,67.4167
198.5938,67.1516
198.4719,66.8986
198.3225,66.6608
198.1474,66.4412
197.9488,66.2426
197.9293,66.2270
197.8611,66.1726
197.7292,66.0675
197.4914,65.9181
197.4914,65.9181
197.2384,65.7962
196.9733,65.7034
196.9733,65.7034
196.6995,65.6409
196.6995,65.6409
196.4204,65.6095
196.4204,65.6095
196.1396,65.6095
196.1396,65.6095
195.8605,65.6409
195.8605,65.6409
195.5867,65.7034
195.5867,65.7034
195.3216,65.7962
195.0686,65.9181
194.8308,66.0675
194.6112,66.2426
194.4126,66.4412
194.2375,66.6608
194.0881,66.8986
193.9662,67.1516
193.8734,67.4167
193.8734,67.4167
193.8109,67.6905
193.8109,67.6905
193.7795,67.9696
193.7795,68.2504
193.8109,68.5295
193.8109,68.5295
193.8734,68.8033
193.8734,68.8033
193.9662,69.0684
194.0881,69.3214
194.0881,69.3214
194.2375,69.5592
194.4126,69.7788
194.6112,69.9774
194.8308,70.1525
195.0686,70.3019
195.3216,70.4238
195.5207,70.4935
195.5867,70.5166
195.5867,70.5166
195.8605,70.5791
195.8605,70.5791
195.8605,70.5791
196.0465,70.6000
196.1396,70.6105
196.1396,70.6105
196.1396,70.6105
196.4204,70.6105
196.4204,70.6105
196.5631,70.5944
196.6995,70.5791
196.6995,70.5791
196.6995,70.5791
196.9733,70.5166
197.2384,70.4238
197.4914,70.3019
197.7292,70.1525
197.9488,69.9774
198.1474,69.7788
198.3225,69.5592
198.4719,69.3214
198.5938,69.0684
198.6866,68.8033
198.7016,68.7374
198.7357,68.6764
198.7974,68.6436
198.8670,68.6493
198.9225,68.6917
198.9463,68.7574
198.9465,68.7652
198.9098,92.3249
198.8900,92.3919
198.8371,92.4376
198.7679,92.4474
198.7044,92.4183
198.6687,92.3657
198.5998,92.1687
198.5938,92.1516
198.4719,91.8986
198.3225,91.6608
198.1474,91.4412
197.9488,91.2426
197.7292,91.0675
197.4914,90.9181
197.4914,90.9181
197.2384,90.7962
196.9733,90.7034
196.9733,90.7034
196.6995,90.6409
196.6995,90.6409
196.4204,90.6095
196.4204,90.6095
196.1396,90.6095
196.1396,90.6095
195.8605,90.6409
195.8605,90.6409
195.5867,90.7034
195.5867,90.7034
195.3216,90.7962
195.0686,90.9181
194.8308,91.0675
194.6112,91.2426
194.4126,91.4412
194.2375,91.6608
194.0881,91.8986
193.9662,92.1516
193.8734,92.4167
193.8734,92.4167
193.8109,92.6905
193.8109,92.6905
193.7795,92.9696
193.7795,93.2504
193.8109,93.5295
193.8109,93.5295
193.8734,93.8033
193.8734,93.8033
193.9662,94.0684
194.0881,94.3214
194.0881,94.3214
194.2375,94.5592
194.3054,94.6445
194.4126,94.7788
194.6112,94.9774
194.8308,95.1525
194.8648,95.1739
194.9111,95.2262
194.9217,95.2953
194.8933,95.3591
194.8349,95.3975
194.7996,95.4029
181.9852,95.4899
181.9180,95.4707
181.8719,95.4182
181.8615,95.3491
181.8841,95.2930
181.9326,95.2262
181.9668,95.1792
182.0525,95.0108
182.1109,94.8311
182.1405,94.6445
182.1405,94.4555
182.1109,94.2689
182.0525,94.0892
181.9668,93.9208
181.8557,93.7679
181.7221,93.6343
181.5692,93.5232
181.4008,93.4375
181.2211,93.3791
181.0345,93.3495
181.0345,93.3495
180.8455,93.3495
180.8455,93.3495
180.6589,93.3791
180.4792,93.4375
180.3108,93.5232
180.2236,93.5866
180.1579,93.6343
180.1579,93.6343
180.1579,93.6343
180.0243,93.7679
180.0243,93.7679
180.0243,93.7679
179.9766,93.8336
179.9132,93.9208
179.8275,94.0892
179.8079,94.1493
179.7685,94.2069
179.7041,94.2341
179.6353,94.2222
179.5838,94.1750
179.5721,94.1493
179.5525,94.0892
179.4668,93.9208
179.3557,93.7679
179.2221,93.6343
179.0692,93.5232
178.9008,93.4375
178.7211,93.3791
178.5345,93.3495
178.5345,93.3495
178.3455,93.3495
178.3455,93.3495
178.1589,93.3791
177.9792,93.4375
177.8108,93.5232
177.7236,93.5866
177.6579,93.6343
177.6579,93.6343
177.6579,93.6343
177.5243,93.7679
177.5243,93.7679
177.5243,93.7679
177.4766,93.8336
177.4132,93.9208
177.3275,94.0892
177.3079,94.1493
177.2685,94.2069
177.2041,94.2341
177.1353,94.2222
177.0838,94.1750
177.0721,94.1493
177.0525,94.0892
176.9668,93.9208
176.8557,93.7679
176.7221,93.6343
176.5692,93.5232
176.4008,93.4375
176.2211,93.3791
176.0345,93.3495
176.0345,93.3495
175.8455,93.3495
175.8455,93.3495
175.6589,93.3791
175.4792,93.4375
175.3108,93.5232
175.2236,93.5866
175.1579,93.6343
175.1579,93.6343
175.1579,93.6343
175.0243,93.7679
175.0243,93.7679
175.0243,93.7679
174.9766,93.8336
174.9132,93.9208
174.8275,94.0892
174.7691,94.2689
174.7395,94.4555
174.7395,94.6445
174.7691,94.8311
174.8275,95.0108
174.9007,95.1546
174.9132,95.1792
175.0089,95.3108
175.0243,95.3321
175.0254,95.3333
175.0256,95.3339
175.0272,95.3360
175.0267,95.3363
175.0539,95.3971
175.0435,95.4662
174.9974,95.5186
174.9319,95.5378
134.9841,95.8092
134.9170,95.7899
134.8709,95.7374
134.8593,95.6859
134.8292,90.2942
134.8351,90.2736
134.8363,90.2523
134.8446,90.2407
134.8485,90.2271
134.8646,90.2130
134.8772,90.1956
134.8904,90.1904
134.9011,90.1810
134.9223,90.1779
134.9422,90.1700
134.9661,90.1713
134.9702,90.1707
134.9774,90.1719
135.0073,90.1779
135.1218,90.2006
135.1838,90.2330
135.1853,90.2346
138.1498,93.1990
138.1498,93.1990
138.1498,93.1990
138.2388,93.2504
138.2867,93.2781
138.4394,93.3190
138.4394,93.3190
138.6052,93.3190
138.6052,93.3190
174.3848,93.3190
174.3848,93.3190
174.3924,93.3190
174.5506,93.3190
174.5506,93.3190
174.7033,93.2781
174.7512,93.2504
174.7559,93.2477
174.7559,93.2477
174.8402,93.1990
174.9520,93.0872
174.9520,93.0872
174.9622,93.0770
174.9622,93.0770
175.5524,92.4868
175.6137,92.4533
175.6401,92.4505
176.4400,92.4505
176.4400,92.4505
176.5428,92.4400
176.7093,92.3848
176.8587,92.2927
176.9827,92.1687
177.0748,92.0193
177.1300,91.8528
177.1323,91.8304
177.1587,91.7657
177.2159,91.7256
177.2857,91.7227
177.3459,91.7581
177.3661,91.7867
177.4132,91.8792
177.5243,92.0321
177.6579,92.1657
177.8108,92.2768
177.8421,92.2927
177.9792,92.3625
177.9792,92.3625
177.9792,92.3625
178.0696,92.3919
178.1589,92.4209
178.3455,92.4505
178.3455,92.4505
178.5345,92.4505
178.7211,92.4209
178.7342,92.4167
178.9008,92.3625
179.0692,92.2768
179.2221,92.1657
179.3557,92.0321
179.4668,91.8792
179.5525,91.7108
179.5723,91.6499
179.6118,91.5923
179.6761,91.5651
179.7450,91.5770
179.7964,91.6242
179.8082,91.6499
179.8279,91.7106
179.9137,91.8789
179.9321,91.9043
180.4979,91.3386
180.5207,91.4237
180.5799,91.5263
180.6637,91.6101
180.7663,91.6693
180.8514,91.6921
180.2857,92.2579
180.2857,92.2579
180.3111,92.2763
180.4794,92.3621
180.6590,92.4205
180.8456,92.4500
181.0344,92.4500
181.2210,92.4205
181.4006,92.3621
181.5689,92.2763
181.5943,92.2579
181.5943,92.2579
181.0286,91.6921
181.1137,91.6693
181.2163,91.6101
181.3001,91.5263
181.3593,91.4237
181.3821,91.3386
181.9479,91.9043
181.9479,91.9043
181.9663,91.8789
182.0521,91.7106
182.1105,91.5310
182.1400,91.3444
182.1400,91.1556
182.1105,90.9690
182.0521,90.7894
181.9663,90.6211
181.9479,90.5957
181.9479,90.5957
181.3821,91.1614
181.3593,91.0763
181.3001,90.9737
181.2163,90.8899
181.1137,90.8307
181.0286,90.8079
181.5943,90.2421
181.5689,90.2237
181.4006,90.1379
181.2210,90.0795
181.0344,90.0500
180.8456,90.0500
180.6590,90.0795
180.4794,90.1379
180.3111,90.2237
180.2857,90.2421
180.2857,90.2421
180.8514,90.8079
180.7663,90.8307
180.6637,90.8899
180.5799,90.9737
180.5207,91.0763
180.4979,91.1614
179.9321,90.5957
179.9321,90.5957
179.9137,90.6211
179.8279,90.7894
179.8082,90.8501
179.7688,90.9077
179.7044,90.9349
179.6355,90.9230
179.5841,90.8758
179.5723,90.8501
179.5525,90.7892
179.4668,90.6208
179.3557,90.4679
179.2221,90.3343
179.0692,90.2232
178.9008,90.1375
178.7211,90.0791
178.5345,90.0495
178.5345,90.0495
178.3455,90.0495
178.3455,90.0495
178.1589,90.0791
177.9792,90.1375
177.8108,90.2232
177.7236,90.2866
177.6579,90.3343
177.6579,90.3343
177.6579,90.3343
177.5243,90.4679
177.5243,90.4679
177.5243,90.4679
177.4918,90.5126
177.4132,90.6208
177.3661,90.7133
177.3182,90.7641
177.2503,90.7809
177.1842,90.7583
177.1407,90.7036
177.1323,90.6696
177.1317,90.6639
177.1300,90.6472
177.0748,90.4807
176.9827,90.3313
176.8587,90.2073
176.7462,90.1379
176.7093,90.1152
176.7093,90.1152
176.6919,90.1094
176.5428,90.0600
176.5428,90.0600
176.4400,90.0495
175.4400,90.0495
175.4400,90.0495
175.3372,90.0600
175.3372,90.0600
175.1707,90.1152
175.1707,90.1152
175.0213,90.2073
174.8973,90.3313
174.8052,90.4807
174.8052,90.4807
174.7500,90.6472
174.7500,90.6472
174.7500,90.6472
174.7395,90.7500
174.7395,91.5499
174.7198,91.6169
174.7032,91.6376
174.3644,91.9764
174.2591,92.0817
174.1978,92.1152
174.1714,92.1180
159.6633,92.1180
159.5963,92.0983
159.5505,92.0455
159.5406,91.9764
159.5559,91.9320
159.5977,91.8597
159.5977,91.8596
159.6930,91.6295
159.7575,91.3890
159.7900,91.1420
159.7900,90.8930
159.7575,90.6460
159.6930,90.4055
159.5977,90.1754
159.5977,90.1753
159.4732,89.9597
159.4732,89.9596
159.3986,89.8625
159.3986,89.8625
158.4910,90.7700
158.4660,90.7096
158.3949,90.6031
158.3044,90.5126
158.1979,90.4415
158.1375,90.4165
159.0450,89.5089
158.9478,89.4343
158.9478,89.4343
158.7322,89.3098
158.7321,89.3098
158.5020,89.2145
158.2615,89.1500
158.0145,89.1175
157.7655,89.1175
157.5185,89.1500
157.2780,89.2145
157.0479,89.3098
157.0478,89.3098
156.8321,89.4343
156.7350,89.5089
156.7350,89.5089
157.6425,90.4165
157.5821,90.4415
157.4756,90.5126
157.3851,90.6031
157.3140,90.7096
157.2890,90.7700
156.3814,89.8625
156.3814,89.8625
156.3068,89.9596
156.1823,90.1753
156.1823,90.1754
156.0870,90.4055
156.0225,90.6460
155.9900,90.8930
155.9900,91.1420
156.0225,91.3890
156.0870,91.6295
156.1823,91.8596
156.1823,91.8597
156.2241,91.9320
156.2405,91.9999
156.2177,92.0659
156.1628,92.1091
156.1167,92.1180
154.9145,92.1180
154.8475,92.0983
154.8017,92.0455
154.7905,91.9940
154.7905,89.8175
154.7905,89.8175
154.7800,89.7147
154.7800,89.7147
154.7248,89.5482
154.7006,89.5089
154.6327,89.3988
154.6327,89.3988
154.5087,89.2748
154.5087,89.2748
154.3593,89.1827
154.3593,89.1827
154.2761,89.1551
154.1928,89.1275
154.1928,89.1275
154.0900,89.1170
154.0900,89.1170
151.6900,89.1170
151.6900,89.1170
151.5872,89.1275
151.5872,89.1275
151.4207,89.1827
151.4207,89.1827
151.2713,89.2748
151.2713,89.2748
151.1473,89.3988
151.1473,89.3988
151.0552,89.5482
151.0552,89.5482
151.0000,89.7147
151.0000,89.7147
150.9895,89.8175
150.9895,91.9940
150.9698,92.0610
150.9170,92.1068
150.8655,92.1180
138.8186,92.1180
138.7516,92.0983
138.7309,92.0817
136.0346,89.3853
136.0011,89.3240
136.0006,89.3218
135.9982,89.3098
135.9697,89.1665
135.9536,89.1275
135.9094,89.0208
135.9094,89.0208
135.8214,88.8891
135.8005,88.8224
135.8005,88.8202
135.8005,84.3579
135.8202,84.2909
135.8368,84.2703
135.9218,84.1853
136.0094,84.0542
136.0697,83.9085
136.1005,83.7538
136.1005,83.5962
136.1005,83.5962
136.1005,83.5962
136.0743,83.4645
136.0697,83.4415
136.0501,83.3941
136.0094,83.2958
136.0094,83.2958
135.9214,83.1641
135.9005,83.0974
135.9005,83.0952
135.9005,77.7376
192.1395,77.7376
192.1395,77.9424
192.1715,78.1445
192.2348,78.3392
192.3277,78.5216
192.4480,78.6872
192.5928,78.8320
192.7477,78.9446
192.7584,78.9523
192.8746,79.0115
192.9408,79.0452
192.9408,79.0452
192.9408,79.0452
193.0200,79.0709
193.1311,79.1071
193.1888,79.1465
193.2160,79.2109
193.2041,79.2797
193.1568,79.3312
193.1311,79.3429
192.9408,79.4048
192.7584,79.4977
192.5928,79.6180
192.4480,79.7628
192.3277,79.9284
192.2348,80.1108
192.1715,80.3055
192.1395,80.5076
192.1395,80.7124
192.1715,80.9145
192.2348,81.1092
192.3277,81.2916
192.4480,81.4572
192.5928,81.6020
192.7477,81.7146
192.7584,81.7223
192.8746,81.7815
192.9408,81.8152
192.9408,81.8152
192.9408,81.8152
193.0200,81.8409
193.1311,81.8771
193.1888,81.9165
193.2160,81.9809
193.2041,82.0497
193.1568,82.1012
193.1311,82.1129
192.9408,82.1748
192.7584,82.2677
192.5928,82.3880
192.4480,82.5328
192.3277,82.6984
192.2348,82.8808
192.1715,83.0755
192.1395,83.2776
192.1395,83.4824
192.1715,83.6845
192.2348,83.8792
192.2987,84.0047
192.3239,84.0542
192.3277,84.0616
192.4480,84.2272
192.5928,84.3720
192.7477,84.4846
192.7584,84.4923
192.9408,84.5852
193.0096,84.6076
193.0672,84.6470
193.0944,84.7114
193.0825,84.7802
193.0353,84.8317
192.9712,84.8495
192.5921,84.8495
192.5921,84.8495
192.5325,84.8559
192.3977,84.9062
192.3977,84.9062
192.2825,84.9925
192.2825,84.9925
192.1962,85.1077
192.1962,85.1077
192.1459,85.2425
192.1436,85.2642
192.1395,85.3021
192.1395,85.3021
192.1395,86.9979
192.1395,86.9979
192.1459,87.0575
192.1962,87.1923
192.1962,87.1923
192.2825,87.3075
192.2825,87.3075
192.3977,87.3938
192.3977,87.3938
192.5325,87.4441
192.5325,87.4441
192.5394,87.4448
192.5921,87.4505
194.2879,87.4505
194.3475,87.4441
194.4823,87.3938
194.5975,87.3075
194.6838,87.1923
194.7341,87.0575
194.7405,86.9979
194.7405,85.3021
194.7341,85.2425
194.6838,85.1077
194.6838,85.1077
194.6838,85.1077
194.5975,84.9925
194.5975,84.9925
194.4823,84.9062
194.4823,84.9062
194.3475,84.8559
194.3475,84.8559
194.2879,84.8495
194.2879,84.8495
194.2879,84.8495
194.2879,84.8495
193.9088,84.8495
193.8417,84.8298
193.7960,84.7770
193.7860,84.7079
193.8150,84.6443
193.8704,84.6076
193.9392,84.5852
194.1216,84.4923
194.2146,84.4247
194.2872,84.3720
194.2872,84.3720
194.2872,84.3720
194.4320,84.2272
194.4320,84.2272
194.4320,84.2272
194.4847,84.1546
194.5523,84.0616
194.6452,83.8792
194.7085,83.6845
194.7405,83.4824
194.7405,83.2776
194.7399,83.2738
194.7085,83.0755
194.6452,82.8808
194.6115,82.8146
194.5523,82.6984
194.5365,82.6766
194.4320,82.5328
194.2872,82.3880
194.1216,82.2677
194.1216,82.2677
194.1216,82.2677
194.0647,82.2387
193.9392,82.1748
193.7489,82.1129
193.6912,82.0735
193.6640,82.0091
193.6759,81.9403
193.7232,81.8888
193.7489,81.8771
193.7915,81.8632
193.9392,81.8152
194.1216,81.7223
194.2146,81.6547
194.2872,81.6020
194.2872,81.6020
194.2872,81.6020
194.4320,81.4572
194.4320,81.4572
194.4320,81.4572
194.4847,81.3846
194.5523,81.2916
194.6452,81.1092
194.7085,80.9145
194.7405,80.7124
194.7405,80.5076
194.7399,80.5038
194.7085,80.3055
194.6452,80.1108
194.6115,80.0446
194.5523,79.9284
194.5365,79.9066
194.4320,79.7628
194.2872,79.6180
194.1216,79.4977
194.1216,79.4977
194.1216,79.4977
194.0647,79.4687
193.9392,79.4048
193.7489,79.3429
193.6912,79.3035
193.6640,79.2391
193.6759,79.1703
193.7232,79.1188
193.7489,79.1071
193.7915,79.0932
193.9392,79.0452
194.1216,78.9523
194.2146,78.8847
194.2872,78.8320
194.2872,78.8320
194.2872,78.8320
194.4320,78.6872
194.4320,78.6872
194.4320,78.6872
194.4847,78.6146
194.5523,78.5216
194.6452,78.3392
194.7085,78.1445
194.7405,77.9424
194.7405,77.7376
194.7399,77.7338
194.7085,77.5355
194.6452,77.3408
194.6115,77.2746
194.5523,77.1584
194.5365,77.1366
194.4320,76.9928
194.2872,76.8480
194.1216,76.7277
194.1216,76.7277
194.1216,76.7277
194.0647,76.6987
193.9392,76.6348
193.7481,76.5727
193.6904,76.5332
193.6632,76.4689
193.6751,76.4000
193.7186,76.3526
194.9795,76.3526
194.9795,76.5574
195.0115,76.7595
195.0748,76.9542
195.1677,77.1366
195.2880,77.3022
195.4328,77.4470
195.5877,77.5596
195.5984,77.5673
195.7146,77.6265
195.7808,77.6602
195.7808,77.6602
195.7808,77.6602
195.8600,77.6859
195.9711,77.7221
196.0288,77.7615
196.0560,77.8259
196.0441,77.8947
195.9968,77.9462
195.9711,77.9579
195.7808,78.0198
195.5984,78.1127
195.4328,78.2330
195.2880,78.3778
195.1677,78.5434
195.0748,78.7258
195.0115,78.9205
194.9795,79.1226
194.9795,79.3274
195.0115,79.5295
195.0748,79.7242
195.1677,79.9066
195.2880,80.0722
195.4328,80.2170
195.5877,80.3296
195.5984,80.3373
195.7146,80.3965
195.7808,80.4302
195.7808,80.4302
195.7808,80.4302
195.8600,80.4559
195.9711,80.4921
196.0288,80.5315
196.0560,80.5959
196.0441,80.6647
195.9968,80.7162
195.9711,80.7279
195.7808,80.7898
195.5984,80.8827
195.4328,81.0030
195.2880,81.1478
195.1677,81.3134
195.0748,81.4958
195.0115,81.6905
194.9795,81.8926
194.9795,82.0974
195.0115,82.2995
195.0748,82.4942
195.1677,82.6766
195.2880,82.8422
195.4328,82.9870
195.5818,83.0952
195.5984,83.1073
195.7099,83.1641
195.7808,83.2002
195.7808,83.2002
195.7808,83.2002
195.8600,83.2259
195.9711,83.2621
196.0288,83.3015
196.0560,83.3659
196.0441,83.4347
195.9968,83.4862
195.9711,83.4979
195.7808,83.5598
195.5984,83.6527
195.4328,83.7730
195.2880,83.9178
195.1677,84.0834
195.0748,84.2658
195.0115,84.4605
194.9795,84.6626
194.9795,84.8674
195.0115,85.0695
195.0748,85.2642
195.1677,85.4466
195.2880,85.6122
195.4328,85.7570
195.5877,85.8696
195.5984,85.8773
195.7146,85.9365
195.7808,85.9702
195.7808,85.9702
195.7808,85.9702
195.8851,86.0041
195.9755,86.0335
196.0766,86.0495
196.1776,86.0655
196.1776,86.0655
196.3824,86.0655
196.3824,86.0655
196.5845,86.0335
196.7792,85.9702
196.9616,85.8773
197.0546,85.8097
197.1272,85.7570
197.1272,85.7570
197.1272,85.7570
197.2720,85.6122
197.2720,85.6122
197.2720,85.6122
197.3247,85.5396
197.3923,85.4466
197.4852,85.2642
197.5485,85.0695
197.5805,84.8674
197.5805,84.6626
197.5485,84.4605
197.4934,84.2909
197.4852,84.2658
197.4852,84.2658
197.4852,84.2658
197.4442,84.1853
197.3923,84.0834
197.3765,84.0616
197.2720,83.9178
197.1272,83.7730
196.9616,83.6527
196.9616,83.6527
196.9616,83.6527
196.9047,83.6237
196.7792,83.5598
196.5889,83.4979
196.5312,83.4585
196.5040,83.3941
196.5159,83.3253
196.5632,83.2738
196.5889,83.2621
196.6315,83.2482
196.7792,83.2002
196.9616,83.1073
197.0546,83.0397
197.1272,82.9870
197.1272,82.9870
197.1272,82.9870
197.2720,82.8422
197.2720,82.8422
197.2720,82.8422
197.3247,82.7696
197.3923,82.6766
197.4852,82.4942
197.5485,82.2995
197.5805,82.0974
197.5805,81.8926
197.5799,81.8888
197.5485,81.6905
197.4852,81.4958
197.4515,81.4296
197.3923,81.3134
197.3765,81.2916
197.2720,81.1478
197.1272,81.0030
196.9616,80.8827
196.9616,80.8827
196.9616,80.8827
196.9047,80.8537
196.7792,80.7898
196.5889,80.7279
196.5312,80.6885
196.5040,80.6241
196.5159,80.5553
196.5632,80.5038
196.5889,80.4921
196.6315,80.4782
196.7792,80.4302
196.9616,80.3373
197.0546,80.2697
197.1272,80.2170
197.1272,80.2170
197.1272,80.2170
197.2720,80.0722
197.2720,80.0722
197.2720,80.0722
197.3247,79.9996
197.3923,79.9066
197.4852,79.7242
197.5485,79.5295
197.5805,79.3274
197.5805,79.1226
197.5799,79.1188
197.5485,78.9205
197.4852,78.7258
197.4515,78.6596
197.3923,78.5434
197.3765,78.5216
197.2720,78.3778
197.1272,78.2330
196.9616,78.1127
196.9616,78.1127
196.9616,78.1127
196.9047,78.0837
196.7792,78.0198
196.5889,77.9579
196.5312,77.9185
196.5040,77.8541
196.5159,77.7853
196.5632,77.7338
196.5889,77.7221
196.6315,77.7082
196.7792,77.6602
196.9616,77.5673
197.0546,77.4997
197.1272,77.4470
197.1272,77.4470
197.1272,77.4470
197.2720,77.3022
197.2720,77.3022
197.2720,77.3022
197.3247,77.2296
197.3923,77.1366
197.4852,76.9542
197.5485,76.7595
197.5805,76.5574
197.5805,76.3526
197.5504,76.1627
197.5485,76.1505
197.4852,75.9558
197.4484,75.8835
197.3923,75.7734
197.3763,75.7514
197.2720,75.6078
197.1272,75.4630
196.9616,75.3427
196.9616,75.3427
196.9616,75.3427
196.9047,75.3137
196.7792,75.2498
196.5845,75.1865
196.4100,75.1589
196.3824,75.1545
196.1776,75.1545
196.1533,75.1584
195.9755,75.1865
195.7808,75.2498
195.5984,75.3427
195.4328,75.4630
195.2880,75.6078
195.1677,75.7734
195.0748,75.9558
195.0115,76.1505
194.9795,76.3526
193.7186,76.3526
193.7223,76.3485
193.7481,76.3368
193.9390,76.2748
194.0126,76.2373
194.1213,76.1819
194.1659,76.1495
193.5694,75.5530
193.6330,75.5359
193.7470,75.4701
193.8401,75.3770
193.9059,75.2630
193.9230,75.1994
194.5195,75.7959
194.5519,75.7513
194.6448,75.5690
194.7080,75.3744
194.7400,75.1723
194.7400,74.9677
194.7080,74.7656
194.6448,74.5710
194.5519,74.3886
194.5195,74.3441
194.5195,74.3441
193.9230,74.9406
193.9059,74.8770
193.8401,74.7630
193.7470,74.6699
193.6330,74.6041
193.5694,74.5870
194.1659,73.9905
194.1659,73.9905
194.1214,73.9581
194.1213,73.9581
193.9390,73.8652
193.7444,73.8020
193.5423,73.7700
193.3377,73.7700
193.1356,73.8020
192.9410,73.8652
192.7586,73.9581
192.7141,73.9905
192.7141,73.9905
193.3106,74.5870
193.2470,74.6041
193.1330,74.6699
193.0399,74.7630
192.9741,74.8770
192.9570,74.9406
192.3605,74.3441
192.3605,74.3441
192.3281,74.3886
192.2352,74.5710
192.1720,74.7656
192.1400,74.9677
192.1400,75.1723
192.1720,75.3744
192.2352,75.5690
192.3281,75.7514
192.3281,75.7514
192.3605,75.7959
192.3605,75.7959
192.9570,75.1994
192.9741,75.2630
193.0399,75.3770
193.1330,75.4701
193.2470,75.5359
193.3106,75.5530
192.7141,76.1495
192.7586,76.1819
192.9410,76.2748
193.1319,76.3368
193.1896,76.3762
193.2168,76.4406
193.2049,76.5094
193.1577,76.5609
193.1319,76.5727
192.9408,76.6348
192.7584,76.7277
192.5928,76.8480
192.4480,76.9928
192.3277,77.1584
192.2348,77.3408
192.1715,77.5355
192.1395,77.7376
135.9005,77.7376
135.9005,76.2298
135.9202,76.1627
135.9214,76.1609
135.9284,76.1505
136.0094,76.0292
136.0697,75.8835
136.1005,75.7288
136.1005,75.5712
136.1005,75.5712
136.1005,75.5712
136.0804,75.4701
136.0697,75.4165
136.0697,75.4165
136.0094,75.2708
136.0094,75.2708
135.9218,75.1397
135.9218,75.1397
135.8868,75.1047
135.8721,75.0778
135.8555,75.0520
135.8546,75.0458
135.8533,75.0434
135.8505,75.0171
135.8505,66.8102
135.8702,66.7432
135.9230,66.6974
135.9270,66.6956
135.9403,66.6902
135.9542,66.6844
136.0853,66.5968
136.1968,66.4853
136.2844,66.3542
136.3371,66.2270
136.3809,66.1726
136.4472,66.1506
136.4516,66.1505
144.2133,66.1505
144.2133,66.1505
144.2209,66.1505
144.3791,66.1505
144.3791,66.1505
144.5318,66.1096
144.6034,66.0682
144.6687,66.0305
144.7805,65.9187
144.7805,65.9187
144.7907,65.9085
144.7907,65.9085
147.0873,63.6119
147.1486,63.5784
147.2183,63.5834
147.2627,63.6119
150.4006,66.7498
150.4274,66.7900
150.4721,66.8977
150.4721,66.8977
150.5597,67.0288
150.5597,67.0288
150.6712,67.1403
150.6712,67.1403
150.8023,67.2279
150.8023,67.2279
150.9479,67.2883
150.9480,67.2883
151.1026,67.3190
151.1026,67.3190
151.1026,67.3190
151.2603,67.3190
151.2603,67.3190
151.4149,67.2883
151.5606,67.2279
151.6917,67.1403
151.8032,67.0288
151.8908,66.8977
151.9512,66.7520
151.9819,66.5974
151.9819,66.4397
151.9819,66.4397
151.9819,66.4397
151.9649,66.3542
151.9512,66.2851
151.9336,66.2426
151.8908,66.1394
151.8908,66.1394
151.8032,66.0083
151.8032,66.0083
151.6917,65.8968
151.6917,65.8968
151.5606,65.8092
151.5606,65.8092
151.4150,65.7488
151.4149,65.7488
151.2603,65.7180
151.2603,65.7180
151.1186,65.7180
151.0516,65.6984
151.0310,65.6817
148.4369,63.0877
148.4034,63.0264
148.4084,62.9567
148.4369,62.9123
163.4123,47.9369
163.4736,47.9034
163.5433,47.9084
163.5877,47.9369
168.6313,52.9805
168.6313,52.9805
168.6313,52.9805
168.7532,53.0509
168.7682,53.0596
168.9209,53.1005
168.9209,53.1005
169.0867,53.1005
169.0867,53.1005
172.4202,53.1005
172.4873,53.1202
172.4891,53.1214
172.6208,53.2094
172.6208,53.2094
172.7665,53.2697
172.7665,53.2697
172.9212,53.3005
172.9212,53.3005
172.9212,53.3005
173.0788,53.3005
173.0788,53.3005
173.2335,53.2697
173.3792,53.2094
173.5103,53.1218
173.6218,53.0103
173.7094,52.8792
173.7697,52.7335
173.8005,52.5788
173.8005,52.4212
173.8005,52.4212
173.8005,52.4212
173.7906,52.3712
173.7697,52.2665
173.7552,52.2314
173.7094,52.1208
173.7094,52.1208
173.6218,51.9897
173.6218,51.9897
173.5103,51.8782
173.5103,51.8782
173.3792,51.7906
173.3792,51.7906
173.2335,51.7303
173.2335,51.7303
173.0788,51.6995
173.0788,51.6995
172.9212,51.6995
172.9212,51.6995
172.7665,51.7303
172.7665,51.7303
172.6208,51.7906
172.6208,51.7906
172.4891,51.8786
172.4224,51.8995
172.4202,51.8995
169.3001,51.8995
169.2331,51.8798
169.2124,51.8632
168.5297,51.1805
167.1498,49.8006
164.4369,47.0877
164.4034,47.0264
164.4084,46.9567
164.4369,46.9123
165.1900,46.1592
166.2305,45.1187
166.3096,44.9818
166.3505,44.8291
166.3505,44.6709
166.3505,44.6633
166.3505,44.6633
166.3505,43.5798
166.3702,43.5127
166.3714,43.5109
166.4594,43.3792
166.4594,43.3792
166.4594,43.3792
166.5197,43.2335
166.5505,43.0788
166.5505,42.9212
166.5505,42.9212
166.5431,42.8841
166.5438,42.8761
166.5411,42.8687
166.5469,42.8418
166.5493,42.8145
166.5546,42.8064
166.5559,42.8004
166.5655,42.7876
192.1842,42.7876
192.1842,42.9924
192.2162,43.1945
192.2794,43.3892
192.3411,43.5103
192.3662,43.5595
192.3724,43.5716
192.4927,43.7372
192.6375,43.8820
192.7924,43.9946
192.8031,44.0023
192.9110,44.0573
192.9854,44.0952
192.9854,44.0952
192.9854,44.0952
193.0646,44.1209
193.1758,44.1571
193.2335,44.1965
193.2607,44.2609
193.2488,44.3297
193.2015,44.3812
193.1758,44.3929
192.9854,44.4548
192.8031,44.5477
192.6375,44.6680
192.4927,44.8128
192.3724,44.9784
192.2794,45.1608
192.2162,45.3555
192.1842,45.5576
192.1842,45.7624
192.2162,45.9645
192.2794,46.1592
192.3724,46.3416
192.4927,46.5072
192.6375,46.6520
192.7924,46.7646
192.8031,46.7723
192.9854,46.8652
193.1304,46.9123
193.1766,46.9273
193.2343,46.9668
193.2615,47.0311
193.2496,47.1000
193.2023,47.1514
193.1766,47.1632
192.9856,47.2252
192.8033,47.3181
192.7587,47.3505
192.7587,47.3505
193.3553,47.9470
193.2917,47.9641
193.1777,48.0299
193.0846,48.1230
193.0187,48.2370
193.0017,48.3006
192.4052,47.7041
192.4052,47.7041
192.3728,47.7486
192.2799,47.9310
192.2167,48.1256
192.1847,48.3277
192.1847,48.5323
192.2167,48.7344
192.2799,48.9290
192.3728,49.1113
192.3728,49.1114
192.4052,49.1559
192.4052,49.1559
193.0017,48.5594
193.0187,48.6230
193.0846,48.7370
193.1777,48.8301
193.2917,48.8959
193.3553,48.9130
192.7587,49.5095
192.8033,49.5419
192.9856,49.6348
193.1766,49.6968
193.2343,49.7362
193.2615,49.8006
193.2496,49.8694
193.2023,49.9209
193.1766,49.9327
192.9854,49.9948
192.8031,50.0877
192.6375,50.2080
192.4927,50.3528
192.3724,50.5184
192.2794,50.7008
192.2162,50.8955
192.1842,51.0976
192.1842,51.3024
192.2162,51.5045
192.2794,51.6992
192.3434,51.8247
192.3715,51.8798
192.3724,51.8816
192.4927,52.0472
192.6375,52.1920
192.7559,52.2780
192.8031,52.3123
192.9854,52.4052
193.0542,52.4276
193.1119,52.4670
193.1391,52.5314
193.1272,52.6002
193.0800,52.6517
193.0159,52.6695
192.6368,52.6695
192.6368,52.6695
192.5772,52.6759
192.4423,52.7262
192.4423,52.7262
192.3271,52.8125
192.3271,52.8125
192.2409,52.9277
192.2409,52.9277
192.1906,53.0625
192.1842,53.1218
192.1842,53.1221
192.1842,53.1221
192.1842,54.8179
192.1842,54.8179
192.1906,54.8775
192.2409,55.0123
192.2409,55.0123
192.3271,55.1275
192.3271,55.1275
192.4423,55.2138
192.4423,55.2138
192.5772,55.2641
192.5772,55.2641
192.5841,55.2648
192.6368,55.2705
194.3325,55.2705
194.3922,55.2641
194.5270,55.2138
194.6422,55.1275
194.7285,55.0123
194.7788,54.8775
194.7852,54.8179
194.7852,53.1221
194.7788,53.0625
194.7777,53.0596
194.7285,52.9277
194.7285,52.9277
194.6422,52.8125
194.6422,52.8125
194.5270,52.7262
194.5270,52.7262
194.3922,52.6759
194.3922,52.6759
194.3326,52.6695
194.3325,52.6695
194.3325,52.6695
194.3325,52.6695
193.9534,52.6695
193.9429,52.6664
193.9320,52.6676
193.9100,52.6567
193.8864,52.6498
193.8792,52.6415
193.8694,52.6367
193.8567,52.6156
193.8406,52.5970
193.8391,52.5862
193.8334,52.5768
193.8342,52.5522
193.8307,52.5279
193.8352,52.5179
193.8356,52.5069
193.8495,52.4867
193.8597,52.4643
193.8700,52.4569
193.8751,52.4493
193.8961,52.4379
193.9054,52.4312
193.9102,52.4292
193.9839,52.4052
194.1663,52.3123
194.2293,52.2665
194.3319,52.1920
194.3319,52.1920
194.3319,52.1920
194.4766,52.0472
194.4766,52.0472
194.4766,52.0472
194.5840,51.8995
194.5970,51.8816
194.6899,51.6992
194.7531,51.5045
194.7852,51.3024
194.7852,51.0976
194.7846,51.0941
194.7531,50.8955
194.6899,50.7008
194.6562,50.6346
194.5970,50.5184
194.5811,50.4966
194.4766,50.3528
194.3319,50.2080
194.1663,50.0877
194.1663,50.0877
194.1663,50.0877
194.1093,50.0587
193.9839,49.9948
193.7927,49.9327
193.7351,49.8932
193.7079,49.8289
193.7198,49.7600
193.7670,49.7085
193.7927,49.6968
193.9837,49.6348
194.1660,49.5419
194.2106,49.5095
193.6141,48.9130
193.6777,48.8959
193.7917,48.8301
193.8848,48.7370
193.9506,48.6230
193.9676,48.5594
194.5641,49.1559
194.5965,49.1113
194.6894,48.9290
194.7527,48.7344
194.7847,48.5323
194.7847,48.3277
194.7527,48.1256
194.6894,47.9310
194.5965,47.7486
194.5641,47.7041
194.5641,47.7041
193.9676,48.3006
193.9506,48.2370
193.8848,48.1230
193.7917,48.0299
193.6777,47.9641
193.6141,47.9470
194.2106,47.3505
194.2106,47.3505
194.1660,47.3181
194.1660,47.3181
193.9837,47.2252
193.7927,47.1632
193.7351,47.1238
193.7079,47.0594
193.7198,46.9905
193.7670,46.9391
193.7927,46.9273
193.9839,46.8652
194.1663,46.7723
194.2593,46.7047
194.3319,46.6520
194.3319,46.6520
194.3319,46.6520
194.4766,46.5072
194.4766,46.5072
194.4766,46.5072
194.5294,46.4346
194.5970,46.3416
194.6899,46.1592
194.7531,45.9645
194.7852,45.7624
194.7852,45.5576
194.7846,45.5538
194.7531,45.3555
194.6899,45.1608
194.6562,45.0946
194.5970,44.9784
194.5811,44.9566
194.4766,44.8128
194.3319,44.6680
194.1663,44.5477
194.1663,44.5477
194.1663,44.5477
194.0751,44.5013
193.9839,44.4548
193.7935,44.3929
193.7359,44.3535
193.7087,44.2891
193.7206,44.2203
193.7643,44.1726
195.0242,44.1726
195.0242,44.3774
195.0562,44.5795
195.1195,44.7742
195.2124,44.9566
195.3327,45.1222
195.4775,45.2670
195.6324,45.3796
195.6431,45.3873
195.7593,45.4465
195.8254,45.4802
195.8254,45.4802
195.8254,45.4802
195.9046,45.5059
196.0158,45.5421
196.0735,45.5815
196.1007,45.6459
196.0888,45.7147
196.0415,45.7662
196.0158,45.7779
195.8254,45.8398
195.6431,45.9327
195.4775,46.0530
195.3327,46.1978
195.2124,46.3634
195.1195,46.5458
195.0562,46.7405
195.0242,46.9426
195.0242,47.1474
195.0562,47.3495
195.1195,47.5442
195.1834,47.6697
195.2009,47.7041
195.2124,47.7266
195.3327,47.8922
195.4775,48.0370
195.5959,48.1230
195.6431,48.1573
195.7593,48.2165
195.8254,48.2502
195.8254,48.2502
195.8254,48.2502
195.9046,48.2759
196.0158,48.3121
196.0735,48.3515
196.1007,48.4159
196.0888,48.4847
196.0415,48.5362
196.0158,48.5479
195.8254,48.6098
195.6431,48.7027
195.4775,48.8230
195.3327,48.9678
195.2124,49.1334
195.1195,49.3158
195.0562,49.5105
195.0242,49.7126
195.0242,49.9174
195.0562,50.1195
195.1195,50.3142
195.2124,50.4966
195.3327,50.6622
195.4775,50.8070
195.6324,50.9196
195.6431,50.9273
195.8254,51.0202
195.9715,51.0677
196.0166,51.0823
196.0743,51.1218
196.1015,51.1861
196.0896,51.2550
196.0423,51.3064
196.0166,51.3182
195.8256,51.3802
195.6433,51.4731
195.5987,51.5055
195.5987,51.5055
196.1953,52.1020
196.1317,52.1191
196.0177,52.1849
195.9246,52.2780
195.8587,52.3920
195.8417,52.4556
195.2452,51.8591
195.2452,51.8591
195.2128,51.9036
195.1199,52.0860
195.0567,52.2806
195.0247,52.4827
195.0247,52.6873
195.0567,52.8894
195.1199,53.0840
195.2128,53.2663
195.2128,53.2664
195.2452,53.3109
195.2452,53.3109
195.8417,52.7144
195.8587,52.7780
195.9246,52.8920
196.0177,52.9851
196.1317,53.0509
196.1953,53.0680
195.5987,53.6645
195.6433,53.6969
195.8256,53.7898
196.0203,53.8530
196.2224,53.8850
196.4270,53.8850
196.6291,53.8530
196.8237,53.7898
197.0060,53.6969
197.0506,53.6645
196.4541,53.0680
196.5177,53.0509
196.6317,52.9851
196.7248,52.8920
196.7906,52.7780
196.8076,52.7144
197.4041,53.3109
197.4365,53.2663
197.5294,53.0840
197.5927,52.8894
197.6247,52.6873
197.6247,52.4827
197.5927,52.2806
197.5294,52.0860
197.4365,51.9036
197.4041,51.8591
197.4041,51.8591
196.8076,52.4556
196.7906,52.3920
196.7248,52.2780
196.6317,52.1849
196.5177,52.1191
196.4541,52.1020
197.0506,51.5055
197.0506,51.5055
197.0060,51.4731
197.0060,51.4731
196.8237,51.3802
196.6327,51.3182
196.5751,51.2788
196.5479,51.2144
196.5598,51.1456
196.6070,51.0941
196.6327,51.0823
196.8239,51.0202
197.0063,50.9273
197.0993,50.8597
197.1719,50.8070
197.1719,50.8070
197.1719,50.8070
197.3166,50.6622
197.3166,50.6622
197.3166,50.6622
197.3694,50.5896
197.4370,50.4966
197.5299,50.3142
197.5931,50.1195
197.6252,49.9174
197.6252,49.7126
197.5931,49.5105
197.5299,49.3158
197.5299,49.3158
197.5299,49.3158
197.4962,49.2496
197.4370,49.1334
197.4209,49.1113
197.3166,48.9678
197.1719,48.8230
197.0063,48.7027
197.0063,48.7027
197.0063,48.7027
196.9493,48.6737
196.8239,48.6098
196.6335,48.5479
196.5759,48.5085
196.5487,48.4441
196.5606,48.3753
196.6078,48.3238
196.6335,48.3121
196.6762,48.2982
196.8239,48.2502
197.0063,48.1573
197.1175,48.0764
197.1719,48.0370
197.1719,48.0370
197.1719,48.0370
197.3166,47.8922
197.3166,47.8922
197.3166,47.8922
197.4209,47.7486
197.4370,47.7266
197.5299,47.5442
197.5931,47.3495
197.6252,47.1474
197.6252,46.9426
197.6246,46.9391
197.5931,46.7405
197.5299,46.5458
197.4962,46.4796
197.4370,46.3634
197.4211,46.3416
197.3166,46.1978
197.1719,46.0530
197.0063,45.9327
197.0063,45.9327
197.0063,45.9327
196.9493,45.9037
196.8239,45.8398
196.6335,45.7779
196.5759,45.7385
196.5487,45.6741
196.5606,45.6053
196.6078,45.5538
196.6335,45.5421
196.6762,45.5282
196.8239,45.4802
197.0063,45.3873
197.0993,45.3197
197.1719,45.2670
197.1719,45.2670
197.1719,45.2670
197.3166,45.1222
197.3166,45.1222
197.3166,45.1222
197.3694,45.0496
197.4370,44.9566
197.5299,44.7742
197.5931,44.5795
197.6252,44.3774
197.6252,44.1726
197.6246,44.1688
197.5931,43.9705
197.5299,43.7758
197.4699,43.6580
197.4370,43.5934
197.4123,43.5595
197.3166,43.4278
197.1719,43.2830
197.0063,43.1627
197.0063,43.1627
197.0063,43.1627
196.9493,43.1337
196.8239,43.0698
196.6292,43.0065
196.4547,42.9789
196.4270,42.9745
196.2223,42.9745
196.1980,42.9784
196.0201,43.0065
195.8254,43.0698
195.6431,43.1627
195.4775,43.2830
195.3327,43.4278
195.2124,43.5934
195.1195,43.7758
195.0562,43.9705
195.0242,44.1726
193.7643,44.1726
193.7678,44.1688
193.7935,44.1571
193.8362,44.1432
193.9839,44.0952
194.1663,44.0023
194.2593,43.9347
194.3319,43.8820
194.3319,43.8820
194.3319,43.8820
194.4766,43.7372
194.4766,43.7372
194.4766,43.7372
194.5342,43.6580
194.5970,43.5716
194.6899,43.3892
194.7531,43.1945
194.7852,42.9924
194.7852,42.7876
194.7531,42.5855
194.6899,42.3908
194.6899,42.3908
194.6899,42.3908
194.6454,42.3034
194.5970,42.2084
194.5892,42.1977
194.4766,42.0428
194.3319,41.8980
194.1663,41.7777
194.1663,41.7777
194.1663,41.7777
194.1093,41.7487
193.9839,41.6848
193.7892,41.6215
193.6147,41.5939
193.5870,41.5895
193.3823,41.5895
193.3580,41.5934
193.1801,41.6215
192.9854,41.6848
192.8031,41.7777
192.6375,41.8980
192.4927,42.0428
192.3724,42.2084
192.2794,42.3908
192.2162,42.5855
192.1842,42.7876
166.5655,42.7876
166.5771,42.7722
167.0147,42.3346
167.0760,42.3011
167.0781,42.3006
167.1361,42.2891
167.2335,42.2697
167.3792,42.2094
167.5103,42.1218
167.6218,42.0103
167.7094,41.8792
167.7697,41.7335
167.8005,41.5788
167.8005,41.4212
167.8005,41.4212
167.8005,41.4212
167.7697,41.2665
167.7697,41.2665
167.7697,41.2665
167.7697,41.2665
167.7094,41.1208
167.7094,41.1208
167.6218,40.9897
167.6218,40.9897
167.5103,40.8782
167.5103,40.8782
167.3792,40.7906
167.3792,40.7906
167.2335,40.7303
167.2335,40.7303
167.0788,40.6995
167.0788,40.6995
166.9212,40.6995
166.9212,40.6995
166.7665,40.7303
166.7665,40.7303
166.6208,40.7906
166.6208,40.7906
166.4897,40.8782
166.4897,40.8782
166.3782,40.9897
166.3782,40.9897
166.2906,41.1208
166.2906,41.1208
166.2303,41.2665
166.2303,41.2665
166.1994,41.4218
166.1670,41.4838
166.1654,41.4853
165.3813,42.2695
165.3813,42.2695
165.3813,42.2695
165.3473,42.3034
165.3285,42.3189
165.2397,42.3782
165.2397,42.3782
165.1282,42.4897
165.1282,42.4897
165.0406,42.6208
165.0406,42.6208
164.9803,42.7665
164.9803,42.7665
164.9495,42.9212
164.9495,43.0788
164.9803,43.2335
164.9803,43.2335
165.0406,43.3792
165.0406,43.3792
165.1286,43.5109
165.1495,43.5776
165.1495,43.5798
165.1495,44.4499
165.1298,44.5169
165.1132,44.5376
163.1313,46.5195
147.7046,61.9462
147.6432,61.9797
147.5735,61.9747
147.5584,61.9679
147.5542,61.9656
147.5542,61.9656
147.5542,61.9656
147.5542,61.9656
147.4085,61.9053
147.4085,61.9053
147.2538,61.8745
147.2538,61.8745
147.0962,61.8745
147.0962,61.8745
146.9415,61.9053
146.9415,61.9053
146.7958,61.9656
146.7958,61.9656
146.6647,62.0532
146.6647,62.0532
146.5532,62.1647
146.5532,62.1647
146.4656,62.2958
146.4656,62.2958
146.4053,62.4415
146.4053,62.4415
146.3744,62.5968
146.3420,62.6588
146.3404,62.6603
144.0876,64.9132
144.0263,64.9467
143.9999,64.9495
136.0867,64.9495
136.0867,64.9495
136.0791,64.9495
135.9209,64.9495
135.8446,64.9700
135.7682,64.9904
135.7682,64.9904
135.6313,65.0695
135.6313,65.0695
135.5603,65.1404
135.4990,65.1739
135.4968,65.1744
135.3415,65.2053
135.3415,65.2053
135.1958,65.2656
135.1958,65.2656
135.0647,65.3532
135.0647,65.3532
134.9532,65.4647
134.9532,65.4647
134.9178,65.5178
134.8641,65.5626
134.7948,65.5713
134.7318,65.5411
134.6951,65.4817
134.6907,65.4496
134.6507,58.2825
134.6700,58.2154
134.7225,58.1693
134.7725,58.1578
144.2600,57.9900
144.2301,31.7932
144.2497,31.7261
144.3025,31.6803
144.3532,31.6690
144.9925,31.6641
145.0597,31.6832
145.0812,31.7004
147.6062,34.2255
147.6397,34.2868
147.6365,34.3515
147.6228,34.3938
147.5895,34.6037
147.5895,34.8163
147.6169,34.9895
147.6228,35.0262
147.6649,35.1559
147.6884,35.2284
147.7850,35.4178
147.9099,35.5898
148.0602,35.7401
148.2322,35.8650
148.2322,35.8650
148.2322,35.8651
148.4216,35.9616
148.6238,36.0272
148.8337,36.0605
148.8337,36.0605
149.0463,36.0605
149.0463,36.0605
149.2562,36.0272
149.4584,35.9616
149.6478,35.8651
149.7345,35.8021
149.8198,35.7401
149.8198,35.7401
149.8198,35.7401
149.9701,35.5898
149.9701,35.5898
149.9701,35.5898
150.0950,35.4178
150.0950,35.4178
150.0951,35.4178
150.0995,35.4091
150.1475,35.3583
150.2153,35.3415
150.2814,35.3640
150.3205,35.4091
150.3250,35.4178
150.4499,35.5898
150.6002,35.7401
150.7722,35.8650
150.7722,35.8650
150.7722,35.8651
150.9616,35.9616
151.1638,36.0272
151.3737,36.0605
151.3737,36.0605
151.5863,36.0605
151.5863,36.0605
151.7962,36.0272
151.9984,35.9616
152.1878,35.8651
152.2745,35.8021
152.3598,35.7401
152.3598,35.7401
152.3598,35.7401
152.5101,35.5898
152.5101,35.5898
152.5101,35.5898
152.6350,35.4178
152.6350,35.4178
152.6351,35.4178
152.6395,35.4091
152.6875,35.3583
152.7553,35.3415
152.8214,35.3640
152.8605,35.4091
152.8650,35.4178
152.9899,35.5898
153.1402,35.7401
153.3122,35.8650
153.3122,35.8650
153.3122,35.8651
153.5016,35.9616
153.7038,36.0272
153.9137,36.0605
153.9137,36.0605
154.1263,36.0605
154.1263,36.0605
154.3362,36.0272
154.5384,35.9616
154.7278,35.8651
154.8145,35.8021
154.8998,35.7401
154.8998,35.7401
154.8998,35.7401
155.0501,35.5898
155.0501,35.5898
155.0501,35.5898
155.1750,35.4178
155.1750,35.4178
155.1751,35.4178
155.1795,35.4091
155.2275,35.3583
155.2953,35.3415
155.3614,35.3640
155.4005,35.4091
155.4050,35.4178
155.5299,35.5898
155.6802,35.7401
155.8522,35.8650
155.8522,35.8650
155.8522,35.8651
156.0416,35.9616
156.2438,36.0272
156.4537,36.0605
156.4537,36.0605
156.6663,36.0605
156.6663,36.0605
156.8762,36.0272
157.0784,35.9616
157.2678,35.8651
157.3545,35.8021
157.4398,35.7401
157.4398,35.7401
157.4398,35.7401
157.5537,35.6262
157.6150,35.5927
157.6847,35.5977
157.7407,35.6396
157.7576,35.6705
157.8066,35.8021
157.8066,35.8021
157.8928,35.9172
157.8928,35.9172
158.0079,36.0033
158.0079,36.0034
158.1426,36.0536
158.1426,36.0536
158.2022,36.0600
158.2022,36.0600
158.8500,36.0600
158.8500,35.1430
158.9070,35.1759
159.0342,35.2100
159.1658,35.2100
159.2930,35.1759
159.3500,35.1430
159.3500,36.0600
159.9978,36.0600
159.9978,36.0600
160.0574,36.0536
160.0574,36.0536
160.1921,36.0034
160.1921,36.0033
160.3072,35.9172
160.3072,35.9172
160.3933,35.8021
160.3934,35.8021
160.4436,35.6674
160.4436,35.6674
160.4500,35.6078
160.4500,35.6078
160.4500,34.9600
159.5330,34.9600
159.5659,34.9030
159.6000,34.7758
159.6000,34.6442
159.5659,34.5170
159.5330,34.4600
160.4500,34.4600
160.4500,33.8122
160.4500,33.8122
160.4436,33.7526
160.4436,33.7526
160.3934,33.6179
160.3933,33.6179
160.3072,33.5028
160.3072,33.5028
160.3009,33.4981
160.1921,33.4166
160.1921,33.4166
160.1532,33.4021
173.0145,33.4021
173.0145,34.3479
173.0145,34.3479
173.0209,34.4075
173.0712,34.5423
173.0712,34.5423
173.1575,34.6575
173.1575,34.6575
173.2727,34.7438
173.2727,34.7438
173.4075,34.7941
173.4075,34.7941
173.4144,34.7948
173.4671,34.8005
174.4129,34.8005
174.4725,34.7941
174.5678,34.7586
174.6375,34.7536
174.6586,34.7602
174.6700,34.7649
174.6700,34.7649
174.6700,34.7649
174.8488,34.8005
174.8488,34.8005
175.0312,34.8005
175.1552,34.7758
175.2100,34.7649
175.3784,34.6952
175.3784,34.6952
175.3815,34.6935
175.3834,34.6931
175.3840,34.6928
175.3841,34.6930
175.4499,34.6792
175.4985,34.6935
175.5016,34.6952
175.6190,34.7438
175.6700,34.7649
175.6700,34.7649
175.6700,34.7649
175.8488,34.8005
175.8488,34.8005
176.0312,34.8005
176.1552,34.7758
176.2100,34.7649
176.3784,34.6952
176.3784,34.6952
176.3815,34.6935
176.3834,34.6931
176.3840,34.6928
176.3841,34.6930
176.4499,34.6792
176.4985,34.6935
176.5016,34.6952
176.6190,34.7438
176.6700,34.7649
176.6700,34.7649
176.6700,34.7649
176.8488,34.8005
176.8488,34.8005
177.0312,34.8005
177.1552,34.7758
177.2100,34.7649
177.3784,34.6952
177.3784,34.6952
177.3815,34.6935
177.3834,34.6931
177.3840,34.6928
177.3841,34.6930
177.4499,34.6792
177.4985,34.6935
177.5016,34.6952
177.6190,34.7438
177.6700,34.7649
177.6700,34.7649
177.6700,34.7649
177.8488,34.8005
177.8488,34.8005
178.0312,34.8005
178.1552,34.7758
178.2100,34.7649
178.3784,34.6952
178.3784,34.6952
178.3815,34.6935
178.3834,34.6931
178.3840,34.6928
178.3841,34.6930
178.4499,34.6792
178.4985,34.6935
178.5016,34.6952
178.6190,34.7438
178.6700,34.7649
178.6700,34.7649
178.6700,34.7649
178.8488,34.8005
178.8488,34.8005
179.0312,34.8005
179.1552,34.7758
179.2100,34.7649
179.3784,34.6952
179.3784,34.6952
179.3815,34.6935
179.3834,34.6931
179.3840,34.6928
179.3841,34.6930
179.4499,34.6792
179.4985,34.6935
179.5016,34.6952
179.6190,34.7438
179.6700,34.7649
179.6700,34.7649
179.6700,34.7649
179.8488,34.8005
179.8488,34.8005
180.0312,34.8005
180.1552,34.7758
180.2100,34.7649
180.3784,34.6952
180.3784,34.6952
180.3815,34.6935
180.3834,34.6931
180.3840,34.6928
180.3841,34.6930
180.4499,34.6792
180.4985,34.6935
180.5016,34.6952
180.6190,34.7438
180.6700,34.7649
180.6700,34.7649
180.6700,34.7649
180.8488,34.8005
180.8488,34.8005
181.0312,34.8005
181.1552,34.7758
181.2100,34.7649
181.3268,34.7165
181.3784,34.6952
181.3784,34.6952
181.5153,34.6037
181.5300,34.5939
181.6589,34.4650
181.7602,34.3134
181.8299,34.1450
181.8476,34.0560
181.8655,33.9662
181.8655,33.7838
181.8299,33.6050
181.8299,33.6050
181.8299,33.6050
181.8299,33.6050
181.7602,33.4366
181.7602,33.4366
181.6589,33.2850
181.6589,33.2850
181.5300,33.1561
181.5300,33.1561
181.3784,33.0548
181.3784,33.0548
181.2100,32.9851
181.2100,32.9851
181.0312,32.9495
181.0312,32.9495
180.8488,32.9495
180.8488,32.9495
180.6700,32.9851
180.6700,32.9851
180.5016,33.0548
180.4984,33.0565
180.4966,33.0569
180.4960,33.0572
180.4959,33.0570
180.4300,33.0708
180.3816,33.0565
180.3784,33.0548
180.2100,32.9851
180.2100,32.9851
180.0312,32.9495
180.0312,32.9495
179.8488,32.9495
179.8488,32.9495
179.6700,32.9851
179.6700,32.9851
179.5016,33.0548
179.4984,33.0565
179.4966,33.0569
179.4960,33.0572
179.4959,33.0570
179.4300,33.0708
179.3816,33.0565
179.3784,33.0548
179.2100,32.9851
179.2100,32.9851
179.0312,32.9495
179.0312,32.9495
178.8488,32.9495
178.8488,32.9495
178.6700,32.9851
178.6700,32.9851
178.5016,33.0548
178.4984,33.0565
178.4966,33.0569
178.4960,33.0572
178.4959,33.0570
178.4300,33.0708
178.3816,33.0565
178.3784,33.0548
178.2100,32.9851
178.2100,32.9851
178.0312,32.9495
178.0312,32.9495
177.8488,32.9495
177.8488,32.9495
177.6700,32.9851
177.6700,32.9851
177.5016,33.0548
177.4984,33.0565
177.4966,33.0569
177.4960,33.0572
177.4959,33.0570
177.4300,33.0708
177.3816,33.0565
177.3784,33.0548
177.2100,32.9851
177.2100,32.9851
177.0312,32.9495
177.0312,32.9495
176.8488,32.9495
176.8488,32.9495
176.6700,32.9851
176.6700,32.9851
176.5016,33.0548
176.4984,33.0565
176.4966,33.0569
176.4960,33.0572
176.4959,33.0570
176.4300,33.0708
176.3816,33.0565
176.3784,33.0548
176.2100,32.9851
176.2100,32.9851
176.0312,32.9495
176.0312,32.9495
175.8488,32.9495
175.8488,32.9495
175.6700,32.9851
175.6700,32.9851
175.5016,33.0548
175.4984,33.0565
175.4966,33.0569
175.4960,33.0572
175.4959,33.0570
175.4300,33.0708
175.3816,33.0565
175.3784,33.0548
175.2100,32.9851
175.2100,32.9851
175.0312,32.9495
175.0312,32.9495
174.8488,32.9495
174.8488,32.9495
174.6700,32.9851
174.6700,32.9851
174.6585,32.9898
174.5891,32.9973
174.5678,32.9914
174.5634,32.9898
174.5326,32.9783
174.4725,32.9559
174.4725,32.9559
174.4129,32.9495
174.4129,32.9495
174.4129,32.9495
174.4129,32.9495
173.4671,32.9495
173.4671,32.9495
173.4075,32.9559
173.2727,33.0062
173.2727,33.0062
173.1575,33.0925
173.1575,33.0925
173.0712,33.2077
173.0712,33.2077
173.0209,33.3425
173.0145,33.4021
173.0145,33.4021
160.1532,33.4021
160.0574,33.3664
160.0574,33.3664
159.9978,33.3600
159.3500,33.3600
159.3500,34.2770
159.2930,34.2441
159.1658,34.2100
159.0342,34.2100
158.9070,34.2441
158.8500,34.2770
158.8500,33.3600
158.2022,33.3600
158.1426,33.3664
158.1426,33.3664
158.0079,33.4166
158.0079,33.4166
157.8928,33.5028
157.8928,33.5028
157.8066,33.6179
157.8066,33.6179
157.7576,33.7495
157.7157,33.8054
157.6502,33.8298
157.5820,33.8150
157.5537,33.7938
157.4398,33.6799
157.2678,33.5550
157.0784,33.4584
157.0784,33.4584
157.0784,33.4584
156.8762,33.3928
156.8762,33.3928
156.8762,33.3928
156.7150,33.3672
156.6663,33.3595
156.5191,33.3595
156.4521,33.3398
156.4063,33.2870
156.3964,33.2179
156.4254,33.1543
156.4314,33.1478
156.7066,32.8727
157.2805,32.2987
157.3596,32.1618
157.4005,32.0091
157.4005,31.8509
157.4005,31.8433
157.4005,31.8433
157.4005,31.6908
157.4202,31.6238
157.4730,31.5781
157.5235,31.5669
198.8798,31.2460
Z" /> 
</g> 
</svg>
