M48
; DRILL file {KiCad 9.0.7} date 2026-04-30T15:34:52+0200
; FORMAT={-:-/ absolute / metric / decimal}
; #@! TF.CreationDate,2026-04-30T15:34:52+02:00
; #@! TF.GenerationSoftware,Kicad,Pcbnew,9.0.7
; #@! TF.FileFunction,Plated,1,2,PTH
FMAT,2
METRIC
; #@! TA.AperFunction,Plated,PTH,ViaDrill
T1C0.300
; #@! TA.AperFunction,Plated,PTH,ViaDrill
T2C0.400
; #@! TA.AperFunction,Plated,PTH,ComponentDrill
T3C0.500
; #@! TA.AperFunction,Plated,PTH,ComponentDrill
T4C0.900
; #@! TA.AperFunction,Plated,PTH,ComponentDrill
T5C1.000
; #@! TA.AperFunction,Plated,PTH,ComponentDrill
T6C1.300
; #@! TA.AperFunction,Plated,PTH,ComponentDrill
T7C3.200
%
G90
G05
T1
X87.4Y-75.2
X121.85Y-98.6
X125.2Y-65.8
X125.4Y-89.14
X125.54Y-69.31
X135.2Y-89.4
X135.3Y-75.65
X135.3Y-83.675
X135.575Y-65.975
X137.8Y-93.45
X141.8Y-27.45
X142.75Y-62.625
X142.95Y-68.8
X144.2Y-61.175
X147.175Y-62.675
X148.35Y-28.6
X151.181Y-66.519
X156.8Y-28.6
X157.1Y-78.15
X158.5Y-74.0
X158.85Y-79.6
X159.06Y-54.28
X162.0Y-34.0
X164.0Y-32.5
X165.55Y-89.775
X165.575Y-86.7
X165.75Y-43.0
X165.75Y-66.75
X167.0Y-41.5
X167.0Y-88.25
X167.0Y-90.15
X169.35Y-67.575
X169.425Y-64.125
X170.0Y-32.5
X170.5Y-89.875
X171.25Y-65.875
X171.6Y-49.125
X171.725Y-88.25
X172.0Y-34.25
X173.0Y-52.5
X174.6Y-49.125
X178.275Y-45.6
X179.625Y-43.875
X179.625Y-46.9
X182.8Y-38.65
X182.9Y-34.95
X184.475Y-36.575
T2
X99.39Y-66.35
X99.52Y-88.43
X101.29Y-46.72
X101.305Y-50.385
X101.34Y-90.01
X101.54Y-67.94
X102.54Y-61.09
X102.71Y-83.12
X102.9Y-69.15
X102.98Y-88.44
X103.13Y-91.12
X104.75Y-54.5
X110.55Y-76.45
X116.93Y-53.53
X117.32Y-76.5
X120.02Y-51.46
X121.94Y-52.94
X124.2Y-51.75
X125.94Y-53.22
X127.81Y-69.58
X129.0Y-57.66
X129.36Y-68.16
X129.82Y-76.96
X131.05Y-59.67
X131.42Y-78.88
X131.95Y-93.5
X132.925Y-34.275
X134.59Y-32.61
X137.95Y-54.0
X140.267Y-52.282
X141.815Y-32.765
X143.12Y-37.48
X143.24Y-42.86
X143.26Y-34.29
T3
X173.94Y-33.875
X174.94Y-33.875
X175.94Y-33.875
X176.94Y-33.875
X177.94Y-33.875
X178.94Y-33.875
X179.94Y-33.875
X180.94Y-33.875
T4
X175.94Y-91.25
X175.94Y-94.55
X178.44Y-91.25
X178.44Y-94.55
X180.94Y-91.25
X180.94Y-94.55
T5
X148.94Y-34.71
X151.48Y-34.71
X154.02Y-34.71
X156.56Y-34.71
X159.1Y-34.71
X193.44Y-75.07
X193.44Y-77.84
X193.44Y-80.61
X193.44Y-83.38
X193.44Y-86.15
X193.485Y-42.89
X193.485Y-45.66
X193.485Y-48.43
X193.485Y-51.2
X193.485Y-53.97
X196.28Y-76.455
X196.28Y-79.225
X196.28Y-81.995
X196.28Y-84.765
X196.325Y-44.275
X196.325Y-47.045
X196.325Y-49.815
X196.325Y-52.585
T6
X93.572Y-36.425
X93.572Y-41.425
X94.075Y-85.31
X94.075Y-90.31
X94.172Y-62.502
X94.172Y-67.502
X152.89Y-91.017
X157.89Y-91.017
T7
X196.28Y-68.11
X196.28Y-93.11
X196.325Y-35.93
X196.325Y-60.93
M30
